<svg width="20" height="20" viewBox="0 0 20 20" fill="none" xmlns="http://www.w3.org/2000/svg">
<path d="M16.4917 3.51666C14.025 1.05833 10.025 1.05833 7.57504 3.51666C5.85004 5.225 5.33337 7.68333 6.00004 9.85L2.08337 13.7667C1.80837 14.05 1.61671 14.6083 1.67504 15.0083L1.92504 16.825C2.01671 17.425 2.57504 17.9917 3.17504 18.075L4.99171 18.325C5.39171 18.3833 5.95004 18.2 6.23337 17.9083L6.91671 17.225C7.08337 17.0667 7.08337 16.8 6.91671 16.6333L5.30004 15.0167C5.05837 14.775 5.05837 14.375 5.30004 14.1333C5.54171 13.8917 5.94171 13.8917 6.18337 14.1333L7.80837 15.7583C7.96671 15.9167 8.23337 15.9167 8.39171 15.7583L10.1584 14C12.3167 14.675 14.775 14.15 16.4917 12.4417C18.95 9.98333 18.95 5.975 16.4917 3.51666ZM12.0834 10C10.9334 10 10 9.06666 10 7.91666C10 6.76666 10.9334 5.83333 12.0834 5.83333C13.2334 5.83333 14.1667 6.76666 14.1667 7.91666C14.1667 9.06666 13.2334 10 12.0834 10Z" fill="white"/>
</svg>
