<svg width="43" height="42" viewBox="0 0 43 42" fill="none" xmlns="http://www.w3.org/2000/svg">
<path d="M31.9095 7.8225C31.7662 7.8225 31.6229 7.7875 31.4974 7.7175C28.0574 5.985 25.0833 5.25 21.5179 5.25C17.9704 5.25 14.602 6.0725 11.5383 7.7175C11.1083 7.945 10.5708 7.7875 10.32 7.3675C10.2082 7.16283 10.1831 6.92351 10.2502 6.70098C10.3172 6.47845 10.4709 6.29049 10.6783 6.1775C14.0108 4.41 17.6658 3.5 21.5179 3.5C25.3341 3.5 28.6666 4.3225 32.3216 6.16C32.7695 6.3875 32.9308 6.9125 32.6979 7.3325C32.627 7.47838 32.5155 7.60177 32.376 7.68845C32.2365 7.77514 32.0748 7.8216 31.9095 7.8225ZM6.27078 17.01C6.10563 17.0115 5.94328 16.9683 5.80174 16.8852C5.66019 16.802 5.54499 16.6822 5.46891 16.539C5.39283 16.3959 5.35885 16.2349 5.37072 16.074C5.3826 15.9131 5.43988 15.7585 5.5362 15.6275C7.30995 13.1775 9.56745 11.2525 12.255 9.905C17.8808 7.07 25.0833 7.0525 30.727 9.8875C33.4145 11.235 35.672 13.1425 37.4458 15.575C37.5145 15.669 37.5635 15.7755 37.5899 15.8881C37.6163 16.0007 37.6196 16.1174 37.5997 16.2313C37.5797 16.3452 37.5368 16.4541 37.4735 16.5517C37.4102 16.6493 37.3277 16.7337 37.2308 16.8C36.8187 17.08 36.2633 16.9925 35.9766 16.59C34.4076 14.4207 32.3235 12.6552 29.9029 11.445C24.7608 8.8725 18.1854 8.8725 13.0612 11.4625C10.6245 12.6875 8.58203 14.4375 6.96953 16.6425C6.8262 16.8875 6.55745 17.01 6.27078 17.01ZM17.4687 38.1325C17.3512 38.1339 17.2347 38.1113 17.1267 38.0661C17.0187 38.0209 16.9216 37.9541 16.8416 37.87C15.2829 36.3475 14.4408 35.3675 13.2404 33.25C12.0041 31.0975 11.3591 28.4725 11.3591 25.655C11.3591 20.4575 15.91 16.2225 21.5 16.2225C27.09 16.2225 31.6408 20.4575 31.6408 25.655C31.6408 26.145 31.2466 26.53 30.7449 26.53C30.2433 26.53 29.8491 26.145 29.8491 25.655C29.8491 21.42 26.1045 17.9725 21.5 17.9725C16.8954 17.9725 13.1508 21.42 13.1508 25.655C13.1508 28.175 13.7241 30.5025 14.817 32.3925C15.9637 34.405 16.752 35.2625 18.1316 36.6275C18.472 36.9775 18.472 37.52 18.1316 37.87C17.9345 38.045 17.7016 38.1325 17.4687 38.1325ZM30.315 34.895C28.1829 34.895 26.3016 34.37 24.7608 33.3375C22.0912 31.57 20.4966 28.7 20.4966 25.655C20.4966 25.165 20.8908 24.78 21.3925 24.78C21.8941 24.78 22.2883 25.165 22.2883 25.655C22.2883 28.1225 23.5783 30.45 25.7641 31.885C27.0362 32.725 28.5233 33.1275 30.315 33.1275C30.7449 33.1275 31.4616 33.075 32.1783 32.9525C32.662 32.865 33.1279 33.18 33.2175 33.67C33.307 34.1425 32.9845 34.5975 32.4829 34.685C31.4616 34.8775 30.5658 34.895 30.315 34.895ZM26.7137 38.5C26.642 38.5 26.5525 38.4825 26.4808 38.465C23.632 37.695 21.7687 36.6625 19.8158 34.79C18.5782 33.5965 17.5969 32.1738 16.9293 30.6052C16.2618 29.0366 15.9213 27.3537 15.9279 25.655C15.9279 22.82 18.4004 20.51 21.4462 20.51C24.492 20.51 26.9645 22.82 26.9645 25.655C26.9645 27.5275 28.6308 29.05 30.6912 29.05C32.7516 29.05 34.4179 27.5275 34.4179 25.655C34.4179 19.0575 28.5949 13.7025 21.4283 13.7025C16.34 13.7025 11.6816 16.4675 9.58537 20.755C8.88662 22.1725 8.52828 23.835 8.52828 25.655C8.52828 27.02 8.6537 29.1725 9.7287 31.9725C9.90787 32.4275 9.67495 32.935 9.20912 33.0925C8.74328 33.2675 8.2237 33.0225 8.06245 32.585C7.19912 30.3718 6.75591 28.0234 6.75453 25.655C6.75453 23.555 7.16662 21.6475 7.97287 19.985C10.3558 15.1025 15.6412 11.935 21.4283 11.935C29.5804 11.935 36.2095 18.0775 36.2095 25.6375C36.2095 28.4725 33.737 30.7825 30.6912 30.7825C27.6454 30.7825 25.1729 28.4725 25.1729 25.6375C25.1729 23.765 23.5066 22.2425 21.4462 22.2425C19.3858 22.2425 17.7195 23.765 17.7195 25.6375C17.7195 28.63 18.902 31.43 21.07 33.53C22.772 35.175 24.4025 36.085 26.9287 36.7675C27.4124 36.89 27.6812 37.38 27.5558 37.835C27.4662 38.2375 27.09 38.5 26.7137 38.5Z" fill="#BEBEBE"/>
</svg>
