<svg width="11" height="14" viewBox="0 0 11 14" fill="none" xmlns="http://www.w3.org/2000/svg">
<path d="M4.50902 12.5247L4.50902 12.5251L4.51523 12.5243L4.54848 12.5205L4.54886 12.5204L4.54925 12.5204L4.54964 12.5203L4.55003 12.5203L4.55041 12.5202L4.5508 12.5202L4.55118 12.5201L4.55157 12.5201L4.55195 12.5201L4.55233 12.52L4.55272 12.52L4.5531 12.5199L4.55348 12.5199L4.55386 12.5198L4.55424 12.5198L4.55461 12.5197L4.55499 12.5197L4.55537 12.5197L4.55574 12.5196L4.55612 12.5196L4.55649 12.5195L4.55687 12.5195L4.55724 12.5194L4.55761 12.5194L4.55798 12.5194L4.55835 12.5193L4.55872 12.5193L4.55909 12.5192L4.55946 12.5192L4.55983 12.5191L4.5602 12.5191L4.56056 12.5191L4.56093 12.519L4.56129 12.519L4.56166 12.5189L4.56202 12.5189L4.56238 12.5188L4.56275 12.5188L4.56311 12.5188L4.56347 12.5187L4.56383 12.5187L4.56419 12.5186L4.56455 12.5186L4.5649 12.5185L4.56526 12.5185L4.56562 12.5185L4.56597 12.5184L4.56633 12.5184L4.56668 12.5183L4.56704 12.5183L4.56739 12.5183L4.56774 12.5182L4.56809 12.5182L4.56845 12.5181L4.5688 12.5181L4.56915 12.5181L4.56949 12.518L4.56984 12.518L4.57019 12.5179L4.57054 12.5179L4.57088 12.5179L4.57123 12.5178L4.57157 12.5178L4.57192 12.5177L4.57226 12.5177L4.57261 12.5177L4.57295 12.5176L4.57329 12.5176L4.57363 12.5175L4.57397 12.5175L4.57431 12.5175L4.57465 12.5174L4.57499 12.5174L4.57533 12.5173L4.57566 12.5173L4.576 12.5173L4.57634 12.5172L4.57667 12.5172L4.577 12.5171L4.57734 12.5171L4.57767 12.5171L4.578 12.517L4.57834 12.517L4.57867 12.5169L4.579 12.5169L4.57933 12.5169L4.57966 12.5168L4.57999 12.5168L4.58031 12.5168L4.58064 12.5167L4.58097 12.5167L4.58129 12.5166L4.58162 12.5166L4.58195 12.5166L4.58227 12.5165L4.58259 12.5165L4.58292 12.5164L4.58324 12.5164L4.58356 12.5164L4.58388 12.5163L4.5842 12.5163L4.58452 12.5163L4.58484 12.5162L4.58516 12.5162L4.58548 12.5162L4.5858 12.5161L4.58611 12.5161L4.58643 12.516L4.58675 12.516L4.58706 12.516L4.58738 12.5159L4.58769 12.5159L4.588 12.5159L4.58832 12.5158L4.58863 12.5158L4.58894 12.5157L4.58925 12.5157L4.58956 12.5157L4.58987 12.5156L4.59018 12.5156L4.59049 12.5156L4.5908 12.5155L4.59111 12.5155L4.59141 12.5155L4.59172 12.5154L4.59202 12.5154L4.59233 12.5154L4.59263 12.5153L4.59294 12.5153L4.59324 12.5152L4.59355 12.5152L4.59385 12.5152L4.59415 12.5151L4.59445 12.5151L4.59475 12.5151L4.59505 12.515L4.59535 12.515L4.59565 12.515L4.59595 12.5149L4.59625 12.5149L4.59654 12.5149L4.59684 12.5148L4.59714 12.5148L4.59743 12.5148L4.59773 12.5147L4.59802 12.5147L4.59832 12.5147L4.59861 12.5146L4.5989 12.5146L4.5992 12.5146L4.59949 12.5145L4.59978 12.5145L4.60007 12.5144L4.60036 12.5144L4.60065 12.5144L4.60094 12.5143L4.60123 12.5143L4.60152 12.5143L4.6018 12.5142L4.60209 12.5142L4.60238 12.5142L4.60266 12.5141L4.60295 12.5141L4.60324 12.5141L4.60352 12.514L4.6038 12.514L4.60409 12.514L4.60437 12.5139L4.60465 12.5139L4.60493 12.5139L4.60522 12.5138L4.6055 12.5138L4.60578 12.5138L4.60606 12.5138L4.60634 12.5137L4.60662 12.5137L4.60689 12.5137L4.60717 12.5136L4.60745 12.5136L4.60773 12.5136L4.608 12.5135L4.60828 12.5135L4.60856 12.5135L4.60883 12.5134L4.6091 12.5134L4.60938 12.5134L4.60965 12.5133L4.60993 12.5133L4.6102 12.5133L4.61047 12.5132L4.61074 12.5132L4.61101 12.5132L4.61128 12.5131L4.61155 12.5131L4.61182 12.5131L4.61209 12.513L4.61236 12.513L4.61263 12.513L4.6129 12.513L4.61317 12.5129L4.61343 12.5129L4.6137 12.5129L4.61396 12.5128L4.61423 12.5128L4.6145 12.5128L4.61476 12.5127L4.61502 12.5127L4.61529 12.5127L4.61555 12.5126L4.61581 12.5126L4.61608 12.5126L4.61634 12.5126L4.6166 12.5125L4.61686 12.5125L4.61712 12.5125L4.61738 12.5124L4.61764 12.5124L4.6179 12.5124L4.61816 12.5123L4.61842 12.5123L4.61868 12.5123L4.61893 12.5123L4.61919 12.5122L4.61945 12.5122L4.6197 12.5122L4.61996 12.5121L4.62021 12.5121L4.62047 12.5121L4.62072 12.512L4.62098 12.512L4.62123 12.512L4.62149 12.512L4.62174 12.5119L4.62199 12.5119L4.62224 12.5119L4.62249 12.5118L4.62275 12.5118L4.623 12.5118L4.62325 12.5117L4.6235 12.5117L4.62375 12.5117L4.624 12.5117L4.62424 12.5116L4.62449 12.5116L4.62474 12.5116L4.62499 12.5115L4.62524 12.5115L4.62548 12.5115L4.62573 12.5115L4.62597 12.5114L4.62622 12.5114L4.62647 12.5114L4.62671 12.5113L4.62696 12.5113L4.6272 12.5113L4.62744 12.5113L4.62769 12.5112L4.62793 12.5112L4.62817 12.5112L4.62841 12.5111L4.62866 12.5111L4.6289 12.5111L4.62914 12.5111L4.62938 12.511L4.62962 12.511L4.62986 12.511L4.6301 12.5109L4.63034 12.5109L4.63058 12.5109L4.63082 12.5109L4.63105 12.5108L4.63129 12.5108L4.63153 12.5108L4.63177 12.5108L4.632 12.5107L4.63224 12.5107L4.63248 12.5107L4.63271 12.5106L4.63295 12.5106L4.63318 12.5106L4.63342 12.5106L4.63365 12.5105L4.63388 12.5105L4.63412 12.5105L4.63435 12.5105L4.63458 12.5104L4.63482 12.5104L4.63505 12.5104L4.63528 12.5103L4.63551 12.5103L4.63574 12.5103L4.63597 12.5103L4.63621 12.5102L4.63644 12.5102L4.63667 12.5102L4.6369 12.5102L4.63712 12.5101L4.63735 12.5101L4.63758 12.5101L4.63781 12.5101L4.63804 12.51L4.63827 12.51L4.63849 12.51L4.63872 12.5099L4.63895 12.5099L4.63917 12.5099L4.6394 12.5099L4.63963 12.5098L4.63985 12.5098L4.64008 12.5098L4.6403 12.5098L4.64053 12.5097L4.64075 12.5097L4.64098 12.5097L4.6412 12.5097L4.64142 12.5096L4.64165 12.5096L4.64187 12.5096L4.64209 12.5096L4.64231 12.5095L4.64254 12.5095L4.64276 12.5095L4.64298 12.5094L4.6432 12.5094L4.64342 12.5094L4.64364 12.5094L4.64386 12.5093L4.64408 12.5093L4.6443 12.5093L4.64452 12.5093L4.64474 12.5092L4.64496 12.5092L4.64518 12.5092L4.6454 12.5092L4.64562 12.5091L4.64583 12.5091L4.64605 12.5091L4.64627 12.5091L4.64649 12.509L4.6467 12.509L4.64692 12.509L4.64714 12.509L4.64735 12.5089L4.64757 12.5089L4.64778 12.5089L4.648 12.5089L4.64821 12.5088L4.64843 12.5088L4.64864 12.5088L4.64886 12.5088L4.64907 12.5087L4.64929 12.5087L4.6495 12.5087L4.64971 12.5087L4.64993 12.5086L4.65014 12.5086L4.65035 12.5086L4.65057 12.5086L4.65078 12.5085L4.65099 12.5085L4.6512 12.5085L4.65141 12.5085L4.65163 12.5084L4.65184 12.5084L4.65205 12.5084L4.65226 12.5084L4.65247 12.5083L4.65268 12.5083L4.65289 12.5083L4.6531 12.5083L4.65331 12.5082L4.65352 12.5082L4.65373 12.5082L4.65394 12.5082L4.65415 12.5081L4.65435 12.5081L4.65456 12.5081L4.65477 12.5081L4.65498 12.508L4.65519 12.508L4.65539 12.508L4.6556 12.508L4.65581 12.508L4.65602 12.5079L4.65622 12.5079L4.65643 12.5079L4.65664 12.5079L4.65684 12.5078L4.65705 12.5078L4.65726 12.5078L4.65746 12.5078L4.65767 12.5077L4.65787 12.5077L4.65808 12.5077L4.65828 12.5077L4.65849 12.5076L4.65869 12.5076L4.6589 12.5076L4.6591 12.5076L4.65931 12.5075L4.65951 12.5075L4.65971 12.5075L4.65992 12.5075L4.66012 12.5075L4.66032 12.5074L4.66053 12.5074L4.66073 12.5074L4.66093 12.5074L4.66114 12.5073L4.66134 12.5073L4.66154 12.5073L4.66174 12.5073L4.66195 12.5072L4.66215 12.5072L4.66235 12.5072L4.66255 12.5072L4.66275 12.5071L4.66295 12.5071L4.66316 12.5071L4.66336 12.5071L4.66356 12.507L4.66376 12.507L4.66396 12.507L4.66416 12.507L4.66436 12.507L4.66456 12.5069L4.66476 12.5069L4.66496 12.5069L4.66516 12.5069L4.66536 12.5068L4.66556 12.5068L4.66576 12.5068L4.66596 12.5068L4.66616 12.5067L4.66636 12.5067L4.66656 12.5067L4.66676 12.5067L4.66696 12.5067L4.66715 12.5066L4.66735 12.5066L4.66755 12.5066L4.66775 12.5066L4.66795 12.5065L4.66815 12.5065L4.66835 12.5065L4.66854 12.5065L4.66874 12.5064L4.66894 12.5064L4.66914 12.5064L4.66934 12.5064L4.66953 12.5064L4.66973 12.5063L4.66993 12.5063L4.67013 12.5063L4.67032 12.5063L4.67052 12.5062L4.67072 12.5062L4.67091 12.5062L4.67111 12.5062L4.67131 12.5061L4.6715 12.5061L4.6717 12.5061L4.6719 12.5061L4.67209 12.5061L4.67229 12.506L4.67249 12.506L4.67268 12.506L4.67288 12.506L4.67308 12.5059L4.67327 12.5059L4.67347 12.5059L4.67366 12.5059L4.67386 12.5058L4.67406 12.5058L4.67425 12.5058L4.67445 12.5058L4.67464 12.5058L4.67484 12.5057L4.67504 12.5057L4.67523 12.5057L4.67543 12.5057L4.67562 12.5056L4.67582 12.5056L4.67601 12.5056L4.67621 12.5056L4.6764 12.5056L4.6766 12.5055L4.67679 12.5055L4.67699 12.5055L4.67718 12.5055L4.67738 12.5054L4.67757 12.5054L4.67777 12.5054L4.67797 12.5054L4.67816 12.5053L4.67836 12.5053L4.67855 12.5053L4.67875 12.5053L4.67894 12.5053L4.67913 12.5052L4.67933 12.5052L4.67952 12.5052L4.67972 12.5052L4.67991 12.5051L4.68011 12.5051L4.6803 12.5051L4.6805 12.5051L4.68069 12.5051L4.68089 12.505L4.68108 12.505L4.68128 12.505L4.68147 12.505C5.20686 12.4437 5.57894 12.0096 5.62223 11.4786L5.62241 11.4786L5.6224 11.4744L5.61709 9.11597L5.61711 9.11597L5.61708 9.11481C5.59893 8.40006 6.11088 7.75152 6.80936 7.57201L6.81737 7.56995L6.8243 7.56541C6.85751 7.54367 6.88782 7.51933 6.90782 7.48733C6.92904 7.4534 6.93577 7.41567 6.93082 7.37317L6.92945 7.36144L6.92299 7.35157C6.90124 7.31835 6.87691 7.28805 6.84491 7.26805C6.81097 7.24683 6.77325 7.24009 6.73074 7.24505L6.73067 7.24441L6.72297 7.24658C5.88674 7.48225 5.28341 8.24358 5.28047 9.10979L5.28047 9.11008L5.28578 11.4685L5.28574 11.4685L5.28581 11.4704C5.3018 11.8772 4.9619 12.1989 4.58451 12.1804L4.58454 12.1797L4.57627 12.1806L4.54495 12.1843C4.1431 12.199 3.84984 11.8595 3.83693 11.4796L3.84263 4.30187C3.84263 4.30181 3.84263 4.30175 3.84263 4.30168C3.85171 3.19834 3.02059 2.26191 1.9067 2.14798C1.86105 2.13327 1.81363 2.13763 1.77668 2.16183C1.73691 2.18787 1.71508 2.23342 1.72108 2.28495C1.72582 2.32556 1.74089 2.36785 1.76823 2.40005C1.79566 2.43236 1.83612 2.45461 1.88596 2.45076C2.81127 2.54145 3.52673 3.34202 3.53926 4.29166C3.53926 4.29181 3.53927 4.29196 3.53927 4.29211L3.50418 11.5072C3.50418 11.5072 3.50418 11.5072 3.50418 11.5072C3.4995 12.0748 3.94197 12.52 4.50902 12.5247Z" fill="#FF7C7C" stroke="#FF7C7C" stroke-width="0.1"/>
<path d="M9.59134 7.55124L9.64797 7.55171L9.64141 7.49546L9.61428 7.26271L9.60918 7.21895L9.56513 7.2185L7.43942 7.19668L7.43942 7.19627L7.43312 7.19701C7.3925 7.20174 7.35021 7.21681 7.31801 7.24416C7.28446 7.27265 7.26175 7.3152 7.26787 7.36771C7.27261 7.40833 7.28768 7.45062 7.31502 7.48282C7.3429 7.51565 7.38422 7.53809 7.43517 7.53332L9.59134 7.55124Z" fill="#FF7C7C" stroke="#FF7C7C" stroke-width="0.1"/>
<path d="M4.06977 5.94852L4.06941 5.94851L4.0701 5.95447C4.07484 5.99509 4.08991 6.03738 4.11725 6.06958C4.1436 6.1006 4.18195 6.12235 4.22909 6.12062C4.25126 6.12678 4.27375 6.12732 4.2955 6.12026C4.32038 6.1122 4.33856 6.09606 4.35174 6.07941C4.37524 6.04971 4.39035 6.00792 4.40194 5.97586C4.40243 5.9745 4.40292 5.97316 4.4034 5.97184L4.40636 5.96367L4.40639 5.95497L4.4121 4.26925L4.4121 4.26897C4.4094 3.06775 3.59807 1.9948 2.46165 1.68048L2.42969 1.67164L2.40911 1.69764C2.38422 1.7291 2.35073 1.75523 2.31112 1.78575C2.31041 1.7863 2.3097 1.78685 2.30898 1.7874C2.27177 1.81606 2.22896 1.84903 2.19574 1.89102L2.14607 1.95381L2.22428 1.97089C3.30805 2.20762 4.08047 3.17379 4.07548 4.26273L4.07548 4.26279L4.06977 5.94852Z" fill="#FF7C7C" stroke="#FF7C7C" stroke-width="0.1"/>
<path d="M9.42976 7.03088L9.48619 7.03114L9.47966 6.97509L9.45253 6.74235L9.44741 6.69842L9.40318 6.69814L7.21122 6.68406C7.21118 6.68406 7.21114 6.68406 7.21109 6.68406C5.86625 6.66871 4.76027 7.79578 4.74487 9.13825L4.74487 9.13841L4.7359 10.2179L4.73551 10.2179L4.73623 10.2241C4.74097 10.2647 4.75604 10.307 4.78338 10.3392C4.81188 10.3728 4.85442 10.3955 4.90694 10.3893C4.93663 10.3859 4.97067 10.3684 4.99613 10.3426C5.02242 10.3161 5.04399 10.276 5.03929 10.2259L5.04824 9.14924L5.04824 9.14924L5.04824 9.14855C5.04187 7.9653 6.01825 7.0272 7.20455 7.02068C7.20463 7.02068 7.20472 7.02068 7.2048 7.02068L9.42976 7.03088Z" fill="#FF7C7C" stroke="#FF7C7C" stroke-width="0.1"/>
<path d="M4.15706 11.8359L4.15631 11.8366L4.16415 11.8428C4.27704 11.9321 4.39857 11.9987 4.51958 11.9846L4.55283 11.9807L4.55303 11.9807L4.55322 11.9807L4.55341 11.9806L4.55361 11.9806L4.5538 11.9806L4.55399 11.9806L4.55418 11.9805L4.55437 11.9805L4.55456 11.9805L4.55474 11.9805L4.55493 11.9805L4.55512 11.9804L4.5553 11.9804L4.55549 11.9804L4.55567 11.9804L4.55586 11.9804L4.55604 11.9803L4.55622 11.9803L4.5564 11.9803L4.55658 11.9803L4.55676 11.9802L4.55694 11.9802L4.55712 11.9802L4.5573 11.9802L4.55747 11.9802L4.55765 11.9801L4.55783 11.9801L4.558 11.9801L4.55818 11.9801L4.55835 11.9801L4.55852 11.98L4.55869 11.98L4.55887 11.98L4.55904 11.98L4.55921 11.98L4.55938 11.9799L4.55955 11.9799L4.55971 11.9799L4.55988 11.9799L4.56005 11.9799L4.56022 11.9798L4.56038 11.9798L4.56055 11.9798L4.56071 11.9798L4.56088 11.9798L4.56104 11.9797L4.5612 11.9797L4.56136 11.9797L4.56152 11.9797L4.56169 11.9797L4.56185 11.9797L4.562 11.9796L4.56216 11.9796L4.56232 11.9796L4.56248 11.9796L4.56264 11.9796L4.56279 11.9795L4.56295 11.9795L4.56311 11.9795L4.56326 11.9795L4.56341 11.9795L4.56357 11.9795L4.56372 11.9794L4.56387 11.9794L4.56403 11.9794L4.56418 11.9794L4.56433 11.9794L4.56448 11.9793L4.56463 11.9793L4.56478 11.9793L4.56492 11.9793L4.56507 11.9793L4.56522 11.9793L4.56537 11.9792L4.56551 11.9792L4.56566 11.9792L4.5658 11.9792L4.56595 11.9792L4.56609 11.9792L4.56624 11.9791L4.56638 11.9791L4.56652 11.9791L4.56667 11.9791L4.56681 11.9791L4.56695 11.9791L4.56709 11.979L4.56723 11.979L4.56737 11.979L4.56751 11.979L4.56765 11.979L4.56778 11.979L4.56792 11.9789L4.56806 11.9789L4.5682 11.9789L4.56833 11.9789L4.56847 11.9789L4.5686 11.9789L4.56874 11.9789L4.56887 11.9788L4.56901 11.9788L4.56914 11.9788L4.56927 11.9788L4.5694 11.9788L4.56954 11.9788L4.56967 11.9787L4.5698 11.9787L4.56993 11.9787L4.57006 11.9787L4.57019 11.9787L4.57032 11.9787L4.57045 11.9787L4.57058 11.9786L4.5707 11.9786L4.57083 11.9786L4.57096 11.9786L4.57109 11.9786L4.57121 11.9786L4.57134 11.9785L4.57146 11.9785L4.57159 11.9785L4.57171 11.9785L4.57184 11.9785L4.57196 11.9785L4.57209 11.9785L4.57221 11.9784L4.57233 11.9784L4.57245 11.9784L4.57258 11.9784L4.5727 11.9784L4.57282 11.9784L4.57294 11.9784L4.57306 11.9783L4.57318 11.9783L4.5733 11.9783L4.57342 11.9783L4.57354 11.9783L4.57366 11.9783L4.57377 11.9783L4.57389 11.9783L4.57401 11.9782L4.57413 11.9782L4.57424 11.9782L4.57436 11.9782L4.57448 11.9782L4.57459 11.9782L4.57471 11.9782L4.57482 11.9781L4.57494 11.9781L4.57505 11.9781L4.57517 11.9781L4.57528 11.9781L4.57539 11.9781L4.57551 11.9781L4.57562 11.9781L4.57573 11.978L4.57585 11.978L4.57596 11.978L4.57607 11.978L4.57618 11.978L4.57629 11.978L4.5764 11.978L4.57651 11.9779L4.57663 11.9779L4.57674 11.9779L4.57685 11.9779L4.57695 11.9779L4.57706 11.9779L4.57717 11.9779L4.57728 11.9779L4.57739 11.9778L4.5775 11.9778L4.57761 11.9778L4.57771 11.9778L4.57782 11.9778L4.57793 11.9778L4.57804 11.9778L4.57814 11.9778L4.57825 11.9777L4.57836 11.9777L4.57846 11.9777L4.57857 11.9777L4.57867 11.9777L4.57878 11.9777L4.57888 11.9777L4.57899 11.9777L4.57909 11.9776L4.5792 11.9776L4.5793 11.9776L4.57941 11.9776L4.57951 11.9776L4.57962 11.9776L4.57972 11.9776L4.57982 11.9776L4.57993 11.9775L4.58003 11.9775L4.58013 11.9775L4.58023 11.9775L4.58034 11.9775L4.58044 11.9775L4.58054 11.9775L4.58064 11.9775L4.58074 11.9775L4.58085 11.9774L4.58095 11.9774L4.58105 11.9774L4.58115 11.9774L4.58125 11.9774L4.58135 11.9774L4.58145 11.9774L4.58155 11.9774L4.58165 11.9773L4.58175 11.9773L4.58185 11.9773L4.58195 11.9773L4.58205 11.9773L4.58215 11.9773L4.58225 11.9773L4.58235 11.9773L4.58245 11.9773L4.58255 11.9772L4.58265 11.9772L4.58275 11.9772L4.58285 11.9772L4.58295 11.9772L4.58305 11.9772L4.58315 11.9772L4.58325 11.9772L4.58334 11.9771L4.58344 11.9771L4.58354 11.9771L4.58364 11.9771L4.58374 11.9771L4.58384 11.9771L4.58393 11.9771L4.58403 11.9771L4.58413 11.9771L4.58423 11.977L4.58433 11.977L4.58442 11.977L4.58452 11.977L4.58462 11.977L4.58472 11.977L4.58482 11.977L4.58491 11.977L4.58501 11.977L4.58511 11.9769L4.58521 11.9769L4.5853 11.9769L4.5854 11.9769L4.5855 11.9769L4.5856 11.9769L4.58569 11.9769L4.58579 11.9769L4.58589 11.9769L4.58599 11.9768L4.58608 11.9768L4.58618 11.9768L4.58628 11.9768L4.58638 11.9768L4.58647 11.9768L4.58657 11.9768L4.58667 11.9768L4.58676 11.9768L4.58686 11.9767L4.58696 11.9767L4.58706 11.9767L4.58716 11.9767L4.58725 11.9767L4.58735 11.9767L4.58745 11.9767L4.58755 11.9767L4.58764 11.9766L4.58774 11.9766L4.58784 11.9766L4.58794 11.9766L4.58804 11.9766L4.58813 11.9766L4.58823 11.9766L4.58833 11.9766L4.58843 11.9766L4.58853 11.9765L4.58862 11.9765L4.58872 11.9765L4.58882 11.9765L4.58892 11.9765L4.58902 11.9765L4.58912 11.9765L4.58922 11.9765L4.58932 11.9765L4.58941 11.9764L4.58951 11.9764L4.58961 11.9764L4.58971 11.9764L4.58981 11.9764L4.58991 11.9764L4.59001 11.9764L4.59011 11.9764L4.59021 11.9763L4.59031 11.9763L4.59041 11.9763L4.59051 11.9763L4.59061 11.9763L4.59071 11.9763L4.59081 11.9763L4.59091 11.9763L4.59102 11.9763L4.59112 11.9762L4.59122 11.9762L4.59132 11.9762L4.59142 11.9762L4.59152 11.9762L4.59162 11.9762L4.59173 11.9762L4.59183 11.9762L4.59193 11.9761L4.59203 11.9761L4.59214 11.9761L4.59224 11.9761L4.59234 11.9761L4.59245 11.9761L4.59255 11.9761L4.59265 11.9761L4.59276 11.9761L4.59286 11.976L4.59297 11.976L4.59307 11.976L4.59318 11.976L4.59328 11.976L4.59339 11.976L4.59349 11.976L4.5936 11.976L4.5937 11.9759L4.59381 11.9759L4.59392 11.9759L4.59402 11.9759L4.59413 11.9759L4.59424 11.9759L4.59434 11.9759L4.59445 11.9759L4.59456 11.9758L4.59467 11.9758L4.59478 11.9758L4.59488 11.9758L4.59499 11.9758L4.5951 11.9758L4.59521 11.9758L4.59532 11.9758L4.59543 11.9757L4.59554 11.9757L4.59565 11.9757L4.59576 11.9757L4.59587 11.9757L4.59598 11.9757L4.5961 11.9757L4.59621 11.9757L4.59632 11.9756L4.59643 11.9756L4.59654 11.9756L4.59666 11.9756L4.59677 11.9756L4.59688 11.9756L4.597 11.9756L4.59711 11.9755L4.59723 11.9755L4.59734 11.9755L4.59746 11.9755L4.59757 11.9755L4.59769 11.9755L4.59781 11.9755L4.59792 11.9755L4.59804 11.9754L4.59816 11.9754L4.59827 11.9754L4.59839 11.9754L4.59851 11.9754L4.59863 11.9754L4.59875 11.9754L4.59887 11.9753L4.59899 11.9753L4.59911 11.9753L4.59923 11.9753L4.59935 11.9753L4.59947 11.9753L4.59959 11.9753L4.59971 11.9752L4.59983 11.9752L4.59996 11.9752L4.60008 11.9752L4.6002 11.9752L4.60033 11.9752L4.60045 11.9752L4.60058 11.9751L4.6007 11.9751L4.60083 11.9751L4.60095 11.9751L4.60108 11.9751L4.60121 11.9751L4.60133 11.9751L4.60146 11.975L4.60159 11.975L4.60172 11.975L4.60185 11.975L4.60198 11.975L4.60211 11.975L4.60224 11.9749L4.60237 11.9749L4.6025 11.9749L4.60263 11.9749L4.60276 11.9749L4.60289 11.9749L4.60303 11.9749L4.60316 11.9748L4.60329 11.9748L4.60343 11.9748L4.60356 11.9748L4.6037 11.9748L4.60383 11.9748L4.60397 11.9747L4.60411 11.9747L4.60424 11.9747L4.60438 11.9747L4.60452 11.9747L4.60466 11.9747L4.6048 11.9746L4.60494 11.9746L4.60508 11.9746L4.60522 11.9746L4.60536 11.9746L4.6055 11.9746L4.60564 11.9746L4.60579 11.9745L4.60593 11.9745L4.60607 11.9745L4.60622 11.9745L4.60636 11.9745L4.60651 11.9744L4.60665 11.9744L4.6068 11.9744L4.60695 11.9744L4.60709 11.9744L4.60724 11.9744L4.60739 11.9743L4.60754 11.9743L4.60769 11.9743L4.60784 11.9743L4.60799 11.9743L4.60814 11.9743L4.60829 11.9742L4.60845 11.9742L4.6086 11.9742L4.60875 11.9742L4.60891 11.9742L4.60906 11.9742L4.60922 11.9741L4.60937 11.9741L4.60953 11.9741L4.60969 11.9741L4.60984 11.9741L4.61 11.974L4.61016 11.974L4.61032 11.974L4.61048 11.974L4.61064 11.974L4.6108 11.9739L4.61096 11.9739L4.61113 11.9739L4.61129 11.9739L4.61145 11.9739L4.61162 11.9739L4.61178 11.9738L4.61195 11.9738L4.61212 11.9738L4.61228 11.9738L4.61245 11.9738L4.61262 11.9737L4.61279 11.9737L4.61296 11.9737L4.61313 11.9737L4.6133 11.9737L4.61347 11.9736L4.61364 11.9736L4.61382 11.9736L4.61399 11.9736L4.61416 11.9736L4.61434 11.9735L4.61452 11.9735L4.61469 11.9735L4.61487 11.9735L4.61505 11.9735L4.61523 11.9734L4.6154 11.9734L4.61558 11.9734L4.61576 11.9734L4.61595 11.9733L4.61613 11.9733L4.61631 11.9733L4.61649 11.9733L4.61668 11.9733L4.61686 11.9732L4.61705 11.9732L4.61723 11.9732L4.61742 11.9732L4.61761 11.9732L4.6178 11.9731L4.61799 11.9731L4.61818 11.9731L4.61837 11.9731L4.61856 11.973L4.61875 11.973L4.61894 11.973L4.61914 11.973L4.61933 11.973C4.72896 11.9602 4.83217 11.9115 4.89917 11.8676L4.90596 11.8632L4.911 11.8568C4.9996 11.7448 5.06586 11.6243 5.05314 11.5043L5.04989 10.9007L5.0502 10.9007L5.04955 10.8951C5.04482 10.8545 5.02975 10.8122 5.0024 10.78C4.97391 10.7465 4.93136 10.7238 4.87885 10.7299C4.83823 10.7346 4.79594 10.7497 4.76374 10.777C4.73083 10.805 4.70836 10.8464 4.71328 10.8976L4.71653 11.5013L4.71622 11.5013L4.71687 11.5068C4.7174 11.5114 4.71547 11.5281 4.70649 11.5529C4.69931 11.5728 4.68987 11.5915 4.6808 11.6047C4.65643 11.62 4.6388 11.6277 4.62193 11.6325C4.6022 11.6382 4.5816 11.6408 4.54737 11.6448L4.51413 11.6486C4.50956 11.6492 4.49281 11.6472 4.46803 11.6383C4.44819 11.6311 4.42946 11.6216 4.41628 11.6126C4.40096 11.5882 4.39329 11.5706 4.38842 11.5537C4.38288 11.5345 4.38033 11.5145 4.37653 11.482L4.36593 6.7679L4.36625 6.76789L4.36559 6.76222C4.36086 6.7216 4.34579 6.67931 4.31845 6.64711C4.28995 6.61356 4.2474 6.59085 4.19489 6.59697C4.15427 6.60171 4.11198 6.61678 4.07978 6.64412C4.04693 6.67202 4.02448 6.71339 4.0293 6.76439L4.01054 11.5157L4.01018 11.5157L4.01088 11.5217C4.02386 11.6331 4.07385 11.7379 4.15706 11.8359Z" fill="#FF7C7C" stroke="#FF7C7C" stroke-width="0.1"/>
<path d="M2.74043 1.47805L2.63505 1.52738L2.74336 1.56988C3.26504 1.77457 3.73538 2.11741 4.04936 2.54291C4.10228 2.62266 4.19191 2.65389 4.27404 2.64432L4.29461 2.64192L4.30746 2.62568C4.34373 2.57984 4.38159 2.48517 4.32395 2.39714L4.32397 2.39713L4.32322 2.39605C3.99357 1.92035 3.54053 1.56191 3.03561 1.34659L3.01505 1.33782L2.9948 1.34729C2.94553 1.37036 2.90483 1.39241 2.86538 1.41378L2.86499 1.41399C2.82531 1.43549 2.78687 1.45631 2.74043 1.47805Z" fill="#FF7C7C" stroke="#FF7C7C" stroke-width="0.1"/>
<path d="M9.29678 6.47352L9.37275 6.47445L9.34356 6.40431L9.24993 6.17932L9.23712 6.14853L9.20377 6.14853L7.18168 6.14832L7.18141 6.14832C6.30516 6.15304 5.47062 6.52243 4.90233 7.17301L4.92216 4.31174C4.93843 3.86451 4.85338 3.42846 4.67043 3.03761L4.67089 3.0374L4.66698 3.03142C4.64276 2.99443 4.61535 2.96894 4.5774 2.95866C4.54613 2.95019 4.51242 2.95416 4.48346 2.95758C4.48183 2.95777 4.48021 2.95796 4.47861 2.95815C4.45339 2.96109 4.43025 2.97034 4.41222 2.98808C4.39458 3.00542 4.38613 3.02668 4.38211 3.04594C4.37501 3.07997 4.37973 3.12023 4.38326 3.15029C4.38342 3.15167 4.38358 3.15302 4.38374 3.15435L4.38476 3.1631L4.3887 3.17097C4.55919 3.51095 4.60555 3.90063 4.61879 4.3014L4.60738 7.67194L4.60702 7.67194L4.60771 7.6779C4.61154 7.71073 4.63083 7.73621 4.64771 7.75399C4.66459 7.77176 4.68551 7.78831 4.70307 7.8022L4.70448 7.80332C4.74555 7.83581 4.79417 7.82399 4.82417 7.80995C4.85596 7.79507 4.88491 7.7703 4.90383 7.74638L4.90412 7.74661L4.9073 7.7414C5.40719 6.9224 6.27899 6.45661 7.20486 6.44782L9.29678 6.47352Z" fill="#FF7C7C" stroke="#FF7C7C" stroke-width="0.1"/>
<path d="M3.37816 1.16791L3.28557 1.21125L3.37662 1.25773C4.11579 1.63503 4.69062 2.29632 4.98731 3.12388C4.99499 3.1722 5.02465 3.20529 5.05574 3.22473C5.08643 3.24391 5.12359 3.25312 5.15328 3.24966L5.16501 3.2483L5.17488 3.24183C5.2081 3.22009 5.2384 3.19575 5.25841 3.16375C5.27962 3.12981 5.28636 3.09209 5.2814 3.04959L5.28281 3.04942L5.27868 3.03815C4.97851 2.21987 4.42081 1.53417 3.71841 1.0701L3.69503 1.05465L3.66965 1.06653C3.62582 1.08705 3.58066 1.10019 3.53122 1.11447L3.5297 1.11491C3.48174 1.12876 3.42966 1.14381 3.37816 1.16791Z" fill="#FF7C7C" stroke="#FF7C7C" stroke-width="0.1"/>
<path d="M9.13139 5.91991L9.2006 5.92034L9.17926 5.85449L9.12663 5.69212L9.11552 5.65784L9.07949 5.65754L7.19039 5.64183L7.19039 5.64183L7.18971 5.64183C6.60524 5.64498 6.00253 5.77383 5.47667 6.07815L5.49897 4.34549C5.50514 4.10542 5.47769 3.86989 5.45453 3.6712L5.45437 3.66987C5.4496 3.62896 5.43471 3.59036 5.40208 3.56454C5.36945 3.53873 5.32845 3.5331 5.28754 3.53787C5.24664 3.54264 5.20804 3.55754 5.18222 3.59017C5.1564 3.6228 5.15078 3.6638 5.15555 3.7047C5.17888 3.90485 5.20155 4.10026 5.19179 4.29882L5.19173 4.29882L5.19173 4.30127L5.19152 6.30875C5.18501 6.32102 5.18105 6.33466 5.18092 6.34946C5.18075 6.37071 5.18854 6.38838 5.19719 6.4016C5.21202 6.42424 5.23626 6.44337 5.25267 6.45631C5.2536 6.45705 5.2545 6.45776 5.25538 6.45845C5.27998 6.47792 5.31053 6.49204 5.34497 6.48803C5.37644 6.48436 5.40127 6.4667 5.42017 6.44491C5.94002 6.08894 6.5808 5.91518 7.20949 5.90808L9.13139 5.91991Z" fill="#FF7C7C" stroke="#FF7C7C" stroke-width="0.1"/>
<path d="M8.98881 5.09748L8.97602 5.06673L8.94271 5.06669L7.22572 5.06486C7.05137 5.0509 6.88166 5.07068 6.71751 5.08982L6.71528 5.09008C6.47284 5.11834 6.26065 5.17072 6.03076 5.22747C6.02487 5.22892 6.01896 5.23038 6.01305 5.23184L5.99757 4.28672C6.03602 3.15674 5.59976 2.04803 4.79088 1.25527L4.79108 1.25506L4.78691 1.25176C4.73326 1.20931 4.68744 1.16581 4.63989 1.12061L4.63926 1.12002C4.59225 1.07534 4.5435 1.02899 4.48603 0.983525L4.46979 0.970674L4.44922 0.973072L4.44863 0.97314L4.44805 0.973208L4.44746 0.973276L4.44688 0.973345L4.44629 0.973413L4.44571 0.973481L4.44513 0.973549L4.44454 0.973617L4.44396 0.973685L4.44337 0.973753L4.44279 0.973822L4.4422 0.97389L4.44162 0.973958L4.44103 0.974026L4.44045 0.974094L4.43987 0.974162L4.43928 0.97423L4.4387 0.974298L4.43811 0.974367L4.43753 0.974435L4.43694 0.974503L4.43636 0.974571L4.43577 0.974639L4.43519 0.974707L4.43461 0.974775L4.43402 0.974843L4.43344 0.974912L4.43285 0.97498L4.43227 0.975048L4.43168 0.975116L4.4311 0.975184L4.43051 0.975252L4.42993 0.97532L4.42935 0.975388L4.42876 0.975457L4.42818 0.975525L4.42759 0.975593L4.42701 0.975661L4.42642 0.975729L4.42584 0.975797L4.42525 0.975865L4.42467 0.975933L4.42408 0.976002L4.4235 0.97607L4.42292 0.976138L4.42233 0.976206L4.42175 0.976274L4.42116 0.976342L4.42058 0.97641L4.41999 0.976478L4.41941 0.976547L4.41882 0.976615L4.41824 0.976683L4.41766 0.976751L4.41707 0.976819L4.41649 0.976887L4.4159 0.976955L4.41532 0.977024L4.41473 0.977092L4.41415 0.97716L4.41356 0.977228L4.41298 0.977296L4.4124 0.977364L4.41181 0.977432L4.41123 0.9775L4.41064 0.977569L4.41006 0.977637L4.40947 0.977705L4.40889 0.977773L4.4083 0.977841L4.40772 0.977909L4.40714 0.977977L4.40655 0.978045L4.40597 0.978114L4.40538 0.978182L4.4048 0.97825L4.40421 0.978318L4.40363 0.978386L4.40304 0.978454L4.40246 0.978522L4.40188 0.97859L4.40129 0.978659L4.40071 0.978727L4.40012 0.978795L4.39954 0.978863L4.39895 0.978931L4.39837 0.978999L4.39778 0.979067L4.3972 0.979135L4.39662 0.979204L4.39603 0.979272L4.39545 0.97934L4.39486 0.979408L4.39428 0.979476L4.39369 0.979544L4.39311 0.979612L4.39252 0.97968L4.39194 0.979749L4.39136 0.979817L4.39077 0.979885L4.39019 0.979953L4.3896 0.980021L4.38902 0.980089L4.38843 0.980157L4.38785 0.980226L4.38726 0.980294L4.38668 0.980362L4.38609 0.98043L4.38551 0.980498L4.38493 0.980566L4.38434 0.980634L4.38376 0.980702L4.38317 0.980771L4.38259 0.980839L4.382 0.980907L4.38142 0.980975L4.38083 0.981043L4.38025 0.981111L4.37967 0.981179L4.37908 0.981247L4.3785 0.981316L4.37791 0.981384L4.37733 0.981452L4.37674 0.98152L4.37616 0.981588L4.37557 0.981656L4.37499 0.981724L4.37441 0.981792L4.37382 0.981861L4.37324 0.981929L4.37265 0.981997L4.37207 0.982065L4.37148 0.982133L4.3709 0.982201L4.37031 0.982269L4.36973 0.982337L4.36915 0.982406L4.36856 0.982474L4.36798 0.982542L4.36739 0.98261L4.36681 0.982678L4.36622 0.982746L4.36564 0.982814L4.36505 0.982882L4.36447 0.982951L4.36389 0.983019L4.3633 0.983087L4.36272 0.983155L4.36213 0.983223L4.36155 0.983291L4.36096 0.983359L4.36038 0.983428L4.35979 0.983496L4.35921 0.983564L4.35863 0.983632L4.35804 0.9837L4.35746 0.983768L4.35687 0.983836L4.35629 0.983904L4.3557 0.983973L4.35512 0.984041L4.35453 0.984109L4.35395 0.984177L4.35337 0.984245L4.35278 0.984313L4.3522 0.984381L4.35161 0.984449L4.35103 0.984518L4.35044 0.984586L4.34986 0.984654L4.34927 0.984722L4.34869 0.98479L4.34811 0.984858L4.34752 0.984926L4.34694 0.984994L4.34635 0.985063L4.34577 0.985131L4.34518 0.985199L4.3446 0.985267L4.34401 0.985335L4.34343 0.985403L4.34284 0.985471L4.34226 0.985539L4.34168 0.985608L4.34109 0.985676L4.34051 0.985744L4.33992 0.985812L4.33934 0.98588L4.33875 0.985948L4.33817 0.986016L4.33758 0.986084L4.337 0.986153L4.33642 0.986221L4.33583 0.986289L4.33525 0.986357L4.33466 0.986425L4.33408 0.986493L4.33349 0.986561L4.33291 0.98663L4.33232 0.986698L4.33174 0.986766L4.33116 0.986834L4.33057 0.986902L4.32999 0.98697L4.3294 0.987038L4.32882 0.987106L4.32823 0.987175L4.32765 0.987243L4.32706 0.987311L4.32648 0.987379L4.3259 0.987447L4.32531 0.987515L4.32473 0.987583L4.32414 0.987651L4.32356 0.98772L4.32297 0.987788L4.32239 0.987856L4.3218 0.987924L4.32122 0.987992L4.32064 0.98806L4.32005 0.988128L4.31947 0.988196L4.31888 0.988265L4.3183 0.988333L4.31771 0.988401L4.31713 0.988469L4.31654 0.988537L4.31596 0.988605L4.31538 0.988673L4.31479 0.988741L4.31421 0.98881L4.31362 0.988878L4.31304 0.988946L4.31245 0.989014L4.31187 0.989082L4.31128 0.98915L4.3107 0.989218L4.31012 0.989286L4.30953 0.989355L4.30895 0.989423L4.30836 0.989491L4.30778 0.989559L4.30719 0.989627L4.30661 0.989695L4.30602 0.989763L4.30544 0.989832L4.30485 0.9899L4.30427 0.989968L4.30369 0.990036L4.3031 0.990104L4.30252 0.990172L4.30193 0.99024L4.30135 0.990308L4.30076 0.990377L4.30018 0.990445L4.29959 0.990513L4.29901 0.990581L4.29843 0.990649L4.29784 0.990717L4.29726 0.990785L4.29667 0.990853L4.29609 0.990922L4.2955 0.99099L4.29492 0.991058L4.29433 0.991126L4.29375 0.991194L4.29317 0.991262L4.29258 0.99133L4.292 0.991398L4.29141 0.991467L4.29083 0.991535L4.29024 0.991603L4.28966 0.991671L4.28907 0.991739L4.28849 0.991807L4.28791 0.991875L4.28732 0.991943L4.28674 0.992012L4.28615 0.99208L4.28557 0.992148L4.28498 0.992216L4.2844 0.992284L4.28381 0.992352L4.28323 0.99242L4.28265 0.992488L4.28206 0.992557L4.28148 0.992625L4.28089 0.992693L4.28031 0.992761L4.27972 0.992829L4.27914 0.992897L4.27855 0.992965L4.27797 0.993033L4.27739 0.993102L4.2768 0.99317L4.27622 0.993238L4.27563 0.993306L4.27505 0.993374L4.27446 0.993442L4.27388 0.99351L4.27329 0.993579L4.27271 0.993647L4.27213 0.993715L4.27154 0.993783L4.27096 0.993851L4.27037 0.993919L4.26979 0.993987L4.2692 0.994055L4.26862 0.994124L4.26803 0.994192L4.26745 0.99426L4.26686 0.994328L4.26628 0.994396L4.2657 0.994464L4.26511 0.994532L4.26453 0.9946L4.26394 0.994669L4.26336 0.994737L4.26277 0.994805L4.26219 0.994873L4.2616 0.994941L4.26102 0.995009L4.26044 0.995077L4.25985 0.995145L4.25927 0.995214L4.25868 0.995282L4.2581 0.99535L4.25751 0.995418L4.25693 0.995486L4.25634 0.995554L4.25576 0.995622L4.25518 0.99569L4.25459 0.995759L4.25401 0.995827L4.25342 0.995895L4.25284 0.995963L4.25225 0.996031L4.25167 0.996099L4.25108 0.996167L4.2505 0.996235L4.24992 0.996304L4.24933 0.996372L4.24875 0.99644L4.24816 0.996508L4.24758 0.996576L4.24699 0.996644L4.24641 0.996712L4.24582 0.996781L4.24524 0.996849L4.24466 0.996917L4.24407 0.996985L4.24349 0.997053L4.2429 0.997121L4.24232 0.997189L4.24173 0.997257L4.24115 0.997326L4.24056 0.997394L4.23998 0.997462L4.2394 0.99753L4.23881 0.997598L4.23823 0.997666L4.23764 0.997734L4.23706 0.997802L4.23647 0.997871L4.23589 0.997939L4.2353 0.998007L4.23472 0.998075L4.23414 0.998143L4.23355 0.998211L4.23297 0.998279L4.23238 0.998347L4.2318 0.998416L4.23121 0.998484L4.23063 0.998552L4.23004 0.99862L4.22946 0.998688L4.22887 0.998756L4.22829 0.998824L4.22771 0.998892L4.22712 0.998961L4.22654 0.999029L4.22595 0.999097L4.22537 0.999165L4.22478 0.999233L4.2242 0.999301L4.22361 0.999369L4.22303 0.999437L4.22245 0.999506L4.22186 0.999574L4.22128 0.999642L4.22069 0.99971L4.22011 0.999778L4.21952 0.999846L4.21894 0.999914L4.21835 0.999983L4.21777 1.00005L4.21719 1.00012L4.2166 1.00019L4.21602 1.00026L4.21543 1.00032L4.21485 1.00039L4.21426 1.00046L4.21368 1.00053L4.21309 1.0006L4.21251 1.00066L4.21193 1.00073L4.21134 1.0008L4.21076 1.00087L4.21017 1.00094L4.20959 1.001L4.209 1.00107L4.20842 1.00114L4.20783 1.00121L4.20725 1.00128L4.20667 1.00135L4.20608 1.00141L4.2055 1.00148L4.20491 1.00155L4.20433 1.00162L4.20374 1.00169L4.20316 1.00175L4.20257 1.00182L4.20199 1.00189L4.20141 1.00196L4.20082 1.00203L4.20024 1.00209L4.19965 1.00216L4.19907 1.00223L4.19848 1.0023L4.1979 1.00237L4.19731 1.00244L4.19673 1.0025L4.19615 1.00257L4.19556 1.00264L4.19498 1.00271L4.19439 1.00278L4.19381 1.00284L4.19322 1.00291L4.19264 1.00298L4.19205 1.00305L4.19147 1.00312L4.19088 1.00318L4.1903 1.00325L4.18972 1.00332L4.18913 1.00339L4.18855 1.00346L4.18796 1.00353L4.18738 1.00359L4.18679 1.00366L4.18621 1.00373L4.18562 1.0038L4.18504 1.00387L4.18446 1.00393L4.18387 1.004L4.18329 1.00407L4.1827 1.00414L4.18212 1.00421L4.18153 1.00427L4.18095 1.00434L4.18036 1.00441L4.17978 1.00448L4.1792 1.00455L4.17861 1.00462L4.17803 1.00468L4.17744 1.00475L4.17686 1.00482L4.17627 1.00489L4.17569 1.00496L4.1751 1.00502L4.17452 1.00509L4.17394 1.00516L4.17335 1.00523L4.17277 1.0053L4.17218 1.00536L4.1716 1.00543L4.17101 1.0055L4.17043 1.00557L4.16984 1.00564L4.16926 1.00571L4.16868 1.00577L4.16809 1.00584L4.16751 1.00591L4.16692 1.00598L4.16634 1.00605L4.16575 1.00611L4.16517 1.00618L4.16458 1.00625L4.164 1.00632L4.16342 1.00639L4.16283 1.00645L4.16225 1.00652L4.16166 1.00659L4.16108 1.00666L4.16049 1.00673L4.15991 1.0068L4.15932 1.00686L4.15874 1.00693L4.15816 1.007L4.15757 1.00707L4.15699 1.00714L4.1564 1.0072L4.15582 1.00727L4.15523 1.00734L4.15465 1.00741L4.15406 1.00748L4.15348 1.00754L4.15289 1.00761L4.15231 1.00768L4.15173 1.00775L4.15114 1.00782L4.15056 1.00789L4.14997 1.00795L4.03007 1.02193L4.12474 1.09683C4.27427 1.21514 4.45663 1.35957 4.56888 1.47778L4.56888 1.47778L4.5693 1.47822C5.32641 2.2563 5.74017 3.23966 5.73131 4.30524L5.73131 4.3056L5.73009 5.45158L5.72974 5.45158L5.73042 5.45742L5.73063 5.45923C5.73458 5.49324 5.74053 5.54446 5.79394 5.58672C5.84735 5.62897 5.89856 5.62298 5.93257 5.619L5.93438 5.61879L5.93453 5.6201L5.9454 5.61622C6.36114 5.46782 6.78335 5.38553 7.24952 5.3976L7.25098 5.3976L9.03645 5.39168L9.11114 5.39144L9.08244 5.32247L8.98881 5.09748Z" fill="#FF7C7C" stroke="#FF7C7C" stroke-width="0.1"/>
<path d="M8.82685 4.55741L8.82166 4.51285L8.7768 4.5132L7.23016 4.52522C7.0556 4.51133 6.85297 4.53495 6.65679 4.55782L6.65344 4.55821L6.57593 4.56724L6.57459 4.31998C6.568 3.09546 6.1287 1.95501 5.34339 1.05925L5.33237 1.04668L5.316 1.04326C5.26313 1.03223 5.20213 1.02225 5.14252 1.01249L5.14181 1.01237C5.08139 1.00248 5.02242 0.992819 4.97188 0.982274L4.93065 1.07043L4.96551 1.09802C5.8318 1.96335 6.29753 3.10748 6.27124 4.3088L6.25514 4.74842L6.25455 4.7484L6.25545 4.75604L6.25566 4.75785C6.2596 4.79186 6.26555 4.84308 6.31896 4.88534C6.37237 4.92759 6.42358 4.9216 6.45759 4.91762L6.4594 4.91741L6.45944 4.9178L6.46551 4.91631C6.72044 4.85382 6.98423 4.85572 7.22093 4.86184L7.22093 4.86185L7.2218 4.86185L8.84103 4.87532L8.89767 4.87579L8.89111 4.81953C8.88472 4.76472 8.87028 4.72016 8.8573 4.68012L8.85688 4.67884C8.84365 4.63803 8.83202 4.60177 8.82685 4.55741Z" fill="#FF7C7C" stroke="#FF7C7C" stroke-width="0.1"/>
<path d="M8.59139 4.0229L8.57674 4.00052L8.54998 4.00029L7.20062 3.98908L7.20063 3.98869L7.19442 3.98941C7.16019 3.9934 7.13956 3.99567 7.11905 3.99467C7.1069 3.99407 7.09408 3.99225 7.07828 3.98809C7.02633 3.02018 6.71696 2.1165 6.226 1.36663L6.21872 1.35552L6.2069 1.34948C6.19295 1.34236 6.17799 1.33454 6.16225 1.3263C6.11954 1.30396 6.07105 1.27859 6.02127 1.2561C5.95275 1.22514 5.87717 1.19737 5.8016 1.18757L5.68473 1.17241L5.75504 1.26698C6.34817 2.06475 6.70199 3.09195 6.75904 4.15476L6.75894 4.15477L6.7593 4.15787C6.7594 4.15874 6.75951 4.15966 6.75962 4.16063C6.76125 4.17493 6.76399 4.1989 6.77317 4.21851C6.77871 4.23034 6.7881 4.24425 6.80416 4.25399C6.81936 4.2632 6.83597 4.26592 6.85169 4.26475C6.85234 4.26526 6.85314 4.26588 6.85413 4.26666C6.85437 4.26685 6.85462 4.26705 6.85489 4.26727C6.85917 4.27067 6.86807 4.27775 6.87941 4.28287C6.89305 4.28903 6.90863 4.29191 6.92613 4.28987C7.02542 4.27829 7.08492 4.27155 7.18 4.29139L7.17979 4.29242L7.19009 4.29245L8.60594 4.29591L8.66225 4.29605L8.65573 4.24012L8.65532 4.23663C8.64781 4.1721 8.63889 4.09546 8.59139 4.0229Z" fill="#FF7C7C" stroke="#FF7C7C" stroke-width="0.1"/>
<path d="M8.32484 3.45413L8.31165 3.42594L8.28053 3.42533L7.58089 3.4117C7.52019 2.92354 7.3963 2.44339 7.21258 2.00191L7.20903 1.99339L7.20267 1.98669C7.14199 1.92279 7.07421 1.86932 7.00889 1.82145C6.98459 1.80365 6.96108 1.78692 6.93836 1.77076C6.89854 1.74243 6.86115 1.71584 6.82619 1.68818L6.75098 1.75078C7.0501 2.31574 7.22198 2.92968 7.29891 3.58963C7.30368 3.63054 7.31858 3.66914 7.35121 3.69496C7.38309 3.72018 7.42296 3.72613 7.46293 3.72194L8.40302 3.71319L8.54467 3.71187L8.43358 3.62398C8.40645 3.60251 8.36953 3.5496 8.32484 3.45413Z" fill="#FF7C7C" stroke="#FF7C7C" stroke-width="0.1"/>
<path d="M7.74957 2.60129L7.6624 2.64722C7.68795 2.72607 7.70455 2.79791 7.72162 2.87191L7.72179 2.87264C7.73843 2.94478 7.75555 3.019 7.78171 3.10049C7.78711 3.13947 7.8021 3.17593 7.83335 3.20066C7.8646 3.22538 7.90352 3.23158 7.94268 3.22788L8.10815 3.24137L8.20289 3.2491L8.15558 3.16665C8.05112 2.9846 7.92668 2.82669 7.82083 2.69237C7.79588 2.6607 7.77195 2.63034 7.74957 2.60129Z" fill="#FF7C7C" stroke="#FF7C7C" stroke-width="0.1"/>
<path d="M2.73022 4.29681C2.73496 3.72771 2.2578 3.28809 1.7258 3.27931L1.7258 3.27887L1.71918 3.27964L1.68943 3.28311C1.44464 3.27735 1.27157 3.33287 1.10759 3.45921L1.09743 3.46704L1.09229 3.47879C0.90428 3.90898 0.758065 4.40143 0.65327 4.95576L0.652368 4.95559L0.6524 4.96522L0.658316 6.75069L0.657997 6.75069L0.658652 6.75631C0.672924 6.87875 0.653733 6.97412 0.604191 7.11086L0.60017 7.12196L0.601537 7.13368L0.60165 7.13465L0.601763 7.13563L0.601877 7.1366L0.60199 7.13757L0.602103 7.13854L0.602216 7.13951L0.602329 7.14048L0.602442 7.14145L0.602555 7.14242L0.602668 7.14338L0.60278 7.14435L0.602893 7.14531L0.603005 7.14628L0.603118 7.14724L0.60323 7.14821L0.603342 7.14917L0.603454 7.15013L0.603566 7.15109L0.603678 7.15205L0.60379 7.15301L0.603902 7.15397L0.604014 7.15493L0.604125 7.15589L0.604237 7.15685L0.604348 7.1578L0.60446 7.15876L0.604571 7.15971L0.604682 7.16067L0.604793 7.16162L0.604905 7.16257L0.605016 7.16353L0.605126 7.16448L0.605237 7.16543L0.605348 7.16638L0.605459 7.16733L0.605569 7.16828L0.60568 7.16923L0.60579 7.17017L0.605901 7.17112L0.606011 7.17207L0.606121 7.17301L0.606231 7.17396L0.606342 7.1749L0.606452 7.17585L0.606562 7.17679L0.606671 7.17773L0.606781 7.17867L0.606891 7.17961L0.607001 7.18056L0.60711 7.1815L0.60722 7.18243L0.607329 7.18337L0.607438 7.18431L0.607548 7.18525L0.607657 7.18619L0.607766 7.18712L0.607875 7.18806L0.607984 7.18899L0.608093 7.18993L0.608202 7.19086L0.608311 7.1918L0.60842 7.19273L0.608528 7.19366L0.608637 7.19459L0.608745 7.19552L0.608854 7.19646L0.608962 7.19739L0.609071 7.19831L0.609179 7.19924L0.609287 7.20017L0.609395 7.2011L0.609503 7.20203L0.609611 7.20295L0.609719 7.20388L0.609827 7.20481L0.609935 7.20573L0.610043 7.20666L0.610151 7.20758L0.610258 7.2085L0.610366 7.20943L0.610473 7.21035L0.610581 7.21127L0.610688 7.21219L0.610796 7.21311L0.610903 7.21403L0.61101 7.21495L0.611117 7.21587L0.611224 7.21679L0.611331 7.21771L0.611438 7.21863L0.611545 7.21955L0.611652 7.22046L0.611759 7.22138L0.611866 7.22229L0.611973 7.22321L0.612079 7.22412L0.612186 7.22504L0.612292 7.22595L0.612399 7.22687L0.612505 7.22778L0.612612 7.22869L0.612718 7.2296L0.612824 7.23052L0.612931 7.23143L0.613037 7.23234L0.613143 7.23325L0.613249 7.23416L0.613355 7.23507L0.613461 7.23598L0.613567 7.23689L0.613673 7.23779L0.613778 7.2387L0.613884 7.23961L0.61399 7.24052L0.614096 7.24142L0.614201 7.24233L0.614307 7.24323L0.614412 7.24414L0.614518 7.24504L0.614623 7.24595L0.614729 7.24685L0.614834 7.24776L0.614939 7.24866L0.615044 7.24956L0.61515 7.25046L0.615255 7.25137L0.61536 7.25227L0.615465 7.25317L0.61557 7.25407L0.615675 7.25497L0.61578 7.25587L0.615885 7.25677L0.615989 7.25767L0.616094 7.25857L0.616199 7.25947L0.616304 7.26037L0.616408 7.26126L0.616513 7.26216L0.616618 7.26306L0.616722 7.26396L0.616827 7.26485L0.616931 7.26575L0.617035 7.26664L0.61714 7.26754L0.617244 7.26843L0.617349 7.26933L0.617453 7.27022L0.617557 7.27112L0.617661 7.27201L0.617765 7.27291L0.617869 7.2738L0.617974 7.27469L0.618078 7.27558L0.618182 7.27648L0.618286 7.27737L0.61839 7.27826L0.618493 7.27915L0.618597 7.28004L0.618701 7.28093L0.618805 7.28182L0.618909 7.28271L0.619012 7.2836L0.619116 7.28449L0.61922 7.28538L0.619323 7.28627L0.619427 7.28716L0.619531 7.28805L0.619634 7.28894L0.619738 7.28983L0.619841 7.29071L0.619945 7.2916L0.620048 7.29249L0.620152 7.29338L0.620255 7.29426L0.620358 7.29515L0.620462 7.29604L0.620565 7.29692L0.620668 7.29781L0.620771 7.29869L0.620875 7.29958L0.620978 7.30046L0.621081 7.30135L0.621184 7.30223L0.621287 7.30312L0.62139 7.304L0.621493 7.30489L0.621596 7.30577L0.621699 7.30665L0.621802 7.30754L0.621905 7.30842L0.622008 7.3093L0.622111 7.31019L0.622214 7.31107L0.622317 7.31195L0.62242 7.31283L0.622522 7.31372L0.622625 7.3146L0.622728 7.31548L0.622831 7.31636L0.622934 7.31724L0.623036 7.31812L0.623139 7.31901L0.623242 7.31989L0.623344 7.32077L0.623447 7.32165L0.62355 7.32253L0.623652 7.32341L0.623755 7.32429L0.623857 7.32517L0.62396 7.32605L0.624063 7.32693L0.624165 7.32781L0.624268 7.32869L0.62437 7.32957L0.624473 7.33045L0.624575 7.33133L0.624678 7.3322L0.62478 7.33308L0.624882 7.33396L0.624985 7.33484L0.625087 7.33572L0.62519 7.3366L0.625292 7.33748L0.625394 7.33835L0.625497 7.33923L0.625599 7.34011L0.625701 7.34099L0.625804 7.34187L0.625906 7.34274L0.626008 7.34362L0.626111 7.3445L0.626213 7.34538L0.626315 7.34626L0.626418 7.34713L0.62652 7.34801L0.626622 7.34889L0.626724 7.34976L0.626827 7.35064L0.626929 7.35152L0.627031 7.3524L0.627133 7.35327L0.627236 7.35415L0.627338 7.35503L0.62744 7.3559L0.627542 7.35678L0.627644 7.35766L0.627747 7.35853L0.627849 7.35941L0.627951 7.36029L0.628053 7.36116L0.628155 7.36204L0.628258 7.36292L0.62836 7.36379L0.628462 7.36467L0.628564 7.36555L0.628666 7.36642L0.628769 7.3673L0.628871 7.36818L0.628973 7.36905L0.629075 7.36993L0.629177 7.37081L0.62928 7.37169L0.629382 7.37256L0.629484 7.37344L0.629586 7.37432L0.629688 7.37519L0.629791 7.37607L0.629893 7.37695L0.629995 7.37782L0.630097 7.3787L0.630199 7.37958L0.630302 7.38045L0.630404 7.38133L0.630506 7.38221L0.630608 7.38309L0.630711 7.38396L0.630813 7.38484L0.630915 7.38572L0.631018 7.38659L0.63112 7.38747L0.631222 7.38835L0.631324 7.38923L0.631427 7.39011L0.631529 7.39098L0.631631 7.39186L0.631734 7.39274L0.631836 7.39362L0.631938 7.3945L0.632041 7.39537L0.632143 7.39625L0.632246 7.39713L0.632348 7.39801L0.63245 7.39889L0.632553 7.39977L0.632655 7.40065L0.632758 7.40152L0.63286 7.4024L0.632963 7.40328L0.633065 7.40416L0.633168 7.40504L0.63327 7.40592L0.633373 7.4068L0.633475 7.40768L0.633578 7.40856L0.633681 7.40944L0.633783 7.41032L0.633886 7.4112L0.633989 7.41208L0.634091 7.41296L0.634194 7.41384L0.634297 7.41473L0.634399 7.41561L0.634502 7.41649L0.634605 7.41737L0.634708 7.41825L0.63481 7.41913L0.634913 7.42002L0.635016 7.4209L0.635119 7.42178L0.635222 7.42266L0.635325 7.42355L0.635428 7.42443L0.635531 7.42531L0.635634 7.4262L0.635737 7.42708L0.63584 7.42796L0.635943 7.42885L0.636046 7.42973L0.636149 7.43062L0.636252 7.4315L0.636355 7.43239L0.636458 7.43327L0.636562 7.43416L0.636665 7.43504L0.636768 7.43593L0.636871 7.43681L0.636975 7.4377L0.637078 7.43859L0.637181 7.43947L0.637285 7.44036L0.637388 7.44125L0.637492 7.44214L0.637595 7.44302L0.637699 7.44391L0.637802 7.4448L0.637906 7.44569L0.638009 7.44658L0.638113 7.44747L0.638217 7.44836L0.63832 7.44925L0.638424 7.45014L0.638528 7.45103L0.638632 7.45192L0.638736 7.45281L0.638839 7.4537L0.638943 7.45459L0.639047 7.45548L0.639151 7.45637L0.639255 7.45727L0.639359 7.45816L0.639463 7.45905L0.639568 7.45994L0.639672 7.46084L0.639776 7.46173L0.63988 7.46263L0.639984 7.46352L0.640089 7.46442L0.640193 7.46531L0.640297 7.46621L0.640402 7.4671L0.640506 7.468L0.640611 7.46889L0.640715 7.46979L0.64082 7.47069L0.640925 7.47159L0.641029 7.47248L0.641134 7.47338L0.641239 7.47428L0.641343 7.47518L0.641448 7.47608L0.641553 7.47698L0.641658 7.47788L0.641763 7.47878L0.641868 7.47968L0.641973 7.48058L0.642078 7.48148L0.642183 7.48239L0.642289 7.48329L0.642394 7.48419L0.642499 7.48509L0.642604 7.486L0.64271 7.4869L0.642815 7.48781L0.642921 7.48871L0.643026 7.48962L0.643132 7.49052L0.643237 7.49143L0.643343 7.49233L0.643449 7.49324L0.643554 7.49415L0.64366 7.49506L0.643766 7.49596L0.643872 7.49687L0.643978 7.49778L0.644084 7.49869L0.64419 7.4996L0.644296 7.50051L0.644402 7.50142L0.644509 7.50233L0.644615 7.50325L0.644721 7.50416L0.644828 7.50507L0.644934 7.50598L0.64504 7.5069L0.645147 7.50781L0.645254 7.50872L0.64536 7.50964L0.645467 7.51056L0.645574 7.51147L0.645681 7.51239L0.645787 7.5133L0.645894 7.51422L0.646001 7.51514L0.646108 7.51606L0.646216 7.51698L0.646323 7.5179L0.64643 7.51882L0.646537 7.51974L0.646645 7.52066L0.646752 7.52158L0.646859 7.5225L0.646967 7.52342L0.647075 7.52435L0.647182 7.52527L0.64729 7.52619L0.647398 7.52712L0.647506 7.52804L0.647613 7.52897L0.647721 7.5299L0.647829 7.53082L0.647938 7.53175L0.648046 7.53268L0.648154 7.53361L0.648262 7.53453L0.648371 7.53546L0.648479 7.53639L0.648587 7.53733L0.648696 7.53826L0.648805 7.53919L0.648913 7.54012L0.649022 7.54105L0.649131 7.54199L0.64924 7.54292L0.649349 7.54386L0.649458 7.54479L0.649567 7.54573L0.649676 7.54666L0.649785 7.5476L0.649894 7.54854L0.650004 7.54948L0.650113 7.55042L0.650223 7.55135L0.650332 7.55229L0.650442 7.55324L0.650552 7.55418L0.650661 7.55512L0.650771 7.55606L0.650881 7.557L0.650991 7.55795L0.651101 7.55889L0.651212 7.55984L0.651322 7.56078L0.651432 7.56173L0.651542 7.56268L0.651653 7.56362L0.651763 7.56457L0.651874 7.56552L0.651985 7.56647L0.652096 7.56742L0.652206 7.56837L0.652317 7.56932L0.652428 7.57028L0.652539 7.57123L0.652651 7.57218L0.652762 7.57314L0.652873 7.57409L0.652985 7.57505L0.653096 7.576L0.653208 7.57696L0.653319 7.57792L0.653431 7.57888L0.653543 7.57984L0.653655 7.5808L0.653767 7.58176L0.653879 7.58272L0.653991 7.58368L0.654103 7.58464L0.654215 7.58561L0.654328 7.58657L0.65444 7.58754L0.654553 7.5885L0.654665 7.58947L0.654778 7.59043L0.654891 7.5914L0.655004 7.59237L0.655117 7.59334L0.65523 7.59431L0.655343 7.59528L0.655456 7.59625L0.655569 7.59722L0.655683 7.5982L0.655796 7.59917L0.673861 7.75414L0.749238 7.61754C0.892653 7.35762 0.963316 7.07163 0.961688 6.76055C0.961688 6.76045 0.961687 6.76035 0.961687 6.76025L0.977997 4.29984C0.9973 3.91801 1.30837 3.59887 1.68337 3.58652L1.68338 3.5867L1.68751 3.58621L1.71866 3.58258C2.08931 3.57166 2.4139 3.90931 2.42685 4.2871L2.3879 11.469L2.3879 11.4692C2.38727 12.0538 2.58646 12.5839 3.0134 12.9841C3.40518 13.3863 3.95117 13.6329 4.53786 13.6336L4.53786 13.6339L4.5437 13.6332L4.57414 13.6297C5.77956 13.6254 6.7342 12.6523 6.73545 11.4797L6.73545 11.4796L6.73402 9.15488C6.73402 9.15481 6.73402 9.15474 6.73402 9.15466C6.73616 8.91355 6.95522 8.70431 7.19846 8.70634L9.89717 8.72877L9.96145 8.72931L9.94615 8.66687L9.88189 8.40475L9.87254 8.36661L9.83327 8.36666L7.20494 8.36972L7.20494 8.36969L7.20335 8.36974C6.77749 8.38376 6.4168 8.7111 6.43065 9.14534L6.43596 11.5023C6.43596 11.5024 6.43596 11.5026 6.43596 11.5027C6.42325 12.522 5.63256 13.3351 4.58157 13.3263L4.58157 13.3259L4.57537 13.3267L4.54543 13.3301C4.05304 13.3213 3.60721 13.144 3.23842 12.7939C2.90248 12.4396 2.71588 11.969 2.69128 11.4782L2.73022 4.29681ZM2.73022 4.29681L2.68023 4.29639M2.73022 4.29681L2.73023 4.29666L2.68023 4.29639M2.68023 4.29639C2.68471 3.75665 2.23146 3.33767 1.72497 3.3293L1.69172 3.33318C1.4551 3.32706 1.29273 3.37969 1.13811 3.49881L2.68023 4.29639Z" fill="#FF7C7C" stroke="#FF7C7C" stroke-width="0.1"/>
<path d="M2.19071 4.29255L2.1911 4.29256L2.19037 4.28635C2.17369 4.14324 2.12463 4.03819 2.04032 3.93891L2.04107 3.93827L2.03323 3.93206C1.92034 3.84274 1.7988 3.77614 1.67779 3.79024L1.64454 3.79412C1.53316 3.8071 1.42833 3.85709 1.33035 3.9403L1.32971 3.93954L1.32351 3.94739C1.26052 4.027 1.20192 4.14149 1.17853 4.25357L1.17754 4.25337L1.17748 4.26345L1.16116 6.72504C1.16116 6.72513 1.16116 6.72521 1.16116 6.72529C1.15291 7.22209 1.0068 7.66653 0.720734 8.02808L0.707884 8.04433L0.710282 8.0649C0.714334 8.09966 0.726804 8.14023 0.738586 8.17856C0.740003 8.18317 0.741411 8.18775 0.742793 8.19228C0.756431 8.23702 0.769299 8.28208 0.774537 8.32702L0.787019 8.4341L0.8607 8.3554C1.25867 7.93034 1.50103 7.35138 1.49778 6.73202C1.49778 6.73192 1.49778 6.73182 1.49778 6.73172L1.5141 4.27024L1.51447 4.27024L1.51376 4.26411C1.51323 4.25954 1.51515 4.2428 1.52414 4.21802C1.53132 4.19818 1.54076 4.17945 1.54982 4.16627C1.5742 4.15095 1.59183 4.14328 1.6087 4.13841C1.62843 4.13271 1.64903 4.13018 1.68325 4.12619L1.7165 4.12232C1.74233 4.1193 1.77259 4.13338 1.80165 4.16912C1.82951 4.20337 1.84879 4.2493 1.85406 4.28891L1.84512 5.36509L1.84473 5.36508L1.84545 5.37129C1.85019 5.41191 1.86525 5.4542 1.8926 5.4864C1.92109 5.51995 1.96364 5.54266 2.01615 5.53654C2.05677 5.5318 2.09906 5.51673 2.13126 5.48939C2.16409 5.46151 2.18653 5.42019 2.18176 5.36924L2.19071 4.29255Z" fill="#FF7C7C" stroke="#FF7C7C" stroke-width="0.1"/>
<path d="M9.98871 9.22363L10.0452 9.22393L10.0386 9.16784C10.0306 9.09894 10.0222 9.02809 9.9715 8.89385L9.95936 8.86169L9.92499 8.86151L7.15978 8.84682L7.15979 8.84645L7.15373 8.84716L7.15288 8.84726C7.1364 8.84918 7.10808 8.85247 7.07963 8.86069C7.0518 8.86873 7.0156 8.88369 6.99119 8.91455C6.97216 8.9386 6.95616 8.97072 6.94542 9.00037C6.93567 9.02729 6.92708 9.06076 6.92941 9.08879L6.9347 11.4449L6.9347 11.4449L6.93471 11.4453C6.9417 12.0713 6.70979 12.626 6.29891 13.0705L6.16904 13.211L6.35105 13.152C6.51454 13.099 6.64458 13.0499 6.7736 13.0012L6.77391 13.001L6.78807 12.9957L6.79689 12.9834C7.09288 12.5703 7.27063 12.0344 7.2752 11.4846L7.2752 11.4846L7.2752 11.4841L7.2738 9.20921L9.98871 9.22363Z" fill="#FF7C7C" stroke="#FF7C7C" stroke-width="0.1"/>
<path d="M2.57962 12.8347L2.57816 12.8222L2.57094 12.8118C2.29333 12.4146 2.13923 11.9378 2.15117 11.4763L2.15118 11.4755L2.19993 6.11129L2.20033 6.1113L2.1996 6.10505C2.19486 6.06443 2.17979 6.02214 2.15245 5.98994C2.12395 5.95639 2.08141 5.93368 2.02889 5.9398C1.98828 5.94454 1.94599 5.95961 1.91379 5.98695C1.88093 6.01486 1.85847 6.05623 1.86331 6.10725L1.84782 11.4629C1.8197 11.8124 1.89399 12.1486 2.03468 12.4746L2.03764 12.4814L2.04247 12.4871C2.1485 12.612 2.25311 12.7087 2.35511 12.803C2.40493 12.8491 2.45412 12.8946 2.50255 12.9425L2.60388 13.0428L2.58737 12.9012L2.58737 12.9012L2.58737 12.9012L2.58737 12.9012L2.58737 12.9012L2.58737 12.9011L2.58737 12.9011L2.58737 12.9011L2.58737 12.9011L2.58737 12.9011L2.58737 12.9011L2.58736 12.9011L2.58736 12.9011L2.58736 12.9011L2.58736 12.9011L2.58736 12.901L2.58736 12.901L2.58735 12.901L2.58735 12.901L2.58735 12.901L2.58735 12.901L2.58735 12.9009L2.58734 12.9009L2.58734 12.9009L2.58734 12.9009L2.58734 12.9009L2.58733 12.9008L2.58733 12.9008L2.58733 12.9008L2.58733 12.9008L2.58732 12.9007L2.58732 12.9007L2.58732 12.9007L2.58731 12.9007L2.58731 12.9006L2.58731 12.9006L2.5873 12.9006L2.5873 12.9006L2.5873 12.9005L2.58729 12.9005L2.58729 12.9005L2.58729 12.9004L2.58728 12.9004L2.58728 12.9004L2.58728 12.9003L2.58727 12.9003L2.58727 12.9003L2.58726 12.9002L2.58726 12.9002L2.58725 12.9001L2.58725 12.9001L2.58724 12.9001L2.58724 12.9L2.58724 12.9L2.58723 12.8999L2.58723 12.8999L2.58722 12.8999L2.58722 12.8998L2.58721 12.8998L2.58721 12.8997L2.5872 12.8997L2.58719 12.8996L2.58719 12.8996L2.58718 12.8995L2.58718 12.8995L2.58717 12.8994L2.58717 12.8994L2.58716 12.8993L2.58715 12.8993L2.58715 12.8992L2.58714 12.8992L2.58714 12.8991L2.58713 12.8991L2.58712 12.899L2.58712 12.899L2.58711 12.8989L2.5871 12.8989L2.5871 12.8988L2.58709 12.8988L2.58708 12.8987L2.58708 12.8986L2.58707 12.8986L2.58706 12.8985L2.58706 12.8985L2.58705 12.8984L2.58704 12.8983L2.58704 12.8983L2.58703 12.8982L2.58702 12.8981L2.58701 12.8981L2.58701 12.898L2.587 12.898L2.58699 12.8979L2.58698 12.8978L2.58698 12.8978L2.58697 12.8977L2.58696 12.8976L2.58695 12.8976L2.58694 12.8975L2.58693 12.8974L2.58693 12.8973L2.58692 12.8973L2.58691 12.8972L2.5869 12.8971L2.58689 12.8971L2.58688 12.897L2.58688 12.8969L2.58687 12.8968L2.58686 12.8968L2.58685 12.8967L2.58684 12.8966L2.58683 12.8965L2.58682 12.8964L2.58681 12.8964L2.5868 12.8963L2.58679 12.8962L2.58679 12.8961L2.58678 12.896L2.58677 12.896L2.58676 12.8959L2.58675 12.8958L2.58674 12.8957L2.58673 12.8956L2.58672 12.8955L2.58671 12.8955L2.5867 12.8954L2.58669 12.8953L2.58668 12.8952L2.58667 12.8951L2.58666 12.895L2.58665 12.8949L2.58664 12.8949L2.58663 12.8948L2.58662 12.8947L2.58661 12.8946L2.58659 12.8945L2.58658 12.8944L2.58657 12.8943L2.58656 12.8942L2.58655 12.8941L2.58654 12.894L2.58653 12.8939L2.58652 12.8938L2.58651 12.8937L2.5865 12.8936L2.58648 12.8935L2.58647 12.8935L2.58646 12.8934L2.58645 12.8933L2.58644 12.8932L2.58643 12.8931L2.58642 12.893L2.5864 12.8929L2.58639 12.8928L2.58638 12.8927L2.58637 12.8926L2.58636 12.8925L2.58634 12.8923L2.58633 12.8922L2.58632 12.8921L2.58631 12.892L2.5863 12.8919L2.58628 12.8918L2.58627 12.8917L2.58626 12.8916L2.58625 12.8915L2.58623 12.8914L2.58622 12.8913L2.58621 12.8912L2.5862 12.8911L2.58618 12.891L2.58617 12.8909L2.58616 12.8907L2.58614 12.8906L2.58613 12.8905L2.58612 12.8904L2.58611 12.8903L2.58609 12.8902L2.58608 12.8901L2.58607 12.89L2.58605 12.8898L2.58604 12.8897L2.58603 12.8896L2.58601 12.8895L2.586 12.8894L2.58598 12.8893L2.58597 12.8891L2.58596 12.889L2.58594 12.8889L2.58593 12.8888L2.58592 12.8887L2.5859 12.8885L2.58589 12.8884L2.58587 12.8883L2.58586 12.8882L2.58585 12.8881L2.58583 12.8879L2.58582 12.8878L2.5858 12.8877L2.58579 12.8876L2.58577 12.8874L2.58576 12.8873L2.58574 12.8872L2.58573 12.8871L2.58571 12.8869L2.5857 12.8868L2.58569 12.8867L2.58567 12.8866L2.58566 12.8864L2.58564 12.8863L2.58563 12.8862L2.58561 12.8861L2.5856 12.8859L2.58558 12.8858L2.58557 12.8857L2.58555 12.8855L2.58553 12.8854L2.58552 12.8853L2.5855 12.8851L2.58549 12.885L2.58547 12.8849L2.58546 12.8847L2.58544 12.8846L2.58543 12.8845L2.58541 12.8843L2.58539 12.8842L2.58538 12.8841L2.58536 12.8839L2.58535 12.8838L2.58533 12.8837L2.58532 12.8835L2.5853 12.8834L2.58528 12.8832L2.58527 12.8831L2.58525 12.883L2.58523 12.8828L2.58522 12.8827L2.5852 12.8825L2.58519 12.8824L2.58517 12.8823L2.58515 12.8821L2.58514 12.882L2.58512 12.8818L2.5851 12.8817L2.58509 12.8816L2.58507 12.8814L2.58505 12.8813L2.58504 12.8811L2.58502 12.881L2.585 12.8808L2.58499 12.8807L2.58497 12.8805L2.58495 12.8804L2.58493 12.8803L2.58492 12.8801L2.5849 12.88L2.58488 12.8798L2.58487 12.8797L2.58485 12.8795L2.58483 12.8794L2.58481 12.8792L2.5848 12.8791L2.58478 12.8789L2.58476 12.8788L2.58474 12.8786L2.58473 12.8785L2.58471 12.8783L2.58469 12.8782L2.58467 12.878L2.58466 12.8779L2.58464 12.8777L2.58462 12.8776L2.5846 12.8774L2.58458 12.8772L2.58457 12.8771L2.58455 12.8769L2.58453 12.8768L2.58451 12.8766L2.58449 12.8765L2.58448 12.8763L2.58446 12.8762L2.58444 12.876L2.58442 12.8758L2.5844 12.8757L2.58438 12.8755L2.58437 12.8754L2.58435 12.8752L2.58433 12.8751L2.58431 12.8749L2.58429 12.8747L2.58427 12.8746L2.58426 12.8744L2.58424 12.8743L2.58422 12.8741L2.5842 12.8739L2.58418 12.8738L2.58416 12.8736L2.58414 12.8735L2.58412 12.8733L2.58411 12.8731L2.58409 12.873L2.58407 12.8728L2.58405 12.8726L2.58403 12.8725L2.58401 12.8723L2.58399 12.8722L2.58397 12.872L2.58395 12.8718L2.58393 12.8717L2.58391 12.8715L2.58389 12.8713L2.58388 12.8712L2.58386 12.871L2.58384 12.8708L2.58382 12.8707L2.5838 12.8705L2.58378 12.8703L2.58376 12.8702L2.58374 12.87L2.58372 12.8698L2.5837 12.8697L2.58368 12.8695L2.58366 12.8693L2.58364 12.8692L2.58362 12.869L2.5836 12.8688L2.58358 12.8686L2.58356 12.8685L2.58354 12.8683L2.58352 12.8681L2.5835 12.868L2.58348 12.8678L2.58346 12.8676L2.58344 12.8674L2.58342 12.8673L2.5834 12.8671L2.58338 12.8669L2.58336 12.8668L2.58334 12.8666L2.58332 12.8664L2.5833 12.8662L2.58328 12.8661L2.58326 12.8659L2.58324 12.8657L2.58322 12.8655L2.5832 12.8654L2.58318 12.8652L2.58316 12.865L2.58314 12.8648L2.58312 12.8647L2.5831 12.8645L2.58308 12.8643L2.58306 12.8641L2.58303 12.864L2.58301 12.8638L2.58299 12.8636L2.58297 12.8634L2.58295 12.8632L2.58293 12.8631L2.58291 12.8629L2.58289 12.8627L2.58287 12.8625L2.58285 12.8624L2.58283 12.8622L2.58281 12.862L2.58279 12.8618L2.58276 12.8616L2.58274 12.8615L2.58272 12.8613L2.5827 12.8611L2.58268 12.8609L2.58266 12.8607L2.58264 12.8606L2.58262 12.8604L2.5826 12.8602L2.58257 12.86L2.58255 12.8598L2.58253 12.8596L2.58251 12.8595L2.58249 12.8593L2.58247 12.8591L2.58245 12.8589L2.58243 12.8587L2.5824 12.8585L2.58238 12.8584L2.58236 12.8582L2.58234 12.858L2.58232 12.8578L2.5823 12.8576L2.58228 12.8574L2.58225 12.8573L2.58223 12.8571L2.58221 12.8569L2.58219 12.8567L2.58217 12.8565L2.58215 12.8563L2.58213 12.8562L2.5821 12.856L2.58208 12.8558L2.58206 12.8556L2.58204 12.8554L2.58202 12.8552L2.582 12.855L2.58197 12.8548L2.58195 12.8547L2.58193 12.8545L2.58191 12.8543L2.58189 12.8541L2.58186 12.8539L2.58184 12.8537L2.58182 12.8535L2.5818 12.8534L2.58178 12.8532L2.58176 12.853L2.58173 12.8528L2.58171 12.8526L2.58169 12.8524L2.58167 12.8522L2.58165 12.852L2.58162 12.8518L2.5816 12.8517L2.58158 12.8515L2.58156 12.8513L2.58154 12.8511L2.58151 12.8509L2.58149 12.8507L2.58147 12.8505L2.58145 12.8503L2.58142 12.8501L2.5814 12.8499L2.58138 12.8498L2.58136 12.8496L2.58134 12.8494L2.58131 12.8492L2.58129 12.849L2.58127 12.8488L2.58125 12.8486L2.58122 12.8484L2.5812 12.8482L2.58118 12.848L2.58116 12.8478L2.58114 12.8477L2.58111 12.8475L2.58109 12.8473L2.58107 12.8471L2.58105 12.8469L2.58102 12.8467L2.581 12.8465L2.58098 12.8463L2.58096 12.8461L2.58093 12.8459L2.58091 12.8457L2.58089 12.8455L2.58087 12.8454L2.58084 12.8452L2.58082 12.845L2.5808 12.8448L2.58078 12.8446L2.58075 12.8444L2.58073 12.8442L2.58071 12.844L2.58069 12.8438L2.58066 12.8436L2.58064 12.8434L2.58062 12.8432L2.5806 12.843L2.58057 12.8428L2.58055 12.8426L2.58053 12.8425L2.58051 12.8423L2.58048 12.8421L2.58046 12.8419L2.58044 12.8417L2.58042 12.8415L2.58039 12.8413L2.58037 12.8411L2.58035 12.8409L2.58033 12.8407L2.5803 12.8405L2.58028 12.8403L2.58026 12.8401L2.58024 12.8399L2.58021 12.8397L2.58019 12.8395L2.58017 12.8394L2.58014 12.8392L2.58012 12.839L2.5801 12.8388L2.58008 12.8386L2.58005 12.8384L2.58003 12.8382L2.58001 12.838L2.57999 12.8378L2.57996 12.8376L2.57994 12.8374L2.57992 12.8372L2.5799 12.837L2.57987 12.8368L2.57985 12.8366L2.57983 12.8364L2.5798 12.8362L2.57978 12.836L2.57976 12.8358L2.57974 12.8357L2.57971 12.8355L2.57969 12.8353L2.57967 12.8351L2.57965 12.8349L2.57962 12.8347Z" fill="#FF7C7C" stroke="#FF7C7C" stroke-width="0.1"/>
<path d="M7.66883 9.46159L7.66883 9.46127L7.66316 9.46193C7.66228 9.46203 7.66136 9.46214 7.6604 9.46225C7.64609 9.46388 7.62213 9.46661 7.60252 9.47579C7.59068 9.48133 7.57678 9.49073 7.56704 9.50679C7.55782 9.52199 7.55511 9.53859 7.55627 9.55431C7.55577 9.55497 7.55514 9.55577 7.55436 9.55676L7.55376 9.55751C7.55036 9.56179 7.54328 9.57069 7.53815 9.58203C7.53242 9.59472 7.52954 9.60909 7.53081 9.62512L7.51512 11.5112C7.50299 11.9786 7.41765 12.3857 7.23127 12.7709L7.16993 12.8977L7.29748 12.838L7.58509 12.7033L7.60385 12.6945L7.61091 12.6751C7.74007 12.3186 7.82757 11.8992 7.8478 11.4874L7.84787 11.4874L7.84786 11.4848L7.84211 9.74969L10.0172 9.75966L10.0736 9.75992L10.0671 9.70387C10.064 9.6778 10.0674 9.64982 10.072 9.6144L10.0723 9.61192C10.0765 9.57937 10.0817 9.53992 10.0771 9.5005L10.0719 9.45619L10.0273 9.45629L7.66883 9.46159ZM1.33806 8.12449L1.3379 8.12436L1.33541 8.12817C1.19387 8.34482 1.04905 8.52769 0.901118 8.67722L0.881439 8.69712L0.888101 8.72429L0.952356 8.98641L0.970631 9.06096L1.03143 9.01412C1.15138 8.9217 1.24939 8.8125 1.34013 8.70146L1.33421 10.817L1.33246 10.8169L1.33586 10.8298L1.39534 11.0553C1.40783 11.159 1.43709 11.2595 1.46909 11.3529C1.48365 11.3954 1.49897 11.437 1.51362 11.4767C1.51525 11.4811 1.51688 11.4855 1.51849 11.4899C1.53469 11.5339 1.54984 11.5755 1.56266 11.615L1.65988 11.5938L1.65984 11.5934L1.65979 11.593L1.65975 11.5926L1.6597 11.5922L1.65966 11.5918L1.65961 11.5915L1.65957 11.5911L1.65952 11.5907L1.65948 11.5903L1.65943 11.5899L1.65939 11.5895L1.65934 11.5892L1.6593 11.5888L1.65926 11.5884L1.65921 11.588L1.65917 11.5876L1.65912 11.5873L1.65908 11.5869L1.65904 11.5865L1.65899 11.5861L1.65895 11.5858L1.6589 11.5854L1.65886 11.585L1.65882 11.5847L1.65877 11.5843L1.65873 11.5839L1.65869 11.5835L1.65865 11.5832L1.6586 11.5828L1.65856 11.5824L1.65852 11.5821L1.65847 11.5817L1.65843 11.5813L1.65839 11.581L1.65835 11.5806L1.6583 11.5802L1.65826 11.5799L1.65822 11.5795L1.65818 11.5792L1.65814 11.5788L1.65809 11.5784L1.65805 11.5781L1.65801 11.5777L1.65797 11.5774L1.65793 11.577L1.65788 11.5766L1.65784 11.5763L1.6578 11.5759L1.65776 11.5756L1.65772 11.5752L1.65768 11.5749L1.65764 11.5745L1.6576 11.5742L1.65756 11.5738L1.65751 11.5735L1.65747 11.5731L1.65743 11.5728L1.65739 11.5724L1.65735 11.5721L1.65731 11.5717L1.65727 11.5714L1.65723 11.571L1.65719 11.5707L1.65715 11.5703L1.65711 11.57L1.65707 11.5697L1.65703 11.5693L1.65699 11.569L1.65695 11.5686L1.65691 11.5683L1.65687 11.568L1.65683 11.5676L1.65679 11.5673L1.65675 11.5669L1.65671 11.5666L1.65667 11.5663L1.65664 11.5659L1.6566 11.5656L1.65656 11.5653L1.65652 11.5649L1.65648 11.5646L1.65644 11.5643L1.6564 11.5639L1.65636 11.5636L1.65633 11.5633L1.65629 11.5629L1.65625 11.5626L1.65621 11.5623L1.65617 11.5619L1.65613 11.5616L1.6561 11.5613L1.65606 11.561L1.65602 11.5606L1.65598 11.5603L1.65594 11.56L1.65591 11.5597L1.65587 11.5593L1.65583 11.559L1.65579 11.5587L1.65576 11.5584L1.65572 11.5581L1.65568 11.5577L1.65564 11.5574L1.65561 11.5571L1.65557 11.5568L1.65553 11.5565L1.6555 11.5561L1.65546 11.5558L1.65542 11.5555L1.65539 11.5552L1.65535 11.5549L1.65531 11.5546L1.65528 11.5543L1.65524 11.5539L1.6552 11.5536L1.65517 11.5533L1.65513 11.553L1.65509 11.5527L1.65506 11.5524L1.65502 11.5521L1.65499 11.5518L1.65495 11.5515L1.65491 11.5512L1.65488 11.5508L1.65484 11.5505L1.65481 11.5502L1.65477 11.5499L1.65474 11.5496L1.6547 11.5493L1.65466 11.549L1.65463 11.5487L1.65459 11.5484L1.65456 11.5481L1.65452 11.5478L1.65449 11.5475L1.65445 11.5472L1.65442 11.5469L1.65438 11.5466L1.65435 11.5463L1.65431 11.546L1.65428 11.5457L1.65425 11.5454L1.65421 11.5451L1.65418 11.5448L1.65414 11.5445L1.65411 11.5442L1.65407 11.5439L1.65404 11.5437L1.654 11.5434L1.65397 11.5431L1.65394 11.5428L1.6539 11.5425L1.65387 11.5422L1.65383 11.5419L1.6538 11.5416L1.65377 11.5413L1.65373 11.541L1.6537 11.5407L1.65367 11.5405L1.65363 11.5402L1.6536 11.5399L1.65357 11.5396L1.65353 11.5393L1.6535 11.539L1.65347 11.5387L1.65343 11.5385L1.6534 11.5382L1.65337 11.5379L1.65333 11.5376L1.6533 11.5373L1.65327 11.537L1.65324 11.5368L1.6532 11.5365L1.65317 11.5362L1.65314 11.5359L1.65311 11.5356L1.65307 11.5354L1.65304 11.5351L1.65301 11.5348L1.65298 11.5345L1.65294 11.5343L1.65291 11.534L1.65288 11.5337L1.65285 11.5334L1.65282 11.5332L1.65278 11.5329L1.65275 11.5326L1.65272 11.5323L1.65269 11.5321L1.65266 11.5318L1.65262 11.5315L1.65259 11.5312L1.65256 11.531L1.65253 11.5307L1.6525 11.5304L1.65247 11.5302L1.65244 11.5299L1.6524 11.5296L1.65237 11.5294L1.65234 11.5291L1.65231 11.5288L1.65228 11.5286L1.65225 11.5283L1.65222 11.528L1.65219 11.5278L1.65216 11.5275L1.65213 11.5272L1.6521 11.527L1.65206 11.5267L1.65203 11.5264L1.652 11.5262L1.65197 11.5259L1.65194 11.5257L1.65191 11.5254L1.65188 11.5251L1.65185 11.5249L1.65182 11.5246L1.65179 11.5244L1.65176 11.5241L1.65173 11.5238L1.6517 11.5236L1.65167 11.5233L1.65164 11.5231L1.65161 11.5228L1.65158 11.5226L1.65155 11.5223L1.65152 11.522L1.65149 11.5218L1.65146 11.5215L1.65143 11.5213L1.6514 11.521L1.65137 11.5208L1.65134 11.5205L1.65131 11.5203L1.65128 11.52L1.65126 11.5198L1.65123 11.5195L1.6512 11.5193L1.65117 11.519L1.65114 11.5188L1.65111 11.5185L1.65108 11.5183L1.65105 11.518L1.65102 11.5178L1.65099 11.5175L1.65096 11.5173L1.65094 11.517L1.65091 11.5168L1.65088 11.5165L1.65085 11.5163L1.65082 11.516L1.65079 11.5158L1.65076 11.5156L1.65074 11.5153L1.65071 11.5151L1.65068 11.5148L1.65065 11.5146L1.65062 11.5143L1.65059 11.5141L1.65057 11.5138L1.65054 11.5136L1.65051 11.5134L1.65048 11.5131L1.65045 11.5129L1.65042 11.5126L1.6504 11.5124L1.65037 11.5122L1.65034 11.5119L1.65031 11.5117L1.65029 11.5114L1.65026 11.5112L1.65023 11.511L1.6502 11.5107L1.65017 11.5105L1.65015 11.5103L1.65012 11.51L1.65009 11.5098L1.65006 11.5096L1.65004 11.5093L1.65001 11.5091L1.64998 11.5088L1.64995 11.5086L1.64993 11.5084L1.6499 11.5081L1.64987 11.5079L1.64985 11.5077L1.64982 11.5074L1.64979 11.5072L1.64976 11.507L1.64974 11.5067L1.64971 11.5065L1.64968 11.5063L1.64966 11.5061L1.64963 11.5058L1.6496 11.5056L1.64958 11.5054L1.64955 11.5051L1.64952 11.5049L1.6495 11.5047L1.64947 11.5045L1.64944 11.5042L1.64942 11.504L1.64939 11.5038L1.64936 11.5035L1.64934 11.5033L1.64931 11.5031L1.64928 11.5029L1.64926 11.5026L1.64923 11.5024L1.64921 11.5022L1.64918 11.502L1.64915 11.5017L1.64913 11.5015L1.6491 11.5013L1.64907 11.5011L1.64905 11.5008L1.64902 11.5006L1.649 11.5004L1.64897 11.5002L1.64894 11.4999L1.64892 11.4997L1.64889 11.4995L1.64887 11.4993L1.64884 11.4991L1.64882 11.4988L1.64879 11.4986L1.64876 11.4984L1.64874 11.4982L1.64871 11.498L1.64869 11.4977L1.64866 11.4975L1.64864 11.4973L1.64861 11.4971L1.64859 11.4969L1.64856 11.4966L1.64853 11.4964L1.64851 11.4962L1.64848 11.496L1.64846 11.4958L1.64843 11.4956L1.64841 11.4953L1.64838 11.4951L1.64836 11.4949L1.64833 11.4947L1.64831 11.4945L1.64828 11.4943L1.64826 11.494L1.64823 11.4938L1.64821 11.4936L1.64818 11.4934L1.64816 11.4932L1.64813 11.493L1.64811 11.4928L1.64808 11.4925L1.64806 11.4923L1.64803 11.4921L1.64801 11.4919L1.64798 11.4917L1.64796 11.4915L1.64793 11.4913L1.64791 11.4911L1.64788 11.4908L1.64786 11.4906L1.64783 11.4904L1.64781 11.4902L1.64779 11.49L1.64776 11.4898L1.64774 11.4896L1.64771 11.4894L1.64769 11.4892L1.64766 11.489L1.64764 11.4887L1.64761 11.4885L1.64759 11.4883L1.64757 11.4881L1.64754 11.4879L1.64752 11.4877L1.64749 11.4875L1.64747 11.4873L1.64744 11.4871L1.64742 11.4869L1.6474 11.4867L1.64737 11.4865L1.64735 11.4862L1.64732 11.486L1.6473 11.4858L1.64728 11.4856L1.64725 11.4854L1.64723 11.4852L1.6472 11.485L1.64718 11.4848L1.64716 11.4846L1.64713 11.4844L1.64711 11.4842L1.64708 11.484L1.64706 11.4838L1.64704 11.4836L1.64701 11.4834L1.64699 11.4832L1.64696 11.483L1.64694 11.4828L1.64692 11.4825L1.64689 11.4823L1.64687 11.4821L1.64685 11.4819L1.64682 11.4817L1.6468 11.4815L1.64677 11.4813L1.64675 11.4811L1.64673 11.4809L1.6467 11.4807L1.64668 11.4805L1.64666 11.4803L1.64663 11.4801L1.64661 11.4799L1.64659 11.4797L1.64656 11.4795L1.64654 11.4793L1.64652 11.4791L1.64649 11.4789L1.64647 11.4787L1.64645 11.4785L1.64642 11.4783L1.6464 11.4781L1.64637 11.4779L1.64635 11.4777L1.64633 11.4775L1.6463 11.4773L1.64628 11.4771L1.64626 11.4769L1.64623 11.4767L1.64621 11.4765L1.64619 11.4763L1.64617 11.4761L1.64614 11.4759L1.64612 11.4757L1.6461 11.4755L1.64607 11.4753L1.64605 11.4751L1.64603 11.4749L1.646 11.4747L1.64598 11.4745L1.64596 11.4743L1.64593 11.4741L1.64591 11.4739L1.64589 11.4737L1.64586 11.4735L1.64584 11.4733L1.64582 11.4731L1.6458 11.4729L1.64577 11.4727L1.64575 11.4725L1.64573 11.4723L1.6457 11.4721L1.64568 11.4719L1.64566 11.4717L1.64563 11.4715L1.64561 11.4713L1.64559 11.4712L1.64557 11.471L1.64554 11.4708L1.64552 11.4706L1.6455 11.4704L1.64547 11.4702L1.64545 11.47L1.64543 11.4698L1.6454 11.4696L1.64538 11.4694L1.64536 11.4692L1.64534 11.469L1.64531 11.4688L1.64529 11.4686L1.64527 11.4684L1.64524 11.4682L1.64522 11.468L1.6452 11.4678L1.64518 11.4676L1.64515 11.4674L1.64513 11.4672L1.64511 11.467L1.64509 11.4668L1.64506 11.4666L1.64504 11.4664L1.64502 11.4662L1.64499 11.4661L1.64497 11.4659L1.64495 11.4657L1.64493 11.4655L1.6449 11.4653L1.64488 11.4651L1.64486 11.4649L1.64483 11.4647L1.64481 11.4645L1.64479 11.4643L1.64477 11.4641L1.64474 11.4639L1.64474 11.4639L1.67164 8.22855L1.67177 8.21341L1.66347 8.20074C1.61803 8.13133 1.57581 8.09793 1.53759 8.06769L1.53741 8.06755C1.49634 8.03505 1.44772 8.04688 1.41773 8.06091C1.38593 8.0758 1.35699 8.10056 1.33806 8.12449Z" fill="#FF7C7C" stroke="#FF7C7C" stroke-width="0.1"/>
<path d="M8.01543 12.4703C8.01543 12.4703 8.01543 12.4703 8.01543 12.4703L8.01543 12.4703ZM8.01543 12.4703C8.08114 12.4619 8.1431 12.4214 8.20505 12.3808M8.20346 10.0056L8.20345 10.0053L8.19783 10.0059C8.19696 10.006 8.19604 10.0061 8.19507 10.0063C8.18077 10.0079 8.1568 10.0106 8.13719 10.0198C8.12536 10.0253 8.11145 10.0347 8.10172 10.0508C8.09962 10.0542 8.09787 10.0578 8.09642 10.0613C8.09328 10.0636 8.09026 10.0661 8.08738 10.0689C8.07399 10.0821 8.06805 10.0978 8.06538 10.1106C8.06099 10.1316 8.06377 10.1554 8.06548 10.1697L8.05428 11.5159L8.05427 11.5159L8.05429 11.5172C8.05969 11.8472 7.99982 12.1859 7.90295 12.4967L7.88005 12.5701L7.95647 12.5612C7.95734 12.5611 7.95827 12.561 7.95923 12.5609C7.97354 12.5593 7.9975 12.5565 8.01711 12.5474C8.02894 12.5418 8.04285 12.5324 8.05259 12.5164C8.05313 12.5155 8.05365 12.5146 8.05415 12.5137C8.11871 12.4972 8.17756 12.4586 8.22762 12.4258C8.22923 12.4247 8.23084 12.4237 8.23244 12.4226L8.24886 12.4119L8.25358 12.3928C8.32343 12.1107 8.35539 11.7998 8.35378 11.4934L8.37571 10.2939L9.94543 10.3069L9.98081 10.3072L9.99286 10.274C9.99351 10.2722 9.99416 10.2704 9.99482 10.2686C10.0189 10.2023 10.0479 10.1223 10.0388 10.0439L10.0336 9.99954L9.98893 9.99969L8.20346 10.0056Z" fill="#FF7C7C" stroke="#FF7C7C" stroke-width="0.1"/>
<path d="M9.86579 10.6259L9.88931 10.561L9.82027 10.5589L8.67042 10.5245L8.67043 10.5239L8.66313 10.5248C8.64563 10.5268 8.63112 10.5332 8.61927 10.5423C8.60941 10.5499 8.60238 10.5589 8.599 10.5631C8.59878 10.5634 8.59858 10.5637 8.5984 10.5639C8.59765 10.5648 8.59704 10.5656 8.59654 10.5662L8.57994 10.5682L8.56709 10.5844L8.6063 10.6154L8.56707 10.5844L8.56705 10.5844L8.56702 10.5845L8.56694 10.5846L8.56675 10.5848L8.56625 10.5855L8.56478 10.5874L8.56029 10.5938C8.55677 10.5991 8.55211 10.6065 8.54756 10.6154C8.53966 10.6309 8.52836 10.6579 8.53078 10.688L8.52407 11.4946C8.51793 11.7322 8.51176 11.9638 8.46964 12.1657L8.44921 12.2636L8.53978 12.2212C8.64019 12.1742 8.70652 12.1306 8.80144 12.05L8.81328 12.04L8.81734 12.025C8.84239 11.9325 8.8495 11.843 8.85232 11.7569C8.85331 11.7269 8.85378 11.6979 8.85425 11.6694C8.85515 11.6142 8.85603 11.5608 8.86052 11.5056L8.86058 11.5056L8.86066 11.5032L8.88131 10.8747L9.74255 10.87L9.77742 10.8698L9.78929 10.8371L9.86579 10.6259Z" fill="#FF7C7C" stroke="#FF7C7C" stroke-width="0.1"/>
<path d="M9.28301 11.0949L9.28334 11.093L9.26915 11.0946C9.22664 11.0996 9.19148 11.1148 9.16333 11.1433C9.13679 11.1701 9.12008 11.2052 9.10656 11.2425L9.10364 11.2506L9.10357 11.2591L9.10132 11.529L9.10093 11.529L9.10166 11.5352C9.10565 11.5694 9.10792 11.5901 9.10692 11.6106C9.10597 11.6298 9.10195 11.6507 9.09044 11.6825L9.0263 11.8595L9.16982 11.7376C9.22052 11.6946 9.26006 11.6442 9.29351 11.5971C9.30694 11.5781 9.31889 11.5605 9.33012 11.5439C9.34832 11.5171 9.36463 11.493 9.38228 11.4707L9.39513 11.4544L9.39464 11.4503L9.3988 11.4498L9.41165 11.4336C9.44323 11.3936 9.4658 11.3549 9.48657 11.3192L9.48714 11.3183C9.50834 11.2819 9.52777 11.2486 9.55464 11.2147L9.60737 11.148L9.52351 11.1343L9.28301 11.0949Z" fill="#FF7C7C" stroke="#FF7C7C" stroke-width="0.1"/>
<path d="M9.72821 8.1419L9.7771 8.14206L9.77836 8.09319L9.78448 7.85657L9.7858 7.80553L9.73475 7.80528L7.23941 7.79284L7.23941 7.79281L7.23789 7.79285C6.85652 7.80253 6.52418 7.94549 6.27251 8.18402C5.98411 8.42956 5.85236 8.79611 5.85796 9.1443L5.86327 11.5024L5.86326 11.5024L5.86328 11.5031C5.8685 11.822 5.71251 12.1322 5.47951 12.39C5.24607 12.6109 4.90472 12.748 4.58125 12.7533L4.58125 12.7531L4.57628 12.7537L4.54643 12.7571C3.82955 12.7415 3.25069 12.1924 3.26456 11.4808L3.26456 11.48L3.27089 9.2213L3.27124 9.2213L3.27055 9.21537C3.26581 9.17475 3.25075 9.13246 3.2234 9.10026C3.19491 9.06671 3.15236 9.044 3.09985 9.05012C3.05923 9.05486 3.01694 9.06993 2.98474 9.09727C2.95188 9.12517 2.92942 9.16655 2.93426 9.21757L2.92794 11.4736L2.92791 11.4736L2.92797 11.4754C2.9416 11.8895 3.09219 12.2895 3.40704 12.601C3.72044 12.9111 4.08609 13.0755 4.54138 13.1595L4.54877 13.1608L4.55624 13.16L4.58949 13.1561L4.58988 13.1561L4.59027 13.156L4.59066 13.156L4.59105 13.1559L4.59144 13.1559L4.59183 13.1558L4.59222 13.1558L4.59261 13.1557L4.593 13.1557L4.59339 13.1556L4.59378 13.1556L4.59417 13.1556L4.59456 13.1555L4.59495 13.1555L4.59534 13.1554L4.59573 13.1554L4.59612 13.1553L4.59651 13.1553L4.5969 13.1552L4.59728 13.1552L4.59767 13.1551L4.59806 13.1551L4.59845 13.1551L4.59884 13.155L4.59923 13.155L4.59962 13.1549L4.60001 13.1549L4.6004 13.1548L4.60079 13.1548L4.60118 13.1547L4.60157 13.1547L4.60196 13.1546L4.60235 13.1546L4.60274 13.1546L4.60313 13.1545L4.60352 13.1545L4.60391 13.1544L4.6043 13.1544L4.60469 13.1543L4.60508 13.1543L4.60547 13.1542L4.60586 13.1542L4.60625 13.1541L4.60664 13.1541L4.60703 13.1541L4.60742 13.154L4.60781 13.154L4.60819 13.1539L4.60858 13.1539L4.60897 13.1538L4.60936 13.1538L4.60975 13.1537L4.61014 13.1537L4.61053 13.1536L4.61092 13.1536L4.61131 13.1536L4.6117 13.1535L4.61209 13.1535L4.61248 13.1534L4.61287 13.1534L4.61326 13.1533L4.61365 13.1533L4.61404 13.1532L4.61443 13.1532L4.61482 13.1531L4.61521 13.1531L4.6156 13.1531L4.61599 13.153L4.61638 13.153L4.61677 13.1529L4.61716 13.1529L4.61755 13.1528L4.61794 13.1528L4.61833 13.1527L4.61871 13.1527L4.6191 13.1526L4.61949 13.1526L4.61988 13.1526L4.62027 13.1525L4.62066 13.1525L4.62105 13.1524L4.62144 13.1524L4.62183 13.1523L4.62222 13.1523L4.62261 13.1522L4.623 13.1522L4.62339 13.1521L4.62378 13.1521L4.62417 13.1521L4.62456 13.152L4.62495 13.152L4.62534 13.1519L4.62573 13.1519L4.62612 13.1518L4.62651 13.1518L4.6269 13.1517L4.62729 13.1517L4.62768 13.1516L4.62807 13.1516L4.62846 13.1516L4.62885 13.1515L4.62924 13.1515L4.62962 13.1514L4.63001 13.1514L4.6304 13.1513L4.63079 13.1513L4.63118 13.1512L4.63157 13.1512L4.63196 13.1511L4.63235 13.1511L4.63274 13.1511L4.63313 13.151L4.63352 13.151L4.63391 13.1509L4.6343 13.1509L4.63469 13.1508L4.63508 13.1508L4.63547 13.1507L4.63586 13.1507L4.63625 13.1506L4.63664 13.1506L4.63703 13.1506L4.63742 13.1505L4.63781 13.1505L4.6382 13.1504L4.63859 13.1504L4.63898 13.1503L4.63937 13.1503L4.63976 13.1502L4.64015 13.1502L4.64053 13.1501L4.64092 13.1501L4.64131 13.1501L4.6417 13.15L4.64209 13.15L4.64248 13.1499L4.64287 13.1499L4.64326 13.1498L4.64365 13.1498L4.64404 13.1497L4.64443 13.1497L4.64482 13.1496L4.64521 13.1496L4.6456 13.1496L4.64599 13.1495L4.64638 13.1495L4.64677 13.1494L4.64716 13.1494L4.64755 13.1493L4.64794 13.1493L4.64833 13.1492L4.64872 13.1492L4.64911 13.1491L4.6495 13.1491L4.64989 13.1491L4.65028 13.149L4.65067 13.149L4.65106 13.1489L4.65144 13.1489L4.65183 13.1488L4.65222 13.1488L4.65261 13.1487L4.653 13.1487L4.65339 13.1487L4.65378 13.1486L4.65417 13.1486L4.65456 13.1485L4.65495 13.1485L4.65534 13.1484L4.65573 13.1484L4.65612 13.1483L4.65651 13.1483L4.6569 13.1482L4.65729 13.1482L4.65768 13.1482L4.65807 13.1481L4.65846 13.1481L4.65885 13.148L4.65924 13.148L4.65963 13.1479L4.66002 13.1479L4.66041 13.1478L4.6608 13.1478L4.66119 13.1477L4.66158 13.1477L4.66197 13.1477L4.66235 13.1476L4.66274 13.1476L4.66313 13.1475L4.66352 13.1475L4.66391 13.1474L4.6643 13.1474L4.66469 13.1473L4.66508 13.1473L4.66547 13.1472L4.66586 13.1472L4.66625 13.1472L4.66664 13.1471L4.66703 13.1471L4.66742 13.147L4.66781 13.147L4.6682 13.1469L4.66859 13.1469L4.66898 13.1468L4.66937 13.1468L4.66976 13.1467L4.67015 13.1467L4.67054 13.1467L4.67093 13.1466L4.67132 13.1466L4.67171 13.1465L4.6721 13.1465L4.67249 13.1464L4.67287 13.1464L4.67326 13.1463L4.67365 13.1463L4.67404 13.1462L4.67443 13.1462L4.67482 13.1462L4.67521 13.1461L4.6756 13.1461L4.67599 13.146L4.67638 13.146L4.67677 13.1459L4.67716 13.1459L4.67755 13.1458L4.67794 13.1458L4.67833 13.1457L4.67872 13.1457L4.67911 13.1457L4.6795 13.1456L4.67989 13.1456L4.68028 13.1455L4.68067 13.1455L4.68106 13.1454L4.68145 13.1454L4.68184 13.1453L4.68223 13.1453L4.68262 13.1452L4.68301 13.1452L4.6834 13.1452L4.68378 13.1451L4.68417 13.1451L4.68456 13.145L4.68495 13.145L4.68534 13.1449L4.68573 13.1449L4.68612 13.1448L4.68651 13.1448L4.6869 13.1447L4.68729 13.1447L4.68768 13.1447L4.68807 13.1446L4.68846 13.1446L4.68885 13.1445L4.68924 13.1445L4.68963 13.1444L4.69002 13.1444L4.69041 13.1443L4.6908 13.1443L4.69119 13.1442L4.69158 13.1442L4.69197 13.1442L4.69236 13.1441L4.69275 13.1441L4.69314 13.144L4.69353 13.144L4.69392 13.1439L4.69431 13.1439L4.69469 13.1438L4.69508 13.1438L4.69547 13.1437L4.69586 13.1437L4.69625 13.1437L4.69664 13.1436L4.69703 13.1436L4.69742 13.1435L4.69781 13.1435L4.6982 13.1434L4.69859 13.1434L4.69898 13.1433L4.69937 13.1433L4.69976 13.1432L4.70015 13.1432L4.70054 13.1432L4.70093 13.1431L4.70132 13.1431L4.70171 13.143L4.7021 13.143L4.70249 13.1429L4.70288 13.1429L4.70327 13.1428L4.70366 13.1428L4.70405 13.1427L4.70444 13.1427L4.70483 13.1427L4.70522 13.1426L4.7056 13.1426L4.70599 13.1425L4.70638 13.1425L4.70677 13.1424L4.70716 13.1424L4.70755 13.1423L4.70794 13.1423L4.70833 13.1422L4.70872 13.1422L4.70911 13.1422L4.7095 13.1421L4.70989 13.1421L4.71028 13.142L4.71067 13.142L4.71106 13.1419L4.71145 13.1419L4.71184 13.1418L4.71223 13.1418L4.71262 13.1417L4.71301 13.1417L4.7134 13.1417L4.71379 13.1416L4.71418 13.1416L4.71457 13.1415L4.71496 13.1415L4.71535 13.1414L4.71574 13.1414L4.71613 13.1413L4.71651 13.1413L4.7169 13.1412L4.71729 13.1412L4.71768 13.1412L4.71807 13.1411L4.71846 13.1411L4.71885 13.141L4.71924 13.141L4.71963 13.1409L4.72002 13.1409L4.72041 13.1408L4.7208 13.1408L4.72119 13.1407L4.72158 13.1407L4.72197 13.1407L4.72236 13.1406L4.72275 13.1406L4.72314 13.1405L4.72353 13.1405L4.72392 13.1404L4.72431 13.1404L4.7247 13.1403L4.72509 13.1403L4.72548 13.1402L4.72587 13.1402L4.72626 13.1402L4.72665 13.1401L4.72704 13.1401L4.72742 13.14L4.72781 13.14L4.7282 13.1399L4.72859 13.1399L4.72898 13.1398L4.72937 13.1398L4.72976 13.1397L4.73015 13.1397L4.73054 13.1397L4.73093 13.1396L4.73132 13.1396L4.73171 13.1395L4.7321 13.1395L4.73249 13.1394L4.73288 13.1394L4.73327 13.1393L4.73366 13.1393L4.73405 13.1392L4.73444 13.1392L4.73483 13.1392L4.73522 13.1391L4.73561 13.1391L4.736 13.139L4.73639 13.139L4.73678 13.1389L4.73717 13.1389L4.73756 13.1388L4.73794 13.1388L4.73833 13.1387L4.73872 13.1387L4.73911 13.1387L4.7395 13.1386L4.73989 13.1386L4.74028 13.1385L4.74067 13.1385L4.74106 13.1384L4.74145 13.1384L4.74184 13.1383L4.74223 13.1383L4.74262 13.1382L4.74301 13.1382L4.7434 13.1382L4.74379 13.1381L4.74418 13.1381L4.74457 13.138L4.74496 13.138L4.74535 13.1379L4.74574 13.1379L4.74613 13.1378L4.74652 13.1378L4.74691 13.1377L4.7473 13.1377L4.74769 13.1377L4.74808 13.1376L4.74847 13.1376L4.74885 13.1375L4.74924 13.1375L4.74963 13.1374L4.75002 13.1374L4.75041 13.1373L4.7508 13.1373L4.75119 13.1373L4.75158 13.1372L4.75197 13.1372L4.75236 13.1371L4.75275 13.1371L4.75314 13.137L4.75353 13.137L4.75392 13.1369L4.75431 13.1369L4.7547 13.1368L4.75509 13.1368L4.75548 13.1368L4.75587 13.1367L4.75626 13.1367L4.75665 13.1366L4.75704 13.1366L4.75743 13.1365L4.75782 13.1365L4.75821 13.1364L4.7586 13.1364L4.75899 13.1363L4.75938 13.1363L4.75976 13.1363L4.76015 13.1362L4.76054 13.1362L4.76093 13.1361L4.76132 13.1361L4.76171 13.136L4.7621 13.136L4.76249 13.1359L4.76288 13.1359L4.76327 13.1358L4.76366 13.1358L4.76405 13.1358L4.76444 13.1357L4.76483 13.1357L4.76522 13.1356L4.76561 13.1356L4.766 13.1355L4.76639 13.1355L4.76678 13.1354L4.76717 13.1354L4.76756 13.1353L4.76795 13.1353L4.76834 13.1353L4.76873 13.1352L4.76912 13.1352L4.76951 13.1351L4.7699 13.1351L4.77029 13.135L4.77067 13.135L4.77106 13.1349L4.77145 13.1349L4.77184 13.1348L4.77223 13.1348L4.77262 13.1348L4.77301 13.1347L4.7734 13.1347L4.77379 13.1346L4.77418 13.1346L4.77457 13.1345L4.77496 13.1345L4.77535 13.1344L4.77574 13.1344L4.77613 13.1343L4.77652 13.1343L4.77691 13.1343L4.7773 13.1342L4.77769 13.1342L4.77808 13.1341L4.77847 13.1341L4.77886 13.134L4.77925 13.134L4.77964 13.1339L4.78003 13.1339L4.78042 13.1338L4.78081 13.1338L4.7812 13.1338L4.78158 13.1337L4.78197 13.1337L4.78236 13.1336L4.78275 13.1336L4.78314 13.1335L4.78353 13.1335L4.78392 13.1334L4.78431 13.1334L4.7847 13.1333L4.78509 13.1333L4.78548 13.1333L4.78587 13.1332L4.78626 13.1332L4.78665 13.1331L4.78704 13.1331L4.78743 13.133L4.78782 13.133L4.78821 13.1329L4.7886 13.1329L4.78899 13.1328C5.13431 13.0926 5.46093 12.9148 5.70985 12.6784L5.70997 12.6786L5.71275 12.6754C5.98653 12.3683 6.18405 11.9638 6.17051 11.5447L6.16521 9.18698L6.16521 9.18682C6.16364 8.89481 6.26177 8.62808 6.46252 8.44614L6.46265 8.44629L6.46565 8.44303C6.66451 8.22792 6.90882 8.13494 7.19985 8.13333C7.19992 8.13333 7.19999 8.13333 7.20006 8.13333L9.72821 8.1419Z" fill="#FF7C7C" stroke="#FF7C7C" stroke-width="0.1"/>
<path d="M3.30297 4.29736L3.30301 4.29736L3.30294 4.29535C3.28933 3.8817 3.13908 3.48217 2.825 3.17085C2.5431 2.85453 2.14106 2.69362 1.72391 2.67311L1.72394 2.67242L1.71567 2.67339L1.68242 2.67727L1.68203 2.67731L1.68164 2.67736L1.68125 2.6774L1.68086 2.67745L1.68048 2.67749L1.68009 2.67754L1.67971 2.67758L1.67932 2.67763L1.67894 2.67767L1.67856 2.67772L1.67818 2.67776L1.6778 2.6778L1.67742 2.67785L1.67704 2.67789L1.67666 2.67794L1.67628 2.67798L1.6759 2.67802L1.67552 2.67807L1.67515 2.67811L1.67477 2.67816L1.6744 2.6782L1.67402 2.67824L1.67365 2.67829L1.67328 2.67833L1.67291 2.67837L1.67254 2.67842L1.67216 2.67846L1.67179 2.6785L1.67143 2.67855L1.67106 2.67859L1.67069 2.67863L1.67032 2.67868L1.66996 2.67872L1.66959 2.67876L1.66922 2.6788L1.66886 2.67885L1.6685 2.67889L1.66813 2.67893L1.66777 2.67897L1.66741 2.67901L1.66705 2.67906L1.66669 2.6791L1.66633 2.67914L1.66597 2.67918L1.66561 2.67922L1.66525 2.67927L1.66489 2.67931L1.66454 2.67935L1.66418 2.67939L1.66382 2.67943L1.66347 2.67947L1.66312 2.67952L1.66276 2.67956L1.66241 2.6796L1.66206 2.67964L1.6617 2.67968L1.66135 2.67972L1.661 2.67976L1.66065 2.6798L1.6603 2.67984L1.65995 2.67988L1.6596 2.67992L1.65926 2.67997L1.65891 2.68001L1.65856 2.68005L1.65822 2.68009L1.65787 2.68013L1.65753 2.68017L1.65718 2.68021L1.65684 2.68025L1.65649 2.68029L1.65615 2.68033L1.65581 2.68037L1.65547 2.68041L1.65513 2.68045L1.65479 2.68049L1.65444 2.68053L1.65411 2.68057L1.65377 2.6806L1.65343 2.68064L1.65309 2.68068L1.65275 2.68072L1.65242 2.68076L1.65208 2.6808L1.65174 2.68084L1.65141 2.68088L1.65107 2.68092L1.65074 2.68096L1.6504 2.681L1.65007 2.68104L1.64974 2.68107L1.64941 2.68111L1.64907 2.68115L1.64874 2.68119L1.64841 2.68123L1.64808 2.68127L1.64775 2.68131L1.64742 2.68134L1.64709 2.68138L1.64676 2.68142L1.64643 2.68146L1.64611 2.6815L1.64578 2.68154L1.64545 2.68157L1.64513 2.68161L1.6448 2.68165L1.64448 2.68169L1.64415 2.68173L1.64383 2.68176L1.6435 2.6818L1.64318 2.68184L1.64285 2.68188L1.64253 2.68191L1.64221 2.68195L1.64189 2.68199L1.64157 2.68203L1.64124 2.68206L1.64092 2.6821L1.6406 2.68214L1.64028 2.68218L1.63996 2.68221L1.63965 2.68225L1.63933 2.68229L1.63901 2.68233L1.63869 2.68236L1.63837 2.6824L1.63806 2.68244L1.63774 2.68247L1.63742 2.68251L1.63711 2.68255L1.63679 2.68258L1.63648 2.68262L1.63616 2.68266L1.63585 2.68269L1.63553 2.68273L1.63522 2.68277L1.6349 2.6828L1.63459 2.68284L1.63428 2.68288L1.63397 2.68291L1.63365 2.68295L1.63334 2.68299L1.63303 2.68302L1.63272 2.68306L1.63241 2.68309L1.6321 2.68313L1.63179 2.68317L1.63148 2.6832L1.63117 2.68324L1.63086 2.68327L1.63055 2.68331L1.63024 2.68335L1.62994 2.68338L1.62963 2.68342L1.62932 2.68345L1.62901 2.68349L1.62871 2.68353L1.6284 2.68356L1.62809 2.6836L1.62779 2.68363L1.62748 2.68367L1.62718 2.6837L1.62687 2.68374L1.62657 2.68378L1.62626 2.68381L1.62596 2.68385L1.62565 2.68388L1.62535 2.68392L1.62504 2.68395L1.62474 2.68399L1.62444 2.68402L1.62414 2.68406L1.62383 2.68409L1.62353 2.68413L1.62323 2.68416L1.62293 2.6842L1.62262 2.68423L1.62232 2.68427L1.62202 2.68431L1.62172 2.68434L1.62142 2.68438L1.62112 2.68441L1.62082 2.68445L1.62052 2.68448L1.62022 2.68452L1.61992 2.68455L1.61962 2.68459L1.61932 2.68462L1.61902 2.68465L1.61872 2.68469L1.61843 2.68472L1.61813 2.68476L1.61783 2.68479L1.61753 2.68483L1.61723 2.68486L1.61693 2.6849L1.61664 2.68493L1.61634 2.68497L1.61604 2.685L1.61575 2.68504L1.61545 2.68507L1.61515 2.68511L1.61486 2.68514L1.61456 2.68518L1.61426 2.68521L1.61397 2.68524L1.61367 2.68528L1.61338 2.68531L1.61308 2.68535L1.61278 2.68538L1.61249 2.68542L1.61219 2.68545L1.6119 2.68549L1.6116 2.68552L1.61131 2.68555L1.61101 2.68559L1.61072 2.68562L1.61043 2.68566L1.61013 2.68569L1.60984 2.68573L1.60954 2.68576L1.60925 2.68579L1.60896 2.68583L1.60866 2.68586L1.60837 2.6859L1.60807 2.68593L1.60778 2.68597L1.60749 2.686L1.60719 2.68603L1.6069 2.68607L1.60661 2.6861L1.60631 2.68614L1.60602 2.68617L1.60573 2.6862L1.60544 2.68624L1.60514 2.68627L1.60485 2.68631L1.60456 2.68634L1.60426 2.68638L1.60397 2.68641L1.60368 2.68644L1.60339 2.68648L1.60309 2.68651L1.6028 2.68655L1.60251 2.68658L1.60222 2.68661L1.60192 2.68665L1.60163 2.68668L1.60134 2.68672L1.60105 2.68675L1.60076 2.68678L1.60046 2.68682L1.60017 2.68685L1.59988 2.68689L1.59959 2.68692L1.59929 2.68695L1.599 2.68699L1.59871 2.68702L1.59842 2.68706L1.59813 2.68709L1.59783 2.68712L1.59754 2.68716L1.59725 2.68719L1.59696 2.68723L1.59666 2.68726L1.59637 2.6873L1.59608 2.68733L1.59579 2.68736L1.59549 2.6874L1.5952 2.68743L1.59491 2.68747L1.59462 2.6875L1.59432 2.68753L1.59403 2.68757L1.59374 2.6876L1.59345 2.68764L1.59315 2.68767L1.59286 2.6877L1.59257 2.68774L1.59227 2.68777L1.59198 2.68781L1.59169 2.68784L1.59139 2.68788L1.5911 2.68791L1.59081 2.68794L1.59051 2.68798L1.59022 2.68801L1.58993 2.68805L1.58963 2.68808L1.58934 2.68811L1.58904 2.68815L1.58875 2.68818L1.58846 2.68822L1.58816 2.68825L1.58787 2.68829L1.58757 2.68832L1.58728 2.68836L1.58698 2.68839L1.58669 2.68842L1.58639 2.68846L1.5861 2.68849L1.5858 2.68853L1.58551 2.68856L1.58521 2.6886L1.58492 2.68863L1.58462 2.68866L1.58432 2.6887L1.58403 2.68873L1.58373 2.68877L1.58344 2.6888L1.58314 2.68884L1.58284 2.68887L1.58255 2.68891L1.58225 2.68894L1.58195 2.68898L1.58165 2.68901L1.58136 2.68905L1.58106 2.68908L1.58076 2.68911L1.58046 2.68915L1.58016 2.68918L1.57986 2.68922L1.57957 2.68925L1.57927 2.68929L1.57897 2.68932L1.57867 2.68936L1.57837 2.68939L1.57807 2.68943L1.57777 2.68946L1.57747 2.6895L1.57717 2.68953L1.57687 2.68957L1.57657 2.6896L1.57626 2.68964L1.57596 2.68967L1.57566 2.68971L1.57536 2.68974L1.57506 2.68978L1.57476 2.68981L1.57445 2.68985L1.57415 2.68989L1.57385 2.68992L1.57354 2.68996L1.57324 2.68999L1.57294 2.69003L1.57263 2.69006L1.57233 2.6901L1.57202 2.69013L1.57172 2.69017L1.57141 2.6902L1.57111 2.69024L1.5708 2.69028L1.5705 2.69031L1.57019 2.69035L1.56988 2.69038L1.56958 2.69042L1.56927 2.69045L1.56896 2.69049L1.56865 2.69053L1.56834 2.69056L1.56804 2.6906L1.56773 2.69063L1.56742 2.69067L1.56711 2.69071L1.5668 2.69074L1.56649 2.69078L1.56618 2.69081L1.56587 2.69085L1.56556 2.69089L1.56525 2.69092L1.56493 2.69096L1.56462 2.691L1.56431 2.69103L1.564 2.69107L1.56368 2.69111L1.56337 2.69114L1.56306 2.69118L1.56274 2.69122L1.56243 2.69125L1.56211 2.69129L1.5618 2.69133L1.56148 2.69136L1.56117 2.6914L1.56085 2.69144L1.56053 2.69147L1.56022 2.69151L1.5599 2.69155L1.55958 2.69158L1.55926 2.69162L1.55894 2.69166L1.55862 2.6917L1.5583 2.69173L1.55798 2.69177L1.55766 2.69181L1.55734 2.69184L1.55702 2.69188L1.5567 2.69192L1.55638 2.69196L1.55606 2.69199L1.55573 2.69203L1.55541 2.69207L1.55509 2.69211L1.55476 2.69215L1.55444 2.69218L1.55411 2.69222L1.55379 2.69226L1.55346 2.6923L1.55314 2.69234L1.55281 2.69237L1.55248 2.69241L1.55215 2.69245L1.55183 2.69249L1.5515 2.69253L1.55117 2.69256L1.55084 2.6926L1.55051 2.69264L1.55018 2.69268L1.54985 2.69272L1.54951 2.69276L1.54918 2.6928L1.54885 2.69283L1.54852 2.69287L1.54818 2.69291L1.54785 2.69295L1.54752 2.69299L1.54718 2.69303L1.54685 2.69307L1.54651 2.69311L1.54617 2.69315L1.54584 2.69319L1.5455 2.69323L1.54516 2.69326L1.54482 2.6933L1.54448 2.69334L1.54414 2.69338L1.5438 2.69342L1.54346 2.69346L1.54312 2.6935L1.54278 2.69354L1.54244 2.69358L1.54209 2.69362L1.54175 2.69366L1.54141 2.6937L1.54106 2.69374L1.54072 2.69378L1.54037 2.69382L1.54003 2.69386L1.53968 2.6939L1.53933 2.69394L1.53898 2.69398L1.53864 2.69403L1.53829 2.69407L1.53794 2.69411L1.53759 2.69415L1.53724 2.69419L1.53688 2.69423L1.53653 2.69427L1.53618 2.69431L1.53583 2.69435L1.53547 2.69439L1.53512 2.69444L1.53476 2.69448L1.53441 2.69452L1.53405 2.69456L1.53369 2.6946L1.53334 2.69464L1.53298 2.69468L1.53262 2.69473L1.53226 2.69477L1.5319 2.69481L1.53154 2.69485L1.53118 2.69489L1.53082 2.69494L1.53045 2.69498L1.53009 2.69502L1.52973 2.69506L1.52936 2.69511L1.529 2.69515L1.52863 2.69519L1.52827 2.69523L1.5279 2.69528L1.52753 2.69532L1.52716 2.69536L1.52679 2.69541L1.52642 2.69545L1.52605 2.69549L1.52568 2.69554L1.52531 2.69558L1.52494 2.69562L1.52456 2.69567L1.52419 2.69571L1.52382 2.69575L1.52344 2.6958L1.52306 2.69584L1.52269 2.69588L1.52231 2.69593L1.52193 2.69597L1.52155 2.69602L1.52117 2.69606L1.52079 2.69611L1.52041 2.69615L1.52003 2.69619L1.51965 2.69624L1.51926 2.69628L1.51888 2.69633L1.51849 2.69637L1.51811 2.69642L1.51772 2.69646L1.51734 2.69651L1.51695 2.69655L1.51656 2.6966L1.51617 2.69664L1.4956 2.69904L1.48275 2.71528C1.44953 2.75727 1.42728 2.80652 1.40795 2.84932C1.40758 2.85014 1.40721 2.85096 1.40684 2.85178C1.38625 2.89735 1.36852 2.93595 1.34363 2.96741L1.26873 3.06207L1.38863 3.0481L1.38922 3.04803L1.3898 3.04796L1.39039 3.04789L1.39097 3.04782L1.39155 3.04775L1.39214 3.04769L1.39272 3.04762L1.39331 3.04755L1.39389 3.04748L1.39448 3.04741L1.39506 3.04735L1.39565 3.04728L1.39623 3.04721L1.39681 3.04714L1.3974 3.04707L1.39798 3.04701L1.39857 3.04694L1.39915 3.04687L1.39974 3.0468L1.40032 3.04673L1.40091 3.04666L1.40149 3.0466L1.40207 3.04653L1.40266 3.04646L1.40324 3.04639L1.40383 3.04632L1.40441 3.04626L1.405 3.04619L1.40558 3.04612L1.40617 3.04605L1.40675 3.04598L1.40733 3.04592L1.40792 3.04585L1.4085 3.04578L1.40909 3.04571L1.40967 3.04564L1.41026 3.04557L1.41084 3.04551L1.41143 3.04544L1.41201 3.04537L1.41259 3.0453L1.41318 3.04523L1.41376 3.04517L1.41435 3.0451L1.41493 3.04503L1.41552 3.04496L1.4161 3.04489L1.41669 3.04483L1.41727 3.04476L1.41785 3.04469L1.41844 3.04462L1.41902 3.04455L1.41961 3.04448L1.42019 3.04442L1.42078 3.04435L1.42136 3.04428L1.42195 3.04421L1.42253 3.04414L1.42312 3.04408L1.4237 3.04401L1.42428 3.04394L1.42487 3.04387L1.42545 3.0438L1.42604 3.04374L1.42662 3.04367L1.42721 3.0436L1.42779 3.04353L1.42838 3.04346L1.42896 3.04339L1.42954 3.04333L1.43013 3.04326L1.43071 3.04319L1.4313 3.04312L1.43188 3.04305L1.43247 3.04299L1.43305 3.04292L1.43364 3.04285L1.43422 3.04278L1.4348 3.04271L1.43539 3.04265L1.43597 3.04258L1.43656 3.04251L1.43714 3.04244L1.43773 3.04237L1.43831 3.0423L1.4389 3.04224L1.43948 3.04217L1.44006 3.0421L1.44065 3.04203L1.44123 3.04196L1.44182 3.0419L1.4424 3.04183L1.44299 3.04176L1.44357 3.04169L1.44416 3.04162L1.44474 3.04156L1.44532 3.04149L1.44591 3.04142L1.44649 3.04135L1.44708 3.04128L1.44766 3.04121L1.44825 3.04115L1.44883 3.04108L1.44942 3.04101L1.45 3.04094L1.45058 3.04087L1.45117 3.04081L1.45175 3.04074L1.45234 3.04067L1.45292 3.0406L1.45351 3.04053L1.45409 3.04047L1.45468 3.0404L1.45526 3.04033L1.45584 3.04026L1.45643 3.04019L1.45701 3.04012L1.4576 3.04006L1.45818 3.03999L1.45877 3.03992L1.45935 3.03985L1.45994 3.03978L1.46052 3.03972L1.46111 3.03965L1.46169 3.03958L1.46227 3.03951L1.46286 3.03944L1.46344 3.03938L1.46403 3.03931L1.46461 3.03924L1.4652 3.03917L1.46578 3.0391L1.46637 3.03903L1.46695 3.03897L1.46753 3.0389L1.46812 3.03883L1.4687 3.03876L1.46929 3.03869L1.46987 3.03863L1.47046 3.03856L1.47104 3.03849L1.47163 3.03842L1.47221 3.03835L1.47279 3.03828L1.47338 3.03822L1.47396 3.03815L1.47455 3.03808L1.47513 3.03801L1.47572 3.03794L1.4763 3.03788L1.47689 3.03781L1.47747 3.03774L1.47805 3.03767L1.47864 3.0376L1.47922 3.03754L1.47981 3.03747L1.48039 3.0374L1.48098 3.03733L1.48156 3.03726L1.48215 3.03719L1.48273 3.03713L1.48331 3.03706L1.4839 3.03699L1.48448 3.03692L1.48507 3.03685L1.48565 3.03679L1.48624 3.03672L1.48682 3.03665L1.48741 3.03658L1.48799 3.03651L1.48857 3.03645L1.48916 3.03638L1.48974 3.03631L1.49033 3.03624L1.49091 3.03617L1.4915 3.0361L1.49208 3.03604L1.49267 3.03597L1.49325 3.0359L1.49383 3.03583L1.49442 3.03576L1.495 3.0357L1.49559 3.03563L1.49617 3.03556L1.49676 3.03549L1.49734 3.03542L1.49793 3.03536L1.49851 3.03529L1.4991 3.03522L1.49968 3.03515L1.50026 3.03508L1.50085 3.03501L1.50143 3.03495L1.50202 3.03488L1.5026 3.03481L1.50319 3.03474L1.50377 3.03467L1.50436 3.03461L1.50494 3.03454L1.50552 3.03447L1.50611 3.0344L1.50669 3.03433L1.50728 3.03427L1.50786 3.0342L1.50845 3.03413L1.50903 3.03406L1.50962 3.03399L1.5102 3.03392L1.51078 3.03386L1.51137 3.03379L1.51195 3.03372L1.51254 3.03365L1.51312 3.03358L1.51371 3.03352L1.51429 3.03345L1.51488 3.03338L1.51546 3.03331L1.51604 3.03324L1.51663 3.03318L1.51721 3.03311L1.5178 3.03304L1.51838 3.03297L1.51897 3.0329L1.51955 3.03283L1.52014 3.03277L1.52072 3.0327L1.5213 3.03263L1.52189 3.03256L1.52247 3.03249L1.52306 3.03243L1.52364 3.03236L1.52423 3.03229L1.52481 3.03222L1.5254 3.03215L1.52598 3.03209L1.52656 3.03202L1.52715 3.03195L1.52773 3.03188L1.52832 3.03181L1.5289 3.03174L1.52949 3.03168L1.53007 3.03161L1.53066 3.03154L1.53124 3.03147L1.53182 3.0314L1.53241 3.03134L1.53299 3.03127L1.53358 3.0312L1.53416 3.03113L1.53475 3.03106L1.53533 3.031L1.53592 3.03093L1.5365 3.03086L1.53709 3.03079L1.53767 3.03072L1.53825 3.03065L1.53884 3.03059L1.53942 3.03052L1.54001 3.03045L1.54059 3.03038L1.54118 3.03031L1.54176 3.03025L1.54235 3.03018L1.54293 3.03011L1.54351 3.03004L1.5441 3.02997L1.54468 3.02991L1.54527 3.02984L1.54585 3.02977L1.54644 3.0297L1.54702 3.02963L1.54761 3.02956L1.54819 3.0295L1.54877 3.02943L1.54936 3.02936L1.54994 3.02929L1.55053 3.02922L1.55111 3.02916L1.5517 3.02909L1.55228 3.02902L1.55287 3.02895L1.55345 3.02888L1.55403 3.02882L1.55462 3.02875L1.5552 3.02868L1.55579 3.02861L1.55637 3.02854L1.55696 3.02847L1.55754 3.02841L1.55813 3.02834L1.55871 3.02827L1.55929 3.0282L1.55988 3.02813L1.56046 3.02807L1.56105 3.028L1.56163 3.02793L1.56222 3.02786L1.5628 3.02779L1.56339 3.02773L1.56397 3.02766L1.56455 3.02759L1.56514 3.02752L1.56572 3.02745L1.56631 3.02738L1.56689 3.02732L1.56748 3.02725L1.56806 3.02718L1.56865 3.02711L1.56923 3.02704L1.56981 3.02698L1.5704 3.02691L1.57098 3.02684L1.57157 3.02677L1.57215 3.0267L1.57274 3.02664L1.57332 3.02657L1.57391 3.0265L1.57449 3.02643L1.57508 3.02636L1.57566 3.02629L1.57624 3.02623L1.57683 3.02616L1.57741 3.02609L1.578 3.02602L1.57858 3.02595L1.57917 3.02589L1.57975 3.02582L1.58034 3.02575L1.58092 3.02568L1.5815 3.02561L1.58209 3.02555L1.58267 3.02548L1.58326 3.02541L1.58384 3.02534L1.58443 3.02527L1.58501 3.0252L1.5856 3.02514L1.58618 3.02507L1.58676 3.025L1.58735 3.02493L1.58793 3.02486L1.58852 3.0248L1.5891 3.02473L1.58969 3.02466L1.59027 3.02459L1.59086 3.02452L1.59144 3.02446L1.59202 3.02439L1.59261 3.02432L1.59319 3.02425L1.59378 3.02418L1.59436 3.02411L1.59495 3.02405L1.59553 3.02398L1.59612 3.02391L1.5967 3.02384L1.59728 3.02377L1.59787 3.02371L1.59845 3.02364L1.59904 3.02357L1.59962 3.0235L1.60021 3.02343L1.60079 3.02337L1.60138 3.0233L1.60196 3.02323L1.60254 3.02316L1.60313 3.02309L1.60371 3.02302L1.6043 3.02296L1.60488 3.02289L1.60547 3.02282L1.60605 3.02275L1.60664 3.02268L1.60722 3.02262L1.6078 3.02255L1.60839 3.02248L1.60897 3.02241L1.60956 3.02234L1.61014 3.02227L1.61073 3.02221L1.61131 3.02214L1.6119 3.02207L1.61248 3.022L1.61307 3.02193L1.61365 3.02187L1.61423 3.0218L1.61482 3.02173L1.6154 3.02166L1.61599 3.02159L1.61657 3.02153L1.61716 3.02146L1.61774 3.02139L1.61833 3.02132L1.61891 3.02125L1.61949 3.02118L1.62008 3.02112L1.62066 3.02105L1.62125 3.02098L1.62183 3.02091L1.62242 3.02084L1.623 3.02078L1.62359 3.02071L1.62417 3.02064L1.62475 3.02057L1.62534 3.0205L1.62592 3.02044L1.62651 3.02037L1.62709 3.0203L1.62768 3.02023L1.62826 3.02016L1.62885 3.02009L1.62943 3.02003L1.63001 3.01996L1.6306 3.01989L1.63118 3.01982L1.63177 3.01975L1.63235 3.01969L1.63294 3.01962L1.63352 3.01955L1.63411 3.01948L1.63469 3.01941L1.63527 3.01935L1.63586 3.01928L1.63644 3.01921L1.63703 3.01914L1.63761 3.01907L1.6382 3.019L1.63878 3.01894L1.63937 3.01887L1.63995 3.0188L1.64053 3.01873L1.64112 3.01866L1.6417 3.0186L1.64229 3.01853L1.64287 3.01846L1.64346 3.01839L1.64404 3.01832L1.64463 3.01826L1.64521 3.01819L1.64579 3.01812L1.64638 3.01805L1.64696 3.01798L1.64755 3.01791L1.64813 3.01785L1.64872 3.01778L1.6493 3.01771L1.64989 3.01764L1.65047 3.01757L1.65106 3.01751L1.65164 3.01744L1.65222 3.01737L1.65281 3.0173L1.65339 3.01723L1.65398 3.01717L1.65456 3.0171L1.65515 3.01703L1.65573 3.01696L1.65632 3.01689L1.6569 3.01682L1.65748 3.01676L1.65807 3.01669L1.65865 3.01662L1.65924 3.01655L1.65982 3.01648L1.66041 3.01642L1.66099 3.01635L1.66158 3.01628L1.66216 3.01621L1.66274 3.01614L1.66333 3.01608L1.66391 3.01601L1.6645 3.01594L1.66508 3.01587L1.66567 3.0158L1.66625 3.01573L1.66684 3.01567L1.66742 3.0156L1.668 3.01553L1.66859 3.01546L1.66917 3.01539L1.66976 3.01533L1.67034 3.01526L1.67093 3.01519L1.67151 3.01512L1.6721 3.01505L1.67268 3.01499L1.67326 3.01492L1.67385 3.01485L1.67443 3.01478L1.67502 3.01471L1.6756 3.01464L1.67619 3.01458L1.67677 3.01451L1.67736 3.01444L1.67794 3.01437L1.67852 3.0143L1.67911 3.01424L1.67969 3.01417L1.68028 3.0141L1.68086 3.01403L1.68145 3.01396L1.68203 3.0139L1.68262 3.01383L1.6832 3.01376L1.68378 3.01369L1.68437 3.01362L1.68495 3.01355L1.68554 3.01349L1.68612 3.01342L1.68671 3.01335L1.68729 3.01328L1.68788 3.01321L1.71862 3.00963C2.03924 3.00519 2.38065 3.1593 2.6017 3.39208C2.82331 3.62545 2.96094 3.96733 2.96635 4.29131C2.96635 4.29143 2.96635 4.29156 2.96635 4.29169L2.96981 8.36835L2.96948 8.36835L2.97015 8.37409C2.97489 8.41471 2.98995 8.457 3.0173 8.4892C3.0458 8.52275 3.08834 8.54546 3.14085 8.53934C3.17055 8.53588 3.20459 8.51837 3.23005 8.49264C3.25634 8.46606 3.27792 8.42602 3.27321 8.37588L3.30297 4.29736Z" fill="#FF7C7C" stroke="#FF7C7C" stroke-width="0.1"/>
</svg>
