<svg width="33" height="36" viewBox="0 0 33 36" fill="none" xmlns="http://www.w3.org/2000/svg">
<path d="M26.9095 4.8225C26.7662 4.8225 26.6229 4.7875 26.4974 4.7175C23.0574 2.985 20.0833 2.25 16.5179 2.25C12.9704 2.25 9.60203 3.0725 6.53828 4.7175C6.10828 4.945 5.57078 4.7875 5.31995 4.3675C5.20821 4.16283 5.18315 3.92351 5.25016 3.70098C5.31716 3.47845 5.47089 3.29049 5.67828 3.1775C9.01078 1.41 12.6658 0.5 16.5179 0.5C20.3341 0.5 23.6666 1.3225 27.3216 3.16C27.7695 3.3875 27.9308 3.9125 27.6979 4.3325C27.627 4.47838 27.5155 4.60177 27.376 4.68845C27.2365 4.77514 27.0748 4.8216 26.9095 4.8225ZM1.27078 14.01C1.10563 14.0115 0.943279 13.9683 0.801737 13.8852C0.660194 13.802 0.544993 13.6822 0.468913 13.539C0.392832 13.3959 0.358846 13.2349 0.370723 13.074C0.382601 12.9131 0.439878 12.7585 0.536201 12.6275C2.30995 10.1775 4.56745 8.2525 7.25495 6.905C12.8808 4.07 20.0833 4.0525 25.727 6.8875C28.4145 8.235 30.672 10.1425 32.4458 12.575C32.5145 12.669 32.5635 12.7755 32.5899 12.8881C32.6163 13.0007 32.6196 13.1174 32.5997 13.2313C32.5797 13.3452 32.5368 13.4541 32.4735 13.5517C32.4102 13.6493 32.3277 13.7337 32.2308 13.8C31.8187 14.08 31.2633 13.9925 30.9766 13.59C29.4076 11.4207 27.3235 9.65523 24.9029 8.445C19.7608 5.8725 13.1854 5.8725 8.0612 8.4625C5.62453 9.6875 3.58203 11.4375 1.96953 13.6425C1.8262 13.8875 1.55745 14.01 1.27078 14.01ZM12.4687 35.1325C12.3512 35.1339 12.2347 35.1113 12.1267 35.0661C12.0187 35.0209 11.9216 34.9541 11.8416 34.87C10.2829 33.3475 9.44078 32.3675 8.24037 30.25C7.00412 28.0975 6.35912 25.4725 6.35912 22.655C6.35912 17.4575 10.91 13.2225 16.5 13.2225C22.09 13.2225 26.6408 17.4575 26.6408 22.655C26.6408 23.145 26.2466 23.53 25.7449 23.53C25.2433 23.53 24.8491 23.145 24.8491 22.655C24.8491 18.42 21.1045 14.9725 16.5 14.9725C11.8954 14.9725 8.15078 18.42 8.15078 22.655C8.15078 25.175 8.72412 27.5025 9.81703 29.3925C10.9637 31.405 11.752 32.2625 13.1316 33.6275C13.472 33.9775 13.472 34.52 13.1316 34.87C12.9345 35.045 12.7016 35.1325 12.4687 35.1325ZM25.315 31.895C23.1829 31.895 21.3016 31.37 19.7608 30.3375C17.0912 28.57 15.4966 25.7 15.4966 22.655C15.4966 22.165 15.8908 21.78 16.3925 21.78C16.8941 21.78 17.2883 22.165 17.2883 22.655C17.2883 25.1225 18.5783 27.45 20.7641 28.885C22.0362 29.725 23.5233 30.1275 25.315 30.1275C25.7449 30.1275 26.4616 30.075 27.1783 29.9525C27.662 29.865 28.1279 30.18 28.2175 30.67C28.307 31.1425 27.9845 31.5975 27.4829 31.685C26.4616 31.8775 25.5658 31.895 25.315 31.895ZM21.7137 35.5C21.642 35.5 21.5525 35.4825 21.4808 35.465C18.632 34.695 16.7687 33.6625 14.8158 31.79C13.5782 30.5965 12.5969 29.1738 11.9293 27.6052C11.2618 26.0366 10.9213 24.3537 10.9279 22.655C10.9279 19.82 13.4004 17.51 16.4462 17.51C19.492 17.51 21.9645 19.82 21.9645 22.655C21.9645 24.5275 23.6308 26.05 25.6912 26.05C27.7516 26.05 29.4179 24.5275 29.4179 22.655C29.4179 16.0575 23.5949 10.7025 16.4283 10.7025C11.34 10.7025 6.68162 13.4675 4.58537 17.755C3.88662 19.1725 3.52828 20.835 3.52828 22.655C3.52828 24.02 3.6537 26.1725 4.7287 28.9725C4.90787 29.4275 4.67495 29.935 4.20912 30.0925C3.74328 30.2675 3.2237 30.0225 3.06245 29.585C2.19912 27.3718 1.75591 25.0234 1.75453 22.655C1.75453 20.555 2.16662 18.6475 2.97287 16.985C5.35578 12.1025 10.6412 8.935 16.4283 8.935C24.5804 8.935 31.2095 15.0775 31.2095 22.6375C31.2095 25.4725 28.737 27.7825 25.6912 27.7825C22.6454 27.7825 20.1729 25.4725 20.1729 22.6375C20.1729 20.765 18.5066 19.2425 16.4462 19.2425C14.3858 19.2425 12.7195 20.765 12.7195 22.6375C12.7195 25.63 13.902 28.43 16.07 30.53C17.772 32.175 19.4025 33.085 21.9287 33.7675C22.4124 33.89 22.6812 34.38 22.5558 34.835C22.4662 35.2375 22.09 35.5 21.7137 35.5Z" fill="#BEBEBE"/>
</svg>
