<svg width="16" height="21" viewBox="0 0 16 21" fill="none" xmlns="http://www.w3.org/2000/svg">
<path d="M10.9543 18.4656L10.9541 18.4676L10.968 18.4654C11.0683 18.4501 11.1128 18.3895 11.1468 18.3431L11.1481 18.3414L11.1529 18.3348L11.1554 18.3271C11.1733 18.2716 11.1668 18.2149 11.1368 18.1724C11.1073 18.1308 11.0586 18.1081 11.0036 18.114C9.86601 17.9663 8.99308 16.943 9.02059 15.8235C9.02059 15.8234 9.02059 15.8233 9.02059 15.8232L9.29886 7.24757L9.29895 7.24757L9.29886 7.24456C9.28953 6.90749 9.15632 6.58905 8.95186 6.36514L8.95207 6.36495L8.94806 6.3614C8.70826 6.14937 8.42625 5.97677 8.08223 5.9863L8.08222 5.98591L8.07604 5.98686L8.0407 5.99228C7.35929 5.97199 6.80074 6.48275 6.77798 7.1661L6.77797 7.1661L6.77796 7.16676L6.72103 9.99236C6.72103 9.99242 6.72102 9.99249 6.72102 9.99255C6.69654 10.8696 6.05473 11.6055 5.21039 11.8155C5.16382 11.823 5.1219 11.8418 5.09485 11.8786C5.06734 11.9161 5.06228 11.9626 5.06956 12.0101C5.07684 12.0576 5.0956 12.1005 5.13307 12.128C5.17053 12.1555 5.21706 12.1606 5.26458 12.1533L5.2646 12.1535L5.26834 12.1526C6.31646 11.9085 7.01271 11.0082 7.06032 9.95934L7.06033 9.95934L7.06036 9.95808L7.11729 7.13274C7.12638 6.93556 7.20636 6.69403 7.37269 6.55606L7.37298 6.55641L7.37756 6.55144C7.54103 6.37384 7.75947 6.30101 7.99385 6.30408L7.99384 6.30477L8.00207 6.30351L8.037 6.29816C8.23339 6.3082 8.47245 6.38822 8.60943 6.55336L8.60908 6.55365L8.61405 6.55822C8.79157 6.72162 8.86441 6.93995 8.86141 7.17421C8.86141 7.17431 8.86141 7.17441 8.8614 7.17451L8.63527 15.8232C8.63527 15.8233 8.63526 15.8234 8.63526 15.8234C8.59071 17.1638 9.59841 18.2992 10.9543 18.4656Z" fill="#BEBEBE" stroke="#BEBEBE" stroke-width="0.1"/>
<path d="M11.705 18.4752L11.705 18.4752L11.7068 18.4749C12.7961 18.2665 13.6259 17.4339 13.8032 16.4075C13.8191 16.3557 13.816 16.3075 13.7835 16.2683C13.7547 16.2336 13.7089 16.2147 13.6656 16.2008C13.6125 16.1837 13.5629 16.1862 13.5228 16.2194C13.4881 16.2482 13.4693 16.294 13.4553 16.3373L13.4548 16.3371L13.4535 16.3449C13.3121 17.2442 12.5887 17.9937 11.6532 18.137C11.6057 18.1443 11.5628 18.163 11.5353 18.2005C11.5078 18.238 11.5027 18.2845 11.51 18.332C11.5173 18.3795 11.5361 18.4224 11.5735 18.4499C11.611 18.4774 11.6575 18.4825 11.705 18.4752Z" fill="#BEBEBE" stroke="#BEBEBE" stroke-width="0.1"/>
<path d="M4.40577 12.2025L4.40575 12.2034L4.41501 12.2019C4.46224 12.1947 4.5105 12.1754 4.54628 12.1427C4.58083 12.1112 4.60383 12.0665 4.5995 12.0128C4.61224 11.9657 4.61068 11.9122 4.56451 11.8783C4.5431 11.8626 4.5171 11.8557 4.49124 11.8533C4.46635 11.851 4.43827 11.8525 4.40778 11.8569L2.44244 11.7914L2.39144 11.7898L2.39078 11.8408L2.38756 12.0862L2.38692 12.1352L2.43589 12.1369L4.40577 12.2025Z" fill="#BEBEBE" stroke="#BEBEBE" stroke-width="0.1"/>
<path d="M14.5833 12.1521L14.5828 12.1032L14.5339 12.1026C14.2787 12.0992 13.9934 12.1847 13.8016 12.3438C13.6074 12.5049 13.5135 12.7375 13.5101 12.9949C13.5101 12.995 13.5101 12.9951 13.5101 12.9951L13.4596 15.3297L13.4588 15.3297L13.4601 15.3384C13.4674 15.3856 13.4867 15.4339 13.5194 15.4697C13.5532 15.5067 13.6022 15.5305 13.6613 15.5215C13.7085 15.5142 13.7568 15.4949 13.7925 15.4622C13.8286 15.4293 13.8521 15.382 13.845 15.3251L13.9015 13.0358C13.9312 12.7263 14.1942 12.4661 14.4916 12.4938L14.4915 12.4954L14.5038 12.4935L14.5437 12.4873L14.5866 12.4808L14.5862 12.4374L14.5833 12.1521Z" fill="#BEBEBE" stroke="#BEBEBE" stroke-width="0.1"/>
<path d="M7.46217 8.48834C7.42613 8.52125 7.40265 8.56841 7.40966 8.62524L7.36604 9.93425L7.36603 9.93479C7.35058 10.6173 7.04943 11.2646 6.56075 11.7407C6.07317 12.2156 5.39267 12.4802 4.70945 12.4648C4.70938 12.4648 4.70931 12.4648 4.70924 12.4648L2.49431 12.396L2.44223 12.3944L2.44276 12.4465L2.44566 12.7318L2.44614 12.7797L2.49393 12.7813L4.66939 12.8563L4.66939 12.8563L4.67089 12.8563C5.45948 12.8599 6.20549 12.5797 6.78623 12.0339C7.36578 11.4893 7.71361 10.7716 7.71759 9.98058L7.79505 8.62261L7.79616 8.62268L7.79456 8.61219C7.78732 8.56497 7.768 8.51671 7.73533 8.48093C7.70146 8.44384 7.6525 8.42006 7.59343 8.42911C7.54621 8.43635 7.49794 8.45567 7.46217 8.48834Z" fill="#BEBEBE" stroke="#BEBEBE" stroke-width="0.1"/>
<path d="M11.3116 18.7833C11.276 18.7788 11.2307 18.7742 11.1851 18.7804C10.3766 18.7427 9.69152 18.4464 9.16565 17.8868C8.63828 17.3256 8.36708 16.6048 8.37041 15.841L8.42991 13.8319L8.43074 13.8319L8.42935 13.8228C8.42211 13.7756 8.40279 13.7273 8.37012 13.6916C8.33625 13.6545 8.28729 13.6307 8.22822 13.6397C8.181 13.647 8.13274 13.6663 8.09696 13.699C8.0609 13.7319 8.03742 13.7791 8.04446 13.836L7.98508 15.8413C7.98508 15.8413 7.98508 15.8414 7.98507 15.8414C7.9534 16.7177 8.2867 17.5379 8.8783 18.152L8.87849 18.1522C9.36945 18.6562 10.0048 19.0155 10.6859 19.119L10.6977 19.1208L10.709 19.1171L11.4087 18.8874L11.3856 18.7905C11.3824 18.7909 11.375 18.791 11.3606 18.7895C11.3515 18.7886 11.342 18.7873 11.3313 18.7859C11.3252 18.7851 11.3187 18.7842 11.3116 18.7833Z" fill="#BEBEBE" stroke="#BEBEBE" stroke-width="0.1"/>
<path d="M14.6402 12.7895L14.6326 12.7401L14.5832 12.7477L14.5034 12.7599L14.5025 12.76C14.4828 12.7631 14.4495 12.7682 14.4164 12.779C14.3839 12.7897 14.3434 12.8084 14.3172 12.8441C14.2962 12.8727 14.2788 12.911 14.2673 12.9465C14.257 12.9786 14.2488 13.0168 14.2521 13.0479L14.1737 15.9959L14.1729 15.9959L14.1743 16.0048C14.1867 16.0858 14.1964 16.1543 14.1729 16.2274L14.2638 16.2677C14.3705 16.0825 14.4426 15.8482 14.5092 15.6319C14.5253 15.5795 14.5411 15.5282 14.557 15.4788L14.5592 15.4718L14.5594 15.4644L14.603 13.1316L14.6411 13.1258L14.6906 13.1182L14.683 13.0688L14.6402 12.7895Z" fill="#BEBEBE" stroke="#BEBEBE" stroke-width="0.1"/>
<path d="M7.95839 6.92014L7.96639 6.92151L7.97441 6.92028L8.00239 6.91599C8.06967 6.93908 8.1082 6.96596 8.14838 6.99538C8.16932 7.02585 8.18018 7.04819 8.18732 7.06995C8.19507 7.09355 8.19911 7.11818 8.205 7.15652L8.06372 12.8834C8.04689 12.9458 8.07246 13.0009 8.11219 13.036C8.15217 13.0714 8.20984 13.0903 8.26525 13.0818C8.31276 13.0746 8.35565 13.0558 8.38315 13.0183C8.40977 12.9821 8.41537 12.9373 8.4091 12.8914L8.55049 7.16025C8.58984 6.83753 8.32191 6.5661 8.00944 6.56927L8.00943 6.56876L8.00237 6.56985L7.96844 6.57505C7.78833 6.56001 7.66302 6.62583 7.54963 6.72937C7.42946 6.83911 7.40536 6.97988 7.38436 7.10252C7.38407 7.1042 7.38379 7.10588 7.3835 7.10756L7.38289 7.10745L7.38279 7.11535L7.37313 7.85176L7.37245 7.85175L7.37371 7.85999C7.38094 7.90722 7.40027 7.95548 7.43294 7.99126C7.46681 8.02835 7.51577 8.05213 7.57483 8.04308C7.62206 8.03584 7.67032 8.01651 7.7061 7.98384C7.74225 7.95083 7.76576 7.90347 7.75854 7.8464L7.76814 7.11376L7.76883 7.11377L7.76757 7.10554C7.76165 7.06691 7.78171 7.01607 7.82364 6.97453C7.86534 6.9332 7.9167 6.91299 7.95839 6.92014Z" fill="#BEBEBE" stroke="#BEBEBE" stroke-width="0.1"/>
<path d="M7.92726 17.2069L7.92794 17.2067L7.92534 17.1988C7.77385 16.7373 7.7015 16.2644 7.71387 15.8196C7.71387 15.8196 7.71387 15.8196 7.71387 15.8196L7.8329 11.8001L7.83374 11.8001L7.83235 11.791C7.81698 11.6907 7.75637 11.6463 7.70997 11.6122L7.70828 11.611L7.69159 11.5987L7.67111 11.6018L7.67024 11.602C7.65046 11.605 7.61718 11.6101 7.58407 11.621C7.55157 11.6316 7.51109 11.6504 7.48492 11.686L7.48491 11.686L7.48421 11.687C6.82365 12.6342 5.78326 13.1952 4.65384 13.1674L2.51861 13.0864L2.47483 13.0847L2.46743 13.1279L2.42432 13.3795L2.4145 13.4368L2.47263 13.4379L4.6015 13.4791C4.6016 13.4791 4.6017 13.4791 4.6018 13.4791C5.6767 13.5124 6.6778 13.0641 7.37315 12.2791L7.28254 15.786L7.28252 15.786L7.28252 15.7873C7.2822 16.3228 7.36233 16.8484 7.55859 17.3164L7.55746 17.3169L7.56388 17.326C7.59125 17.3647 7.62084 17.3987 7.65832 17.4203C7.69777 17.443 7.74107 17.4493 7.79018 17.4418C7.84925 17.4327 7.88884 17.3954 7.91005 17.3498C7.93051 17.3059 7.9345 17.2541 7.92726 17.2069Z" fill="#BEBEBE" stroke="#BEBEBE" stroke-width="0.1"/>
<path d="M9.77752 19.2195L9.95213 19.1928L9.7894 19.124C9.23369 18.8893 8.72993 18.4864 8.2847 17.9517C8.27767 17.9329 8.26449 17.9186 8.25101 17.9087C8.2336 17.8959 8.21238 17.8878 8.19046 17.8841C8.14872 17.8769 8.09879 17.8845 8.053 17.9139C8.03275 17.9206 8.01739 17.9344 8.00697 17.9486C7.99418 17.966 7.98609 17.9873 7.98233 18.0092C7.97476 18.0534 7.98368 18.1068 8.01758 18.1547C8.3345 18.6027 8.7662 18.9914 9.22026 19.253L9.23546 19.2618L9.25279 19.2591C9.34936 19.2443 9.43806 19.2406 9.52429 19.2376C9.52935 19.2374 9.53441 19.2372 9.53947 19.237C9.61969 19.2343 9.69916 19.2315 9.77752 19.2195Z" fill="#BEBEBE" stroke="#BEBEBE" stroke-width="0.1"/>
<path d="M6.70564 15.7516L6.7056 15.7516L6.70562 15.7536C6.70595 15.7856 6.70619 15.8172 6.70644 15.8484C6.70836 16.0942 6.71011 16.3192 6.74866 16.5708C6.75371 16.6037 6.77492 16.642 6.80561 16.6702C6.83778 16.6998 6.88541 16.7229 6.94368 16.714C6.99146 16.7066 7.03714 16.6872 7.06384 16.6408C7.08864 16.5978 7.09043 16.5422 7.08076 16.4791C7.04483 16.2446 7.04786 16.0035 7.05108 15.7574C7.05108 15.7573 7.05108 15.7571 7.05109 15.757L7.12313 13.297L7.12397 13.297L7.12258 13.2879L7.12229 13.286C7.11609 13.2455 7.10725 13.1877 7.04451 13.1416L7.02782 13.1294L7.00735 13.1325L7.00712 13.1325L7.00688 13.1326L7.00665 13.1326L7.00641 13.1327L7.00618 13.1327L7.00595 13.1327L7.00571 13.1328L7.00548 13.1328L7.00525 13.1328L7.00501 13.1329L7.00478 13.1329L7.00454 13.1329L7.00431 13.133L7.00408 13.133L7.00384 13.1331L7.00361 13.1331L7.00338 13.1331L7.00314 13.1332L7.00291 13.1332L7.00267 13.1332L7.00244 13.1333L7.00221 13.1333L7.00197 13.1333L7.00174 13.1334L7.00151 13.1334L7.00127 13.1334L7.00104 13.1335L7.0008 13.1335L7.00057 13.1336L7.00034 13.1336L7.0001 13.1336L6.99987 13.1337L6.99964 13.1337L6.9994 13.1337L6.99917 13.1338L6.99893 13.1338L6.9987 13.1338L6.99847 13.1339L6.99823 13.1339L6.998 13.1339L6.99777 13.134L6.99753 13.134L6.9973 13.1341L6.99706 13.1341L6.99683 13.1341L6.9966 13.1342L6.99636 13.1342L6.99613 13.1342L6.9959 13.1343L6.99566 13.1343L6.99543 13.1343L6.99519 13.1344L6.99496 13.1344L6.99473 13.1344L6.99449 13.1345L6.99426 13.1345L6.99403 13.1346L6.99379 13.1346L6.99356 13.1346L6.99332 13.1347L6.99309 13.1347L6.99286 13.1347L6.99262 13.1348L6.99239 13.1348L6.99216 13.1348L6.99192 13.1349L6.99169 13.1349L6.99145 13.1349L6.99122 13.135L6.99099 13.135L6.99075 13.1351L6.99052 13.1351L6.99029 13.1351L6.99005 13.1352L6.98982 13.1352L6.98958 13.1352L6.98935 13.1353L6.98912 13.1353L6.98888 13.1353L6.98865 13.1354L6.98842 13.1354L6.98818 13.1355L6.98795 13.1355L6.98771 13.1355L6.98748 13.1356L6.98725 13.1356L6.98701 13.1356L6.98678 13.1357L6.98655 13.1357L6.98631 13.1357L6.98608 13.1358L6.98584 13.1358L6.98561 13.1358L6.98538 13.1359L6.98514 13.1359L6.98491 13.136L6.98468 13.136L6.98444 13.136L6.98421 13.1361L6.98397 13.1361L6.98374 13.1361L6.98351 13.1362L6.98327 13.1362L6.98304 13.1362L6.98281 13.1363L6.98257 13.1363L6.98234 13.1363L6.9821 13.1364L6.98187 13.1364L6.98164 13.1365L6.9814 13.1365L6.98117 13.1365L6.98094 13.1366L6.9807 13.1366L6.98047 13.1366L6.98023 13.1367L6.98 13.1367L6.97977 13.1367L6.97953 13.1368L6.9793 13.1368L6.97907 13.1368L6.97883 13.1369L6.9786 13.1369L6.97836 13.137L6.97813 13.137L6.9779 13.137L6.97766 13.1371L6.97743 13.1371L6.9772 13.1371L6.97696 13.1372L6.97673 13.1372L6.97649 13.1372L6.97626 13.1373L6.97603 13.1373L6.97579 13.1373L6.97556 13.1374L6.97533 13.1374L6.97509 13.1375L6.97486 13.1375L6.97462 13.1375L6.97439 13.1376L6.97416 13.1376L6.97392 13.1376L6.97369 13.1377L6.97346 13.1377L6.97322 13.1377L6.97299 13.1378L6.97275 13.1378L6.97252 13.1379L6.97229 13.1379L6.97205 13.1379L6.97182 13.138L6.97159 13.138L6.97135 13.138L6.97112 13.1381L6.97088 13.1381L6.97065 13.1381L6.97042 13.1382L6.97018 13.1382L6.96995 13.1382L6.96972 13.1383L6.96948 13.1383L6.96925 13.1384L6.96901 13.1384L6.96878 13.1384L6.96855 13.1385L6.96831 13.1385L6.96808 13.1385L6.96785 13.1386L6.96761 13.1386L6.96738 13.1386L6.96714 13.1387L6.96691 13.1387L6.96668 13.1387L6.96644 13.1388L6.96621 13.1388L6.96598 13.1389L6.96574 13.1389L6.96551 13.1389L6.96527 13.139L6.96504 13.139L6.96481 13.139L6.96457 13.1391L6.96434 13.1391L6.96411 13.1391L6.96387 13.1392L6.96364 13.1392L6.9634 13.1392L6.96317 13.1393L6.96294 13.1393L6.9627 13.1394L6.96247 13.1394L6.96224 13.1394L6.962 13.1395L6.96177 13.1395L6.96153 13.1395L6.9613 13.1396L6.96107 13.1396L6.96083 13.1396L6.9606 13.1397L6.96037 13.1397L6.96013 13.1397L6.9599 13.1398L6.95966 13.1398L6.95943 13.1399L6.9592 13.1399L6.95896 13.1399L6.95873 13.14L6.9585 13.14L6.95826 13.14L6.95803 13.1401L6.95779 13.1401L6.95756 13.1401L6.95733 13.1402L6.95709 13.1402L6.95686 13.1403L6.95663 13.1403L6.95639 13.1403L6.95616 13.1404L6.95592 13.1404L6.95569 13.1404L6.95546 13.1405L6.95522 13.1405L6.95499 13.1405L6.95476 13.1406L6.95452 13.1406L6.95429 13.1406L6.95405 13.1407L6.95382 13.1407L6.95359 13.1408L6.95335 13.1408L6.95312 13.1408L6.95289 13.1409L6.95265 13.1409L6.95242 13.1409L6.95218 13.141L6.95195 13.141L6.95172 13.141L6.95148 13.1411L6.95125 13.1411L6.95102 13.1411L6.95078 13.1412L6.95055 13.1412L6.95031 13.1413L6.95008 13.1413L6.94985 13.1413L6.94961 13.1414L6.94938 13.1414L6.94915 13.1414L6.94891 13.1415L6.94868 13.1415L6.94844 13.1415L6.94821 13.1416L6.94798 13.1416L6.94774 13.1416L6.94751 13.1417L6.94728 13.1417L6.94704 13.1418L6.94681 13.1418L6.94657 13.1418L6.94634 13.1419L6.94611 13.1419L6.94587 13.1419L6.94564 13.142L6.94541 13.142L6.94517 13.142L6.94494 13.1421L6.9447 13.1421L6.94447 13.1421L6.94424 13.1422L6.944 13.1422L6.94377 13.1423L6.94354 13.1423L6.9433 13.1423L6.94307 13.1424L6.94283 13.1424L6.9426 13.1424L6.94237 13.1425L6.94213 13.1425L6.9419 13.1425L6.94167 13.1426L6.94143 13.1426L6.9412 13.1426L6.94096 13.1427L6.94073 13.1427L6.9405 13.1428L6.94026 13.1428L6.94003 13.1428L6.9398 13.1429L6.93956 13.1429L6.93933 13.1429L6.93909 13.143L6.93886 13.143L6.93863 13.143L6.93839 13.1431L6.93816 13.1431L6.93793 13.1432L6.93769 13.1432L6.93746 13.1432L6.93722 13.1433L6.93699 13.1433L6.93676 13.1433L6.93652 13.1434L6.93629 13.1434L6.93606 13.1434L6.93582 13.1435L6.93559 13.1435L6.93535 13.1435L6.93512 13.1436L6.93489 13.1436L6.93465 13.1437L6.93442 13.1437L6.93419 13.1437L6.93395 13.1438L6.93372 13.1438L6.93348 13.1438L6.93325 13.1439L6.93302 13.1439L6.93278 13.1439L6.93255 13.144L6.93232 13.144L6.93208 13.144L6.93185 13.1441L6.93161 13.1441L6.93138 13.1442L6.93115 13.1442L6.93091 13.1442L6.93068 13.1443L6.93045 13.1443L6.93021 13.1443L6.92998 13.1444L6.92975 13.1444L6.92951 13.1444L6.92928 13.1445L6.92904 13.1445L6.92881 13.1445L6.92858 13.1446L6.92834 13.1446L6.92811 13.1447L6.92787 13.1447L6.92764 13.1447L6.92741 13.1448L6.92717 13.1448L6.92694 13.1448L6.92671 13.1449L6.92647 13.1449L6.92624 13.1449L6.926 13.145L6.92577 13.145L6.92554 13.145L6.9253 13.1451L6.92507 13.1451L6.92484 13.1452L6.9246 13.1452L6.92437 13.1452L6.92413 13.1453L6.9239 13.1453L6.92367 13.1453L6.92343 13.1454L6.9232 13.1454L6.92297 13.1454L6.92273 13.1455L6.9225 13.1455L6.92226 13.1456L6.92203 13.1456L6.9218 13.1456L6.92156 13.1457L6.92133 13.1457L6.9211 13.1457L6.92086 13.1458L6.92063 13.1458L6.9204 13.1458L6.92016 13.1459L6.91993 13.1459L6.91969 13.1459L6.91946 13.146L6.91923 13.146L6.91899 13.1461L6.91876 13.1461L6.91852 13.1461L6.91829 13.1462L6.91806 13.1462L6.91782 13.1462L6.91759 13.1463L6.91736 13.1463L6.91712 13.1463L6.91689 13.1464L6.91666 13.1464L6.91642 13.1464L6.91619 13.1465L6.91595 13.1465L6.91572 13.1466L6.91549 13.1466L6.91525 13.1466L6.91502 13.1467L6.91478 13.1467L6.91455 13.1467L6.91432 13.1468L6.91408 13.1468L6.91385 13.1468L6.91362 13.1469L6.91338 13.1469L6.91315 13.1469L6.91292 13.147L6.91268 13.147L6.91245 13.1471L6.91221 13.1471L6.91198 13.1471L6.91175 13.1472L6.91151 13.1472L6.91128 13.1472L6.91105 13.1473L6.91081 13.1473L6.91058 13.1473L6.91034 13.1474L6.91011 13.1474L6.90988 13.1474L6.90964 13.1475L6.90941 13.1475L6.90917 13.1476L6.90894 13.1476L6.90871 13.1476L6.90847 13.1477L6.90824 13.1477L6.90801 13.1477L6.90777 13.1478L6.90754 13.1478L6.90731 13.1478L6.90707 13.1479L6.90684 13.1479L6.9066 13.148L6.90637 13.148L6.90614 13.148L6.9059 13.1481L6.90567 13.1481L6.90543 13.1481L6.9052 13.1482L6.90497 13.1482L6.90473 13.1482L6.9045 13.1483L6.90427 13.1483L6.90403 13.1483L6.9038 13.1484L6.90357 13.1484L6.90333 13.1485L6.9031 13.1485L6.90286 13.1485L6.90263 13.1486L6.9024 13.1486L6.90216 13.1486L6.90193 13.1487L6.9017 13.1487L6.90146 13.1487L6.90123 13.1488L6.90099 13.1488L6.90076 13.1488L6.90053 13.1489L6.90029 13.1489L6.90006 13.149L6.89983 13.149L6.89959 13.149L6.89936 13.1491L6.89912 13.1491L6.89889 13.1491L6.89866 13.1492L6.89842 13.1492L6.89819 13.1492L6.89796 13.1493L6.89772 13.1493L6.89749 13.1493L6.89725 13.1494L6.89702 13.1494L6.89679 13.1495L6.89655 13.1495L6.89632 13.1495L6.89609 13.1496L6.89585 13.1496L6.89562 13.1496L6.89538 13.1497L6.89515 13.1497L6.89492 13.1497L6.89468 13.1498L6.89445 13.1498L6.89422 13.1498L6.89398 13.1499L6.89375 13.1499L6.89351 13.15L6.89328 13.15L6.89305 13.15L6.89281 13.1501L6.89258 13.1501L6.89235 13.1501L6.89211 13.1502L6.89188 13.1502L6.89164 13.1502L6.89141 13.1503L6.89118 13.1503L6.89094 13.1504L6.89071 13.1504L6.89048 13.1504L6.89024 13.1505L6.89001 13.1505L6.88977 13.1505L6.88954 13.1506L6.88931 13.1506L6.88907 13.1506L6.88884 13.1507L6.88861 13.1507L6.88837 13.1507L6.88814 13.1508L6.8879 13.1508L6.88767 13.1509L6.87718 13.1525L6.86825 13.1582C6.20815 13.5815 5.43235 13.7814 4.6648 13.778L2.57569 13.7307L2.52523 13.7295L2.52457 13.78L2.52135 14.0255L2.5207 14.075L2.57021 14.0761L4.65978 14.1234L4.65978 14.1234L4.66068 14.1234C5.41194 14.1268 6.14359 13.9821 6.77168 13.6265L6.70564 15.7516Z" fill="#BEBEBE" stroke="#BEBEBE" stroke-width="0.1"/>
<path d="M8.64816 19.311L8.7619 19.2936L8.67155 19.2223C8.02842 18.7151 7.51988 18.0265 7.27513 17.218L7.27278 17.2103L7.2681 17.2037C7.24072 17.165 7.21113 17.131 7.17366 17.1094C7.1342 17.0866 7.0909 17.0804 7.04179 17.0879L7.03013 17.0897L7.02049 17.0965C6.9818 17.1239 6.94781 17.1534 6.92622 17.1909C6.90349 17.2304 6.89719 17.2737 6.90472 17.3228L6.90416 17.3229L6.90639 17.33C7.15139 18.1194 7.62602 18.7898 8.20168 19.3196L8.21937 19.3359L8.24312 19.3323C8.31886 19.3207 8.38692 19.3199 8.453 19.3199C8.45797 19.3199 8.46295 19.3199 8.46793 19.32C8.52801 19.3201 8.58863 19.3202 8.64816 19.311Z" fill="#BEBEBE" stroke="#BEBEBE" stroke-width="0.1"/>
<path d="M6.40085 15.7759L6.40086 15.7757L6.43238 14.3826L6.43316 14.3826L6.43182 14.3739L6.43153 14.372C6.42533 14.3315 6.4165 14.2737 6.35376 14.2276C6.29102 14.1816 6.23325 14.1904 6.1927 14.1966L6.1908 14.1969L6.19071 14.1964L6.18337 14.1987C5.68229 14.3563 5.16887 14.435 4.60305 14.4409L2.55428 14.3875L2.4945 14.3859L2.50356 14.445L2.50363 14.4455L2.5037 14.446L2.50377 14.4464L2.50384 14.4469L2.50391 14.4474L2.50399 14.4478L2.50406 14.4483L2.50413 14.4488L2.5042 14.4493L2.50427 14.4497L2.50434 14.4502L2.50442 14.4507L2.50449 14.4511L2.50456 14.4516L2.50463 14.4521L2.5047 14.4525L2.50477 14.453L2.50485 14.4535L2.50492 14.4539L2.50499 14.4544L2.50506 14.4549L2.50513 14.4553L2.5052 14.4558L2.50528 14.4563L2.50535 14.4567L2.50542 14.4572L2.50549 14.4577L2.50556 14.4581L2.50563 14.4586L2.50571 14.4591L2.50578 14.4595L2.50585 14.46L2.50592 14.4605L2.50599 14.4609L2.50606 14.4614L2.50614 14.4619L2.50621 14.4624L2.50628 14.4628L2.50635 14.4633L2.50642 14.4638L2.5065 14.4642L2.50657 14.4647L2.50664 14.4652L2.50671 14.4656L2.50678 14.4661L2.50685 14.4666L2.50693 14.467L2.507 14.4675L2.50707 14.468L2.50714 14.4685L2.50721 14.4689L2.50729 14.4694L2.50736 14.4699L2.50743 14.4703L2.5075 14.4708L2.50757 14.4713L2.50765 14.4717L2.50772 14.4722L2.50779 14.4727L2.50786 14.4732L2.50794 14.4736L2.50801 14.4741L2.50808 14.4746L2.50815 14.475L2.50822 14.4755L2.5083 14.476L2.50837 14.4765L2.50844 14.4769L2.50851 14.4774L2.50859 14.4779L2.50866 14.4783L2.50873 14.4788L2.5088 14.4793L2.50887 14.4798L2.50895 14.4802L2.50902 14.4807L2.50909 14.4812L2.50916 14.4816L2.50924 14.4821L2.50931 14.4826L2.50938 14.4831L2.50945 14.4835L2.50953 14.484L2.5096 14.4845L2.50967 14.485L2.50974 14.4854L2.50982 14.4859L2.50989 14.4864L2.50996 14.4869L2.51004 14.4873L2.51011 14.4878L2.51018 14.4883L2.51025 14.4888L2.51033 14.4892L2.5104 14.4897L2.51047 14.4902L2.51055 14.4907L2.51062 14.4911L2.51069 14.4916L2.51076 14.4921L2.51084 14.4926L2.51091 14.493L2.51098 14.4935L2.51106 14.494L2.51113 14.4945L2.5112 14.495L2.51128 14.4954L2.51135 14.4959L2.51142 14.4964L2.5115 14.4969L2.51157 14.4973L2.51164 14.4978L2.51172 14.4983L2.51179 14.4988L2.51186 14.4993L2.51194 14.4997L2.51201 14.5002L2.51208 14.5007L2.51216 14.5012L2.51223 14.5017L2.5123 14.5021L2.51238 14.5026L2.51245 14.5031L2.51252 14.5036L2.5126 14.5041L2.51267 14.5045L2.51275 14.505L2.51282 14.5055L2.51289 14.506L2.51297 14.5065L2.51304 14.507L2.51312 14.5074L2.51319 14.5079L2.51326 14.5084L2.51334 14.5089L2.51341 14.5094L2.51349 14.5099L2.51356 14.5103L2.51363 14.5108L2.51371 14.5113L2.51378 14.5118L2.51386 14.5123L2.51393 14.5128L2.51401 14.5132L2.51408 14.5137L2.51416 14.5142L2.51423 14.5147L2.5143 14.5152L2.51438 14.5157L2.51445 14.5162L2.51453 14.5167L2.5146 14.5171L2.51468 14.5176L2.51475 14.5181L2.51483 14.5186L2.5149 14.5191L2.51498 14.5196L2.51505 14.5201L2.51513 14.5206L2.5152 14.5211L2.51528 14.5215L2.51535 14.522L2.51543 14.5225L2.5155 14.523L2.51558 14.5235L2.51565 14.524L2.51573 14.5245L2.51581 14.525L2.51588 14.5255L2.51596 14.526L2.51603 14.5265L2.51611 14.527L2.51618 14.5275L2.51626 14.528L2.51634 14.5284L2.51641 14.5289L2.51649 14.5294L2.51656 14.5299L2.51664 14.5304L2.51671 14.5309L2.51679 14.5314L2.51687 14.5319L2.51694 14.5324L2.51702 14.5329L2.5171 14.5334L2.51717 14.5339L2.51725 14.5344L2.51732 14.5349L2.5174 14.5354L2.51748 14.5359L2.51755 14.5364L2.51763 14.5369L2.51771 14.5374L2.51778 14.5379L2.51786 14.5384L2.51794 14.5389L2.51802 14.5394L2.51809 14.5399L2.51817 14.5404L2.51825 14.5409L2.51832 14.5414L2.5184 14.5419L2.51848 14.5424L2.51856 14.5429L2.51863 14.5434L2.51871 14.5439L2.51879 14.5445L2.51886 14.545L2.51894 14.5455L2.51902 14.546L2.5191 14.5465L2.51918 14.547L2.51925 14.5475L2.51933 14.548L2.51941 14.5485L2.51949 14.549L2.51957 14.5495L2.51964 14.55L2.51972 14.5505L2.5198 14.5511L2.51988 14.5516L2.51996 14.5521L2.52003 14.5526L2.52011 14.5531L2.52019 14.5536L2.52027 14.5541L2.52035 14.5546L2.52043 14.5552L2.52051 14.5557L2.52059 14.5562L2.52066 14.5567L2.52074 14.5572L2.52082 14.5577L2.5209 14.5582L2.52098 14.5588L2.52106 14.5593L2.52114 14.5598L2.52122 14.5603L2.5213 14.5608L2.52138 14.5614L2.52146 14.5619L2.52154 14.5624L2.52162 14.5629L2.5217 14.5634L2.52178 14.564L2.52186 14.5645L2.52194 14.565L2.52202 14.5655L2.5221 14.566L2.52218 14.5666L2.52226 14.5671L2.52234 14.5676L2.52242 14.5681L2.5225 14.5687L2.52258 14.5692L2.52266 14.5697L2.52274 14.5702L2.52282 14.5708L2.5229 14.5713L2.52298 14.5718L2.52306 14.5723L2.52314 14.5729L2.52322 14.5734L2.5233 14.5739L2.52339 14.5745L2.52347 14.575L2.52355 14.5755L2.52363 14.5761L2.52371 14.5766L2.52379 14.5771L2.52387 14.5776L2.52396 14.5782L2.52404 14.5787L2.52412 14.5793L2.5242 14.5798L2.52428 14.5803L2.52437 14.5809L2.52445 14.5814L2.52453 14.5819L2.52461 14.5825L2.52469 14.583L2.52478 14.5835L2.52486 14.5841L2.52494 14.5846L2.52503 14.5852L2.52511 14.5857L2.52519 14.5862L2.52527 14.5868L2.52536 14.5873L2.52544 14.5879L2.52552 14.5884L2.52561 14.589L2.52569 14.5895L2.52577 14.59L2.52586 14.5906L2.52594 14.5911L2.52602 14.5917L2.52611 14.5922L2.52619 14.5928L2.52627 14.5933L2.52636 14.5939L2.52644 14.5944L2.52653 14.595L2.52661 14.5955L2.5267 14.5961L2.52678 14.5966L2.52686 14.5972L2.52695 14.5977L2.52703 14.5983L2.52712 14.5988L2.5272 14.5994L2.52729 14.5999L2.52737 14.6005L2.52746 14.601L2.52754 14.6016L2.52763 14.6022L2.52771 14.6027L2.5278 14.6033L2.52788 14.6038L2.52797 14.6044L2.52806 14.6049L2.52814 14.6055L2.52823 14.6061L2.52831 14.6066L2.5284 14.6072L2.52849 14.6077L2.52857 14.6083L2.52866 14.6089L2.52874 14.6094L2.52883 14.61L2.52892 14.6106L2.529 14.6111L2.52909 14.6117L2.52918 14.6123L2.52926 14.6128L2.52935 14.6134L2.52944 14.614L2.52953 14.6145L2.52961 14.6151L2.5297 14.6157L2.52979 14.6162L2.52988 14.6168L2.52996 14.6174L2.53005 14.618L2.53014 14.6185L2.53023 14.6191L2.53031 14.6197L2.5304 14.6203L2.53049 14.6208L2.53058 14.6214L2.53067 14.622L2.53076 14.6226L2.53085 14.6231L2.53093 14.6237L2.53102 14.6243L2.53111 14.6249L2.5312 14.6255L2.53129 14.626L2.53138 14.6266L2.53147 14.6272L2.53156 14.6278L2.53165 14.6284L2.53174 14.629L2.53183 14.6295L2.53192 14.6301L2.53201 14.6307L2.5321 14.6313L2.53219 14.6319L2.53228 14.6325L2.53237 14.6331L2.53246 14.6337L2.53255 14.6343L2.53264 14.6348L2.53273 14.6354L2.53282 14.636L2.53291 14.6366L2.533 14.6372L2.53309 14.6378L2.53318 14.6384L2.53327 14.639L2.53337 14.6396L2.53346 14.6402L2.53355 14.6408L2.53364 14.6414L2.53373 14.642L2.53382 14.6426L2.53392 14.6432L2.53401 14.6438L2.5341 14.6444L2.53419 14.645L2.53429 14.6456L2.53438 14.6462L2.53447 14.6468L2.53456 14.6474L2.53466 14.648L2.53475 14.6486L2.53484 14.6492L2.53494 14.6498L2.53503 14.6505L2.53512 14.6511L2.53522 14.6517L2.53531 14.6523L2.5354 14.6529L2.5355 14.6535L2.53559 14.6541L2.53569 14.6547L2.53578 14.6554L2.53587 14.656L2.53597 14.6566L2.53606 14.6572L2.53616 14.6578L2.53625 14.6584L2.53635 14.6591L2.53644 14.6597L2.53654 14.6603L2.53663 14.6609L2.53673 14.6615L2.53682 14.6622L2.53692 14.6628L2.53702 14.6634L2.53711 14.664L2.53721 14.6647L2.5373 14.6653L2.5374 14.6659L2.5375 14.6665L2.53759 14.6672L2.53769 14.6678L2.53778 14.6684L2.53788 14.6691L2.53798 14.6697L2.53808 14.6703L2.53817 14.671L2.53827 14.6716L2.53837 14.6722L2.53846 14.6729L2.53856 14.6735L2.53866 14.6741L2.53876 14.6748L2.53886 14.6754L2.53895 14.6761L2.53905 14.6767L2.53915 14.6773L2.53925 14.678L2.53935 14.6786L2.53945 14.6793L2.53954 14.6799L2.53964 14.6806L2.53974 14.6812L2.53984 14.6819L2.53994 14.6825L2.54004 14.6831L2.54014 14.6838L2.54024 14.6844L2.54034 14.6851L2.54044 14.6858L2.54054 14.6864L2.54064 14.6871L2.54074 14.6877L2.54084 14.6884L2.54094 14.689L2.54104 14.6897L2.54114 14.6903L2.54124 14.691L2.54134 14.6917L2.54144 14.6923L2.54155 14.693L2.54165 14.6936L2.54175 14.6943L2.54185 14.695L2.54195 14.6956L2.54205 14.6963L2.54216 14.697L2.54226 14.6976L2.54236 14.6983L2.54246 14.699L2.54256 14.6996L2.54267 14.7003L2.54277 14.701L2.54287 14.7016L2.54298 14.7023L2.54308 14.703L2.54318 14.7037L2.54329 14.7043L2.54339 14.705L2.54349 14.7057L2.5436 14.7064L2.5437 14.707L2.54381 14.7077L2.54391 14.7084L2.54401 14.7091L2.54412 14.7098L2.54422 14.7104L2.54433 14.7111L2.54443 14.7118L2.54454 14.7125L2.54464 14.7132L2.54475 14.7139L2.54485 14.7146L2.54496 14.7153L2.54506 14.7159L2.54517 14.7166L2.54528 14.7173L2.54538 14.718L2.54549 14.7187L2.5456 14.7194L2.5457 14.7201L2.54581 14.7208L2.54592 14.7215L2.54602 14.7222L2.54613 14.7229L2.54624 14.7236L2.54634 14.7243L2.55268 14.7656L2.59447 14.7667L4.64414 14.8201L4.64414 14.8201L4.64478 14.8201C5.1179 14.8263 5.61611 14.7537 6.07019 14.6128L6.04931 15.73C6.0493 15.7301 6.0493 15.7302 6.0493 15.7303C6.01136 17.0964 6.48487 18.3026 7.33028 19.2452L7.34191 19.2581L7.35906 19.2611C7.42584 19.2725 7.49051 19.2733 7.55087 19.2741L7.55248 19.2742C7.6144 19.275 7.6719 19.2758 7.73032 19.2858L7.88987 19.3132L7.77354 19.2006C6.87292 18.3293 6.3636 17.1152 6.40085 15.7759Z" fill="#BEBEBE" stroke="#BEBEBE" stroke-width="0.1"/>
<path d="M6.77575 19.263L6.83679 19.1875C6.12644 18.2453 5.7405 17.05 5.74433 15.7529L5.74433 15.7528L5.74465 15.2219L5.74524 15.2219L5.74407 15.2143L5.74378 15.2124C5.73758 15.1719 5.72875 15.1141 5.66601 15.068C5.66463 15.067 5.66324 15.066 5.66183 15.0649C5.64302 15.051 5.62235 15.0358 5.59464 15.031C5.58029 15.0286 5.5662 15.0291 5.55251 15.0305C5.53925 15.0318 5.52319 15.0343 5.50432 15.0371L5.50305 15.0373C5.18788 15.0856 4.86587 15.0947 4.58102 15.0976L2.65781 15.0657L2.59859 15.0647L2.60756 15.1233L2.60763 15.1238L2.6077 15.1242L2.60777 15.1247L2.60785 15.1252L2.60792 15.1256L2.60799 15.1261L2.60806 15.1266L2.60813 15.127L2.6082 15.1275L2.60828 15.128L2.60835 15.1284L2.60842 15.1289L2.60849 15.1294L2.60856 15.1298L2.60863 15.1303L2.60871 15.1308L2.60878 15.1312L2.60885 15.1317L2.60892 15.1322L2.60899 15.1326L2.60906 15.1331L2.60914 15.1336L2.60921 15.1341L2.60928 15.1345L2.60935 15.135L2.60942 15.1355L2.60949 15.1359L2.60957 15.1364L2.60964 15.1369L2.60971 15.1373L2.60978 15.1378L2.60985 15.1383L2.60992 15.1387L2.61 15.1392L2.61007 15.1397L2.61014 15.1401L2.61021 15.1406L2.61028 15.1411L2.61036 15.1415L2.61043 15.142L2.6105 15.1425L2.61057 15.143L2.61064 15.1434L2.61071 15.1439L2.61079 15.1444L2.61086 15.1448L2.61093 15.1453L2.611 15.1458L2.61107 15.1462L2.61115 15.1467L2.61122 15.1472L2.61129 15.1476L2.61136 15.1481L2.61143 15.1486L2.61151 15.1491L2.61158 15.1495L2.61165 15.15L2.61172 15.1505L2.61179 15.1509L2.61187 15.1514L2.61194 15.1519L2.61201 15.1524L2.61208 15.1528L2.61216 15.1533L2.61223 15.1538L2.6123 15.1542L2.61237 15.1547L2.61244 15.1552L2.61252 15.1557L2.61259 15.1561L2.61266 15.1566L2.61273 15.1571L2.61281 15.1575L2.61288 15.158L2.61295 15.1585L2.61302 15.159L2.6131 15.1594L2.61317 15.1599L2.61324 15.1604L2.61331 15.1608L2.61339 15.1613L2.61346 15.1618L2.61353 15.1623L2.6136 15.1627L2.61368 15.1632L2.61375 15.1637L2.61382 15.1642L2.61389 15.1646L2.61397 15.1651L2.61404 15.1656L2.61411 15.1661L2.61418 15.1665L2.61426 15.167L2.61433 15.1675L2.6144 15.168L2.61448 15.1684L2.61455 15.1689L2.61462 15.1694L2.6147 15.1699L2.61477 15.1703L2.61484 15.1708L2.61491 15.1713L2.61499 15.1718L2.61506 15.1722L2.61513 15.1727L2.61521 15.1732L2.61528 15.1737L2.61535 15.1742L2.61543 15.1746L2.6155 15.1751L2.61557 15.1756L2.61565 15.1761L2.61572 15.1766L2.61579 15.177L2.61587 15.1775L2.61594 15.178L2.61601 15.1785L2.61609 15.1789L2.61616 15.1794L2.61623 15.1799L2.61631 15.1804L2.61638 15.1809L2.61645 15.1814L2.61653 15.1818L2.6166 15.1823L2.61668 15.1828L2.61675 15.1833L2.61682 15.1838L2.6169 15.1842L2.61697 15.1847L2.61705 15.1852L2.61712 15.1857L2.61719 15.1862L2.61727 15.1867L2.61734 15.1871L2.61742 15.1876L2.61749 15.1881L2.61756 15.1886L2.61764 15.1891L2.61771 15.1896L2.61779 15.19L2.61786 15.1905L2.61794 15.191L2.61801 15.1915L2.61808 15.192L2.61816 15.1925L2.61823 15.193L2.61831 15.1934L2.61838 15.1939L2.61846 15.1944L2.61853 15.1949L2.61861 15.1954L2.61868 15.1959L2.61876 15.1964L2.61883 15.1969L2.61891 15.1974L2.61898 15.1978L2.61906 15.1983L2.61913 15.1988L2.61921 15.1993L2.61928 15.1998L2.61936 15.2003L2.61943 15.2008L2.61951 15.2013L2.61958 15.2018L2.61966 15.2023L2.61973 15.2028L2.61981 15.2032L2.61989 15.2037L2.61996 15.2042L2.62004 15.2047L2.62011 15.2052L2.62019 15.2057L2.62026 15.2062L2.62034 15.2067L2.62041 15.2072L2.62049 15.2077L2.62057 15.2082L2.62064 15.2087L2.62072 15.2092L2.62079 15.2097L2.62087 15.2102L2.62095 15.2107L2.62102 15.2112L2.6211 15.2117L2.62118 15.2122L2.62125 15.2127L2.62133 15.2132L2.62141 15.2137L2.62148 15.2142L2.62156 15.2147L2.62164 15.2152L2.62171 15.2157L2.62179 15.2162L2.62187 15.2167L2.62194 15.2172L2.62202 15.2177L2.6221 15.2182L2.62217 15.2187L2.62225 15.2192L2.62233 15.2197L2.6224 15.2202L2.62248 15.2207L2.62256 15.2212L2.62264 15.2217L2.62271 15.2222L2.62279 15.2227L2.62287 15.2232L2.62295 15.2237L2.62302 15.2242L2.6231 15.2247L2.62318 15.2252L2.62326 15.2257L2.62334 15.2263L2.62341 15.2268L2.62349 15.2273L2.62357 15.2278L2.62365 15.2283L2.62373 15.2288L2.6238 15.2293L2.62388 15.2298L2.62396 15.2303L2.62404 15.2308L2.62412 15.2314L2.6242 15.2319L2.62427 15.2324L2.62435 15.2329L2.62443 15.2334L2.62451 15.2339L2.62459 15.2344L2.62467 15.235L2.62475 15.2355L2.62483 15.236L2.6249 15.2365L2.62498 15.237L2.62506 15.2375L2.62514 15.238L2.62522 15.2386L2.6253 15.2391L2.62538 15.2396L2.62546 15.2401L2.62554 15.2406L2.62562 15.2412L2.6257 15.2417L2.62578 15.2422L2.62586 15.2427L2.62594 15.2432L2.62602 15.2438L2.6261 15.2443L2.62618 15.2448L2.62626 15.2453L2.62634 15.2459L2.62642 15.2464L2.6265 15.2469L2.62658 15.2474L2.62666 15.248L2.62674 15.2485L2.62682 15.249L2.6269 15.2495L2.62698 15.2501L2.62707 15.2506L2.62715 15.2511L2.62723 15.2517L2.62731 15.2522L2.62739 15.2527L2.62747 15.2532L2.62755 15.2538L2.62763 15.2543L2.62772 15.2548L2.6278 15.2554L2.62788 15.2559L2.62796 15.2564L2.62804 15.257L2.62812 15.2575L2.62821 15.258L2.62829 15.2586L2.62837 15.2591L2.62845 15.2596L2.62853 15.2602L2.62862 15.2607L2.6287 15.2613L2.62878 15.2618L2.62886 15.2623L2.62895 15.2629L2.62903 15.2634L2.62911 15.264L2.62919 15.2645L2.62928 15.265L2.62936 15.2656L2.62944 15.2661L2.62953 15.2667L2.62961 15.2672L2.62969 15.2677L2.62978 15.2683L2.62986 15.2688L2.62994 15.2694L2.63003 15.2699L2.63011 15.2705L2.63019 15.271L2.63028 15.2716L2.63036 15.2721L2.63045 15.2727L2.63053 15.2732L2.63062 15.2738L2.6307 15.2743L2.63078 15.2749L2.63087 15.2754L2.63095 15.276L2.63104 15.2765L2.63112 15.2771L2.63121 15.2776L2.63129 15.2782L2.63138 15.2787L2.63146 15.2793L2.63155 15.2798L2.63163 15.2804L2.63172 15.281L2.6318 15.2815L2.63189 15.2821L2.63197 15.2826L2.63206 15.2832L2.63215 15.2838L2.63223 15.2843L2.63232 15.2849L2.6324 15.2854L2.63249 15.286L2.63258 15.2866L2.63266 15.2871L2.63275 15.2877L2.63283 15.2883L2.63292 15.2888L2.63301 15.2894L2.63309 15.2899L2.63318 15.2905L2.63327 15.2911L2.63336 15.2916L2.63344 15.2922L2.63353 15.2928L2.63362 15.2934L2.6337 15.2939L2.63379 15.2945L2.63388 15.2951L2.63397 15.2956L2.63405 15.2962L2.63414 15.2968L2.63423 15.2974L2.63432 15.2979L2.63441 15.2985L2.6345 15.2991L2.63458 15.2997L2.63467 15.3002L2.63476 15.3008L2.63485 15.3014L2.63494 15.302L2.63503 15.3026L2.63512 15.3031L2.6352 15.3037L2.63529 15.3043L2.63538 15.3049L2.63547 15.3055L2.63556 15.306L2.63565 15.3066L2.63574 15.3072L2.63583 15.3078L2.63592 15.3084L2.63601 15.309L2.6361 15.3096L2.63619 15.3101L2.63628 15.3107L2.63637 15.3113L2.63646 15.3119L2.63655 15.3125L2.63664 15.3131L2.63673 15.3137L2.63682 15.3143L2.63691 15.3149L2.63701 15.3155L2.6371 15.3161L2.63719 15.3167L2.63728 15.3173L2.63737 15.3179L2.63746 15.3184L2.63755 15.319L2.63765 15.3196L2.63774 15.3202L2.63783 15.3208L2.63792 15.3214L2.63801 15.322L2.63811 15.3226L2.6382 15.3233L2.63829 15.3239L2.63838 15.3245L2.63848 15.3251L2.63857 15.3257L2.63866 15.3263L2.63875 15.3269L2.63885 15.3275L2.63894 15.3281L2.63903 15.3287L2.63913 15.3293L2.63922 15.3299L2.63931 15.3305L2.63941 15.3312L2.6395 15.3318L2.6396 15.3324L2.63969 15.333L2.63978 15.3336L2.63988 15.3342L2.63997 15.3348L2.64007 15.3355L2.64016 15.3361L2.64026 15.3367L2.64035 15.3373L2.64045 15.3379L2.64054 15.3386L2.64064 15.3392L2.64073 15.3398L2.64083 15.3404L2.64092 15.341L2.64102 15.3417L2.64112 15.3423L2.64121 15.3429L2.64131 15.3435L2.6414 15.3442L2.6415 15.3448L2.6416 15.3454L2.64169 15.3461L2.64179 15.3467L2.64189 15.3473L2.64198 15.348L2.64208 15.3486L2.64218 15.3492L2.64227 15.3499L2.64237 15.3505L2.64247 15.3511L2.64257 15.3518L2.64266 15.3524L2.64276 15.353L2.64286 15.3537L2.64296 15.3543L2.64306 15.355L2.64315 15.3556L2.64325 15.3562L2.64335 15.3569L2.64345 15.3575L2.64355 15.3582L2.64365 15.3588L2.64375 15.3595L2.64385 15.3601L2.64394 15.3608L2.64404 15.3614L2.64414 15.3621L2.64424 15.3627L2.64434 15.3634L2.64444 15.364L2.64454 15.3647L2.64464 15.3653L2.64474 15.366L2.64484 15.3666L2.64494 15.3673L2.64504 15.3679L2.64514 15.3686L2.64525 15.3692L2.64535 15.3699L2.64545 15.3706L2.64555 15.3712L2.64565 15.3719L2.64575 15.3726L2.64585 15.3732L2.64596 15.3739L2.64606 15.3745L2.64616 15.3752L2.64626 15.3759L2.64636 15.3765L2.64647 15.3772L2.64657 15.3779L2.64667 15.3785L2.64677 15.3792L2.64688 15.3799L2.64698 15.3806L2.64708 15.3812L2.64719 15.3819L2.64729 15.3826L2.64739 15.3833L2.6475 15.3839L2.6476 15.3846L2.6477 15.3853L2.64781 15.386L2.64791 15.3867L2.64802 15.3873L2.64812 15.388L2.64823 15.3887L2.64833 15.3894L2.64844 15.3901L2.64854 15.3908L2.64865 15.3914L2.64875 15.3921L2.64886 15.3928L2.64896 15.3935L2.64907 15.3942L2.64917 15.3949L2.64928 15.3956L2.64939 15.3963L2.64949 15.397L2.6496 15.3977L2.64971 15.3984L2.64981 15.3991L2.64992 15.3997L2.65003 15.4004L2.65013 15.4011L2.65024 15.4018L2.65035 15.4025L2.65672 15.4441L2.69876 15.445L4.58275 15.4829L4.58275 15.4829L4.58426 15.4829L4.58602 15.4829C4.8496 15.4802 5.11676 15.4775 5.37974 15.4426L5.35908 15.7523L5.359 15.7523L5.35897 15.755C5.34276 16.992 5.6884 18.1742 6.33178 19.1468L6.34499 19.1667L6.36884 19.169C6.53261 19.1842 6.65163 19.2051 6.77575 19.263Z" fill="#BEBEBE" stroke="#BEBEBE" stroke-width="0.1"/>
<path d="M5.07787 15.936L5.07842 15.9359L5.0773 15.9286C5.07714 15.9276 5.07699 15.9266 5.07682 15.9255C5.07419 15.9081 5.07008 15.881 5.05897 15.8593C5.05239 15.8465 5.0417 15.8319 5.02423 15.8222C5.00653 15.8123 4.98722 15.8103 4.96892 15.813C4.96882 15.8129 4.9687 15.8129 4.96858 15.8128L4.9624 15.8084C4.96206 15.8081 4.96172 15.8079 4.96136 15.8076C4.94883 15.7984 4.92281 15.7792 4.88228 15.7854C4.82793 15.7938 4.78112 15.7918 4.72949 15.7894L4.72812 15.7894C4.67855 15.7871 4.62444 15.7846 4.56169 15.7937L2.80189 15.7376L2.74176 15.7357L2.75087 15.7951C2.75774 15.84 2.77676 15.8922 2.79351 15.9381C2.7939 15.9392 2.79428 15.9402 2.79466 15.9413C2.81286 15.9912 2.82835 16.0344 2.83355 16.0683L2.83997 16.1101L2.88232 16.1107L4.60062 16.1332L4.60061 16.1339L4.60885 16.1326C4.64971 16.1264 4.67535 16.1226 4.70112 16.1229C4.71796 16.1231 4.73571 16.1252 4.75798 16.1306C4.78963 17.0991 5.01114 17.9991 5.41738 18.7914L5.42521 18.8067L5.44076 18.8139L5.83648 18.9983L5.98617 19.068L5.9003 18.927C5.35967 18.0389 5.0833 17.029 5.07787 15.936Z" fill="#BEBEBE" stroke="#BEBEBE" stroke-width="0.1"/>
<path d="M4.47928 16.5543L4.47938 16.5543L4.47891 16.5512C4.47163 16.5037 4.45287 16.4608 4.4154 16.4333C4.37911 16.4067 4.3343 16.4011 4.28833 16.4074L3.10494 16.3853L3.00609 16.3834L3.06319 16.4641C3.11348 16.5352 3.16665 16.6413 3.17716 16.7098L3.18353 16.7514L3.22557 16.7523L4.12232 16.7703C4.16524 17.2821 4.27741 17.7449 4.42702 18.2007L4.43202 18.2159L4.44494 18.2254C4.49153 18.2596 4.53262 18.2938 4.57338 18.3278C4.59195 18.3433 4.61045 18.3587 4.62937 18.374C4.68853 18.4219 4.74985 18.4673 4.82146 18.5006L4.92904 18.5508L4.88976 18.4388C4.67362 17.8227 4.53682 17.1945 4.47928 16.5543Z" fill="#BEBEBE" stroke="#BEBEBE" stroke-width="0.1"/>
<path d="M3.48957 17.0207L3.37666 17.0156L3.44882 17.1026C3.49813 17.1621 3.54244 17.2213 3.58761 17.2817C3.61061 17.3125 3.63383 17.3436 3.65805 17.3751C3.72896 17.4675 3.80608 17.5606 3.90417 17.6508L3.98253 17.5912C3.9288 17.4865 3.9052 17.3362 3.88032 17.1738C3.87304 17.1263 3.85428 17.0834 3.81682 17.0559C3.78071 17.0294 3.73617 17.0237 3.69045 17.0298L3.48957 17.0207Z" fill="#BEBEBE" stroke="#BEBEBE" stroke-width="0.1"/>
<path d="M12.1966 12.9506L12.1966 12.951L12.1242 15.9426L12.1242 15.9432C12.1182 16.4046 11.7129 16.7769 11.2477 16.7708L11.2477 16.7702L11.2394 16.7714L11.2037 16.7769C10.7442 16.7685 10.3742 16.3645 10.3801 15.9007C10.3801 15.9006 10.3801 15.9005 10.3801 15.9004L10.6062 7.25134L10.6062 7.25116C10.6223 6.54065 10.3595 5.91488 9.90751 5.40309L9.90756 5.40305L9.90585 5.40129C9.41241 4.89475 8.78653 4.61566 8.07662 4.59959L8.07664 4.59882L8.06791 4.60016L8.03405 4.60535C7.8654 4.59036 7.74162 4.60932 7.58488 4.63334L7.58308 4.63362C6.32273 4.82674 5.40181 5.88341 5.38515 7.13529L5.28839 9.96535C5.25883 10.2758 5.03432 10.5299 4.69691 10.5074L4.69467 10.5073L2.35963 10.4568L2.30011 10.4555L2.30913 10.5144L2.33969 10.7138L2.34605 10.7553L2.38803 10.7563L4.72307 10.8068L4.72349 10.8068C5.24248 10.8136 5.65456 10.4047 5.66144 9.88671C5.66144 9.88665 5.66144 9.88659 5.66144 9.88653L5.71837 7.06145C5.71837 7.06136 5.71837 7.06127 5.71837 7.06118C5.7522 5.97688 6.53041 5.0594 7.62268 4.89204C7.74467 4.87334 7.89552 4.85075 8.01171 4.87066L8.0197 4.87203L8.02772 4.8708L8.0627 4.86544C8.6662 4.89397 9.21857 5.12892 9.59987 5.54647C9.98488 5.96809 10.2299 6.52951 10.2026 7.13098L10.2026 7.13194L9.97643 15.7813C9.97643 15.7814 9.97643 15.7814 9.97642 15.7815C9.95368 16.4665 10.5067 17.0195 11.1495 17.0487L11.1495 17.0497L11.1593 17.0482L11.1992 17.0421C11.2303 17.0373 11.2546 17.0412 11.286 17.0466L11.2875 17.0468C11.3187 17.0522 11.3569 17.0587 11.4048 17.0514C11.9877 16.9621 12.4219 16.4695 12.4574 15.8702L12.4574 15.8702L12.4574 15.8686L12.5359 12.9168L12.5359 12.9165C12.5544 11.9981 13.2649 11.1727 14.1578 11.0359C14.2388 11.0235 14.3072 11.0137 14.3803 11.0373L14.4573 11.0621L14.4451 10.9821L14.4023 10.7029L14.3529 10.7104L14.3048 10.7178C14.3053 10.7169 14.306 10.7158 14.3071 10.7149C14.3074 10.7147 14.3061 10.7158 14.3017 10.7173C14.2973 10.7189 14.2912 10.7203 14.2831 10.7216C14.2664 10.7241 14.2466 10.725 14.223 10.726L14.2216 10.726C14.1998 10.7269 14.1746 10.728 14.1519 10.7315C13.0509 10.9002 12.2318 11.8189 12.1966 12.9506Z" fill="#BEBEBE" stroke="#BEBEBE" stroke-width="0.1"/>
<path d="M11.2169 16.4648L11.2249 16.4662L14.1871 10.1639L14.181 10.1143C14.1807 10.1143 14.1805 10.1144 14.1803 10.1144C12.7546 10.2917 11.6116 11.5042 11.5856 12.9627C11.5856 12.9628 11.5856 12.9629 11.5856 12.963L11.5071 15.9143L11.5063 15.9143L11.5077 15.9232C11.5136 15.9618 11.4935 16.0126 11.4516 16.0542C11.4099 16.0955 11.3585 16.1157 11.3168 16.1086L11.3088 16.1072L11.3008 16.1084L11.2728 16.1127C11.2056 16.0896 11.167 16.0628 11.1268 16.0333C11.1059 16.0029 11.095 15.9805 11.0879 15.9588C11.0802 15.9352 11.0761 15.9106 11.0703 15.8724L11.1139 14.5638L11.1147 14.5638L11.1133 14.5546C11.1061 14.5073 11.0867 14.4591 11.0541 14.4233C11.0202 14.3862 10.9712 14.3624 10.9122 14.3715C10.865 14.3787 10.8167 14.398 10.7809 14.4307C10.7449 14.4636 10.7214 14.5108 10.7284 14.5676L10.6848 15.8752C10.6682 16.0578 10.7343 16.1843 10.8388 16.2987C10.9485 16.4189 11.0893 16.443 11.2119 16.464L11.2169 16.4648Z" fill="#BEBEBE" stroke="#BEBEBE" stroke-width="0.1"/>
<path d="M5.01066 9.91208L5.01112 9.91216L5.01135 9.90534L5.10817 7.07374C5.16008 6.10449 5.66504 5.2259 6.46401 4.70083C6.48445 4.69418 6.49992 4.68024 6.51041 4.66596C6.52319 4.64854 6.53129 4.62732 6.53504 4.60541C6.54212 4.56411 6.5348 4.51481 6.50616 4.46943C6.49429 4.41737 6.4587 4.37928 6.41145 4.36406C6.36234 4.34824 6.30673 4.35881 6.25937 4.39188C5.31573 4.99259 4.76402 5.98906 4.72289 7.07254L4.72288 7.07254L4.72286 7.07331L4.66094 9.8096L2.3358 9.76614L2.29284 9.76534L2.28559 9.80769C2.26266 9.94148 2.27587 10.0277 2.28831 10.1088L2.28834 10.1091L2.29472 10.1507L2.33683 10.1515L4.71176 10.1959L4.71174 10.1966L4.72027 10.1953C4.8086 10.1818 4.8764 10.1486 4.92511 10.0971C4.97345 10.046 4.9988 9.98133 5.01066 9.91208Z" fill="#BEBEBE" stroke="#BEBEBE" stroke-width="0.1"/>
<path d="M9.97983 5.0831L9.97959 5.08336L9.98442 5.08691C10.0472 5.13298 10.1049 5.12411 10.1455 5.11788L10.1474 5.11759L10.1476 5.11755L10.1478 5.11752L10.1481 5.11748L10.1483 5.11745L10.1485 5.11741L10.1488 5.11737L10.149 5.11734L10.1492 5.1173L10.1495 5.11727L10.1497 5.11723L10.15 5.1172L10.1502 5.11716L10.1504 5.11712L10.1507 5.11709L10.1509 5.11705L10.1511 5.11702L10.1514 5.11698L10.1516 5.11695L10.1518 5.11691L10.1521 5.11687L10.1523 5.11684L10.1525 5.1168L10.1528 5.11677L10.153 5.11673L10.1532 5.11669L10.1535 5.11666L10.1537 5.11662L10.1539 5.11659L10.1542 5.11655L10.1544 5.11652L10.1546 5.11648L10.1548 5.11644L10.1551 5.11641L10.1553 5.11637L10.1555 5.11634L10.1558 5.1163L10.156 5.11627L10.1562 5.11623L10.1565 5.1162L10.1567 5.11616L10.1569 5.11612L10.1572 5.11609L10.1574 5.11605L10.1576 5.11602L10.1579 5.11598L10.1581 5.11595L10.1583 5.11591L10.1586 5.11588L10.1588 5.11584L10.159 5.1158L10.1593 5.11577L10.1595 5.11573L10.1597 5.1157L10.16 5.11566L10.1602 5.11563L10.1604 5.11559L10.1606 5.11556L10.1609 5.11552L10.1611 5.11549L10.1613 5.11545L10.1616 5.11542L10.1618 5.11538L10.162 5.11534L10.1623 5.11531L10.1625 5.11527L10.1627 5.11524L10.163 5.1152L10.1632 5.11517L10.1634 5.11513L10.1636 5.1151L10.1639 5.11506L10.1641 5.11503L10.1643 5.11499L10.1646 5.11496L10.1648 5.11492L10.165 5.11489L10.1652 5.11485L10.1655 5.11482L10.1657 5.11478L10.1659 5.11475L10.1662 5.11471L10.1664 5.11468L10.1666 5.11464L10.1668 5.11461L10.1671 5.11457L10.1673 5.11454L10.1675 5.1145L10.1677 5.11447L10.168 5.11443L10.1682 5.1144L10.1684 5.11436L10.1687 5.11433L10.1689 5.1143L10.1691 5.11426L10.1693 5.11423L10.1696 5.11419L10.1698 5.11416L10.17 5.11412L10.1702 5.11409L10.1705 5.11405L10.1707 5.11402L10.1709 5.11398L10.1711 5.11395L10.1714 5.11392L10.1716 5.11388L10.1718 5.11385L10.172 5.11381L10.1723 5.11378L10.1725 5.11374L10.1727 5.11371L10.1729 5.11368L10.1731 5.11364L10.1734 5.11361L10.1736 5.11357L10.1738 5.11354L10.174 5.11351L10.1743 5.11347L10.1745 5.11344L10.1747 5.1134L10.1749 5.11337L10.1751 5.11334L10.1754 5.1133L10.1756 5.11327L10.1758 5.11324L10.176 5.1132L10.1762 5.11317L10.1765 5.11313L10.1767 5.1131L10.1769 5.11307L10.1771 5.11303L10.1773 5.113L10.1776 5.11297L10.1778 5.11293L10.178 5.1129L10.1782 5.11287L10.1784 5.11283L10.1786 5.1128L10.1789 5.11277L10.1791 5.11273L10.1793 5.1127L10.1795 5.11267L10.1797 5.11263L10.1799 5.1126L10.1802 5.11257L10.1804 5.11254L10.1806 5.1125L10.1808 5.11247L10.181 5.11244L10.1812 5.1124L10.1814 5.11237L10.1817 5.11234L10.1819 5.11231L10.1821 5.11227L10.1823 5.11224L10.1825 5.11221L10.1827 5.11218L10.1829 5.11214L10.1831 5.11211L10.1834 5.11208L10.1836 5.11205L10.1838 5.11201L10.184 5.11198L10.1842 5.11195L10.1844 5.11192L10.1846 5.11188L10.1848 5.11185L10.185 5.11182L10.1852 5.11179L10.1854 5.11176L10.1857 5.11172L10.1859 5.11169L10.1861 5.11166L10.1863 5.11163L10.1865 5.1116L10.1867 5.11157L10.1869 5.11153L10.1871 5.1115L10.1873 5.11147L10.1875 5.11144L10.1877 5.11141L10.1879 5.11138L10.1881 5.11135L10.1883 5.11131L10.1885 5.11128L10.1887 5.11125L10.1889 5.11122L10.1891 5.11119L10.1893 5.11116L10.1896 5.11113L10.1898 5.1111L10.19 5.11107L10.1902 5.11104L10.1904 5.111L10.1906 5.11097L10.1908 5.11094L10.191 5.11091L10.1912 5.11088L10.1914 5.11085L10.1916 5.11082L10.1918 5.11079L10.1919 5.11076L10.1921 5.11073L10.1923 5.1107L10.1925 5.11067L10.1927 5.11064L10.1929 5.11061L10.1931 5.11058L10.1933 5.11055L10.1935 5.11052L10.1937 5.11049L10.1939 5.11046L10.1941 5.11043L10.1943 5.1104L10.1945 5.11037L10.1947 5.11034L10.1949 5.11031L10.1951 5.11028L10.1953 5.11025L10.1954 5.11022L10.1956 5.11019L10.1958 5.11017L10.196 5.11014L10.1962 5.11011L10.1964 5.11008L10.1966 5.11005L10.1968 5.11002L10.197 5.10999L10.1972 5.10996L10.1973 5.10993L10.1975 5.10991L10.1977 5.10988L10.1979 5.10985L10.1981 5.10982L10.1983 5.10979L10.1985 5.10976L10.1986 5.10974L10.1988 5.10971L10.199 5.10968L10.1992 5.10965L10.1994 5.10962L10.1996 5.1096L10.1997 5.10957L10.1999 5.10954L10.2001 5.10951L10.2003 5.10948L10.2005 5.10946L10.2006 5.10943L10.2008 5.1094L10.201 5.10937L10.2012 5.10935L10.2014 5.10932L10.2015 5.10929L10.2017 5.10927L10.2019 5.10924L10.2021 5.10921L10.2022 5.10918L10.2024 5.10916L10.2026 5.10913L10.2028 5.1091L10.2029 5.10908L10.2031 5.10905L10.2033 5.10902L10.2034 5.109L10.2036 5.10897L10.2038 5.10895L10.204 5.10892L10.2041 5.10889L10.2043 5.10887L10.2045 5.10884L10.2046 5.10882L10.2048 5.10879L10.205 5.10876L10.2051 5.10874L10.2053 5.10871L10.2055 5.10869L10.2056 5.10866L10.2058 5.10864L10.206 5.10861L10.2061 5.10859L10.2063 5.10856L10.2065 5.10854L10.2066 5.10851L10.2068 5.10849L10.207 5.10846L10.2071 5.10844L10.2073 5.10841L10.2074 5.10839L10.2076 5.10836L10.2078 5.10834L10.2079 5.10831L10.2081 5.10829L10.2082 5.10827L10.2084 5.10824L10.2085 5.10822L10.2087 5.10819L10.2089 5.10817L10.209 5.10815L10.2092 5.10812L10.2093 5.1081L10.2095 5.10807L10.2096 5.10805L10.2098 5.10803L10.2099 5.108L10.2101 5.10798L10.2102 5.10796L10.2104 5.10793L10.2105 5.10791L10.2107 5.10789L10.2108 5.10787L10.211 5.10784L10.2111 5.10782L10.2113 5.1078L10.2114 5.10778L10.2116 5.10775L10.2117 5.10773L10.2119 5.10771L10.212 5.10769L10.2122 5.10766L10.2123 5.10764L10.2124 5.10762L10.2126 5.1076L10.2127 5.10758L10.2129 5.10756L10.213 5.10753L10.2131 5.10751L10.2133 5.10749L10.2134 5.10747L10.2136 5.10745L10.2137 5.10743L10.2138 5.10741L10.214 5.10739L10.2141 5.10737L10.2142 5.10734L10.2144 5.10732L10.2145 5.1073L10.2146 5.10728L10.2148 5.10726L10.2149 5.10724L10.215 5.10722L10.2152 5.1072L10.2153 5.10718L10.2154 5.10716L10.2156 5.10714L10.2157 5.10712L10.2158 5.1071L10.2159 5.10708L10.2161 5.10706L10.2162 5.10704L10.2163 5.10703L10.2164 5.10701L10.2166 5.10699L10.2167 5.10697L10.2168 5.10695L10.2169 5.10693L10.2171 5.10691L10.2172 5.10689L10.2173 5.10688L10.2174 5.10686L10.2175 5.10684L10.2177 5.10682L10.2178 5.1068L10.2179 5.10678L10.218 5.10677L10.2181 5.10675L10.2182 5.10673L10.2184 5.10671L10.2185 5.1067L10.2186 5.10668L10.2187 5.10666L10.2188 5.10664L10.2189 5.10663L10.219 5.10661L10.2191 5.10659L10.2193 5.10658L10.2194 5.10656L10.2195 5.10654L10.2196 5.10653L10.2197 5.10651L10.2198 5.10649L10.2199 5.10648L10.22 5.10646L10.2201 5.10645L10.2202 5.10643L10.2203 5.10641L10.2204 5.1064L10.2205 5.10638L10.2206 5.10637L10.2207 5.10635L10.2208 5.10634L10.2209 5.10632L10.221 5.10631L10.2211 5.10629L10.2212 5.10628L10.2213 5.10626L10.2214 5.10625L10.2215 5.10623L10.2216 5.10622L10.2217 5.10621L10.2218 5.10619L10.2219 5.10618L10.2219 5.10616L10.222 5.10615L10.2221 5.10614L10.2222 5.10612L10.2223 5.10611L10.2224 5.1061L10.2225 5.10608L10.2226 5.10607L10.2226 5.10606L10.2227 5.10604L10.2228 5.10603L10.2229 5.10602L10.223 5.10601L10.2231 5.10599L10.2231 5.10598L10.2232 5.10597L10.2233 5.10596L10.2234 5.10594L10.2235 5.10593L10.2235 5.10592L10.2236 5.10591L10.2237 5.1059L10.2238 5.10589L10.2238 5.10587L10.2239 5.10586L10.224 5.10585L10.224 5.10584L10.2241 5.10583L10.2242 5.10582L10.2243 5.10581L10.2243 5.1058L10.2244 5.10579L10.2245 5.10578L10.2245 5.10577L10.2246 5.10576L10.2247 5.10575L10.2247 5.10574L10.2248 5.10573L10.2248 5.10572L10.2249 5.10571L10.225 5.1057L10.225 5.10569L10.2251 5.10568L10.2251 5.10567L10.2252 5.10566L10.2253 5.10566L10.2253 5.10565L10.2254 5.10564L10.2254 5.10563L10.2255 5.10562L10.2255 5.10561L10.2256 5.10561L10.2256 5.1056L10.2257 5.10559L10.2257 5.10558L10.2258 5.10558L10.2258 5.10557L10.2259 5.10556L10.2259 5.10555L10.226 5.10555L10.226 5.10554L10.2261 5.10553L10.2261 5.10553L10.2261 5.10552L10.2262 5.10551L10.2262 5.10551L10.2263 5.1055L10.2263 5.1055L10.2263 5.10549L10.2264 5.10548L10.2264 5.10548L10.2265 5.10547L10.2265 5.10547L10.2265 5.10546L10.2266 5.10546L10.2266 5.10545L10.2266 5.10545L10.2266 5.10544L10.2267 5.10544L10.2267 5.10543L10.2267 5.10543L10.2268 5.10543L10.2268 5.10542L10.2268 5.10542L10.2268 5.10541L10.2269 5.10541L10.2269 5.10541L10.2269 5.1054L10.2269 5.1054L10.2269 5.1054L10.227 5.10539L10.227 5.10539L10.227 5.10539L10.227 5.10539L10.227 5.10538L10.227 5.10538L10.2271 5.10538L10.2271 5.10538L10.2271 5.10538L10.2271 5.10537L10.2271 5.10537L10.2271 5.10537L10.2271 5.10537L10.2271 5.10537L10.2271 5.10537L10.2271 5.10537L10.2272 5.10537L10.2272 5.10537L10.2272 5.10536L10.2272 5.10536L10.2476 5.10223L10.2599 5.08553C10.3343 4.98416 10.3367 4.87061 10.2616 4.81241C9.6764 4.2401 8.8798 3.90669 8.09101 3.90309L8.09101 3.90247L8.08321 3.90367L8.04819 3.90903C7.6325 3.89074 7.26822 3.94689 6.87687 4.08949L6.87624 4.08778L6.86511 4.09565C6.82642 4.12303 6.79242 4.15262 6.77083 4.19009C6.7481 4.22955 6.74181 4.27285 6.74933 4.32196L6.75112 4.33362L6.75794 4.34326C6.78531 4.38195 6.8149 4.41594 6.85238 4.43753C6.89183 4.46026 6.93513 4.46656 6.98424 4.45903L6.98447 4.46056L6.996 4.45572C7.29495 4.33037 7.64612 4.27625 8.01056 4.30057L8.01048 4.30179L8.02146 4.3001L8.05725 4.29462C8.77896 4.30517 9.46497 4.60077 9.97983 5.0831Z" fill="#BEBEBE" stroke="#BEBEBE" stroke-width="0.1"/>
<path d="M10.9114 7.22565L10.9114 7.22713L10.7205 13.7011C10.7036 13.7635 10.7291 13.8187 10.7689 13.8539C10.8089 13.8892 10.8666 13.9081 10.922 13.8996C11.0223 13.8843 11.0667 13.8237 11.1008 13.7773L11.102 13.7756L11.1113 13.763L11.1117 13.7475L11.3028 7.26707L11.3029 7.26708L11.3028 7.26421C11.2846 6.60801 11.1122 6.01595 10.7798 5.44938C10.7683 5.39652 10.7325 5.35784 10.6848 5.34247C10.6385 5.32758 10.5866 5.33606 10.5411 5.36467C10.4891 5.37653 10.451 5.41213 10.4358 5.45938C10.4199 5.50862 10.4306 5.5644 10.4638 5.61185C10.7769 6.08533 10.9448 6.66065 10.9114 7.22565Z" fill="#BEBEBE" stroke="#BEBEBE" stroke-width="0.1"/>
<path d="M8.08362 3.63717L8.11891 3.63176C10.0592 3.69889 11.593 5.31458 11.5679 7.24951C11.5679 7.24963 11.5679 7.24974 11.5679 7.24985L11.4704 11.143L11.4696 11.143L11.471 11.1518L11.4713 11.1539C11.4742 11.173 11.48 11.2111 11.4987 11.2429C11.5091 11.2605 11.5246 11.2784 11.5476 11.2902C11.5657 11.2995 11.5858 11.3036 11.6072 11.3029C11.6486 11.3221 11.6928 11.3093 11.7226 11.294C11.7587 11.2755 11.7913 11.2455 11.8123 11.217L11.8123 11.217L11.8138 11.2148C12.401 10.3201 13.3624 9.77098 14.4013 9.73234L14.4574 9.73026L14.4489 9.67481L14.4122 9.43545L14.4046 9.38602L14.3552 9.3936L14.3545 9.3937L14.3538 9.39381L14.3531 9.39392L14.3524 9.39403L14.3517 9.39413L14.351 9.39424L14.3503 9.39435L14.3495 9.39446L14.3488 9.39457L14.3481 9.39468L14.3474 9.39479L14.3467 9.39489L14.346 9.395L14.3453 9.39511L14.3446 9.39522L14.3439 9.39533L14.3431 9.39544L14.3424 9.39555L14.3417 9.39566L14.341 9.39577L14.3403 9.39588L14.3395 9.39599L14.3388 9.3961L14.3381 9.39621L14.3374 9.39632L14.3367 9.39643L14.3359 9.39655L14.3352 9.39666L14.3345 9.39677L14.3338 9.39688L14.333 9.39699L14.3323 9.3971L14.3316 9.39721L14.3308 9.39733L14.3301 9.39744L14.3294 9.39755L14.3286 9.39766L14.3279 9.39777L14.3272 9.39789L14.3264 9.398L14.3257 9.39811L14.325 9.39822L14.3242 9.39834L14.3235 9.39845L14.3228 9.39856L14.322 9.39868L14.3213 9.39879L14.3205 9.3989L14.3198 9.39902L14.3191 9.39913L14.3183 9.39924L14.3176 9.39936L14.3168 9.39947L14.3161 9.39959L14.3153 9.3997L14.3146 9.39982L14.3138 9.39993L14.3131 9.40004L14.3123 9.40016L14.3116 9.40027L14.3108 9.40039L14.3101 9.4005L14.3093 9.40062L14.3086 9.40073L14.3078 9.40085L14.3071 9.40097L14.3063 9.40108L14.3056 9.4012L14.3048 9.40131L14.3041 9.40143L14.3033 9.40154L14.3026 9.40166L14.3018 9.40178L14.301 9.40189L14.3003 9.40201L14.2995 9.40213L14.2988 9.40224L14.298 9.40236L14.2972 9.40248L14.2965 9.40259L14.2957 9.40271L14.2949 9.40283L14.2942 9.40294L14.2934 9.40306L14.2926 9.40318L14.2919 9.4033L14.2911 9.40341L14.2903 9.40353L14.2896 9.40365L14.2888 9.40377L14.288 9.40388L14.2873 9.404L14.2865 9.40412L14.2857 9.40424L14.285 9.40436L14.2842 9.40447L14.2834 9.40459L14.2826 9.40471L14.2819 9.40483L14.2811 9.40495L14.2803 9.40507L14.2795 9.40519L14.2788 9.40531L14.278 9.40542L14.2772 9.40554L14.2764 9.40566L14.2757 9.40578L14.2749 9.4059L14.2741 9.40602L14.2733 9.40614L14.2725 9.40626L14.2718 9.40638L14.271 9.4065L14.2702 9.40662L14.2694 9.40674L14.2686 9.40686L14.2678 9.40698L14.2671 9.4071L14.2663 9.40722L14.2655 9.40734L14.2647 9.40746L14.2639 9.40758L14.2631 9.4077L14.2623 9.40782L14.2616 9.40794L14.2608 9.40806L14.26 9.40818L14.2592 9.4083L14.2584 9.40842L14.2576 9.40855L14.2568 9.40867L14.256 9.40879L14.2552 9.40891L14.2545 9.40903L14.2537 9.40915L14.2529 9.40927L14.2521 9.40939L14.2513 9.40952L14.2505 9.40964L14.2497 9.40976L14.2489 9.40988L14.2481 9.41L14.2473 9.41012L14.2465 9.41025L14.2457 9.41037L14.2449 9.41049L14.2441 9.41061L14.2433 9.41073L14.2425 9.41086L14.2417 9.41098L14.2409 9.4111L14.2401 9.41122L14.2393 9.41135L14.2385 9.41147L14.2377 9.41159L14.2369 9.41171L14.2361 9.41184L14.2353 9.41196L14.2345 9.41208L14.2337 9.4122L14.2329 9.41233L14.2321 9.41245L14.2313 9.41257L14.2305 9.4127L14.2297 9.41282L14.2289 9.41294L14.2281 9.41307L14.2273 9.41319L14.2265 9.41331L14.2257 9.41344L14.2249 9.41356L14.2241 9.41368L14.2233 9.41381L14.2225 9.41393L14.2217 9.41405L14.2209 9.41418L14.2201 9.4143L14.2193 9.41442L14.2184 9.41455L14.2176 9.41467L14.2168 9.4148L14.216 9.41492L14.2152 9.41504L14.2144 9.41517L14.2136 9.41529L14.2128 9.41541L14.212 9.41554L14.2112 9.41566L14.2104 9.41579L14.2095 9.41591L14.2087 9.41604L14.2079 9.41616L14.2071 9.41628L14.2063 9.41641L14.2055 9.41653L14.2047 9.41666L14.2039 9.41678L14.2031 9.41691L14.2022 9.41703L14.2014 9.41715L14.2006 9.41728L14.1998 9.4174L14.199 9.41753L14.1982 9.41765L14.1974 9.41778L14.1966 9.4179L14.1957 9.41803L14.1949 9.41815L14.1941 9.41828L14.1933 9.4184L14.1925 9.41853L14.1917 9.41865L14.1909 9.41878L14.19 9.4189L14.1892 9.41903L14.1884 9.41915L14.1876 9.41928L14.1868 9.4194L14.186 9.41952L14.1851 9.41965L14.1843 9.41977L14.1835 9.4199L14.1827 9.42003L14.1819 9.42015L14.1811 9.42028L14.1802 9.4204L14.1794 9.42053L14.1786 9.42065L14.1778 9.42078L14.177 9.4209L14.1762 9.42103L14.1753 9.42115L14.1745 9.42128L14.1737 9.4214L14.1729 9.42153L14.1721 9.42165L14.1713 9.42178L14.1704 9.4219L14.1696 9.42203L14.1688 9.42215L14.168 9.42228L14.1672 9.4224L14.1664 9.42253L14.1655 9.42265L14.1647 9.42278L14.1639 9.42291L14.1631 9.42303L14.1623 9.42316L14.1614 9.42328L14.1606 9.42341L14.1598 9.42353L14.159 9.42366L14.1582 9.42378L14.1574 9.42391L14.1565 9.42403L14.1557 9.42416L14.1549 9.42428L14.1541 9.42441L14.1533 9.42453L14.1524 9.42466L14.1516 9.42479L14.1508 9.42491L14.15 9.42504L14.1492 9.42516L14.1484 9.42529L14.1475 9.42541L14.1467 9.42554L14.1459 9.42566L14.1451 9.42579L14.1443 9.42591L14.1435 9.42604L14.1426 9.42616L14.1418 9.42629L14.141 9.42641L14.1402 9.42654L14.1394 9.42667L14.1385 9.42679L14.1377 9.42692L14.1369 9.42704L14.1361 9.42717L14.1353 9.42729L14.1345 9.42742L14.1336 9.42754L14.1328 9.42767L14.132 9.42779L14.1312 9.42792L14.1304 9.42804L14.1296 9.42817L14.1287 9.42829L14.1279 9.42842L14.1271 9.42854L14.1263 9.42867L14.1255 9.42879L14.1247 9.42892L14.1239 9.42904L14.123 9.42917L14.1222 9.42929L14.1214 9.42942L14.1206 9.42954L14.1198 9.42967L14.119 9.42979L14.1181 9.42992L14.1173 9.43004L14.1165 9.43017L14.1157 9.43029L14.1149 9.43042L14.1141 9.43054L14.1133 9.43066L14.1124 9.43079L14.1116 9.43091L14.1108 9.43104L14.11 9.43116L14.1092 9.43129L14.1084 9.43141L14.1076 9.43154L14.1068 9.43166L14.106 9.43178L14.1051 9.43191L14.1043 9.43203L14.1035 9.43216L14.1027 9.43228L14.1019 9.43241L14.1011 9.43253L14.1003 9.43265L14.0995 9.43278L14.0987 9.4329L14.0978 9.43303L14.097 9.43315L14.0962 9.43327L14.0954 9.4334L14.0946 9.43352L14.0938 9.43365L14.093 9.43377L14.0922 9.43389L14.0914 9.43402L14.0906 9.43414L14.0898 9.43426L14.089 9.43439L14.0882 9.43451L14.0874 9.43463L14.0865 9.43476L14.0857 9.43488L14.0849 9.435L14.0841 9.43513L14.0833 9.43525L14.0825 9.43537L14.0817 9.4355L14.0809 9.43562L14.0801 9.43574L14.0793 9.43587L14.0785 9.43599L14.0777 9.43611L14.0769 9.43624L14.0761 9.43636L14.0753 9.43648L14.0745 9.4366L14.0737 9.43673L14.0729 9.43685L14.0721 9.43697L14.0713 9.43709L14.0705 9.43722L14.0697 9.43734L14.0689 9.43746L14.0681 9.43758L14.0673 9.4377L14.0665 9.43783L14.0657 9.43795L14.0649 9.43807L14.0641 9.43819L14.0633 9.43831L14.0625 9.43844L14.0617 9.43856L14.061 9.43868L14.0602 9.4388L14.0594 9.43892L14.0586 9.43904L14.0578 9.43917L14.057 9.43929L14.0562 9.43941L14.0554 9.43953L14.0546 9.43965L14.0538 9.43977L14.053 9.43989L14.0522 9.44001L14.0515 9.44013L14.0507 9.44026L14.0499 9.44038L14.0491 9.4405L14.0483 9.44062L14.0475 9.44074L14.0467 9.44086L14.046 9.44098L14.0452 9.4411L14.0444 9.44122L14.0436 9.44134L14.0428 9.44146L14.042 9.44158L14.0413 9.4417L14.0405 9.44182L14.0397 9.44194L14.0389 9.44206L14.0381 9.44218L14.0373 9.4423L14.0366 9.44242L14.0358 9.44254L14.035 9.44266L14.0342 9.44277L14.0335 9.44289L14.0327 9.44301L14.0319 9.44313L14.0311 9.44325L14.0304 9.44337L14.0296 9.44349L14.0288 9.44361L14.028 9.44372L14.0273 9.44384L14.0265 9.44396L14.0257 9.44408L14.0249 9.4442L14.0242 9.44432L14.0234 9.44443L14.0226 9.44455L14.0219 9.44467L14.0211 9.44479L14.0203 9.4449L14.0196 9.44502L14.0188 9.44514L14.018 9.44526L14.0173 9.44537L14.0165 9.44549L14.0157 9.44561L14.015 9.44573L14.0142 9.44584L14.0134 9.44596L14.0127 9.44608L14.0119 9.44619L14.0112 9.44631L14.0104 9.44642L14.0096 9.44654L14.0089 9.44666L14.0081 9.44677L14.0074 9.44689L14.0066 9.44701L14.0059 9.44712L14.0051 9.44724L14.0044 9.44735L14.0036 9.44747L14.0028 9.44758L14.0021 9.4477L14.0013 9.44781L14.0006 9.44793L13.9998 9.44804L13.9991 9.44816L13.9983 9.44827L13.9976 9.44839L13.9969 9.4485L13.9961 9.44862L13.9954 9.44873L13.9946 9.44884L13.9939 9.44896L13.9931 9.44907L13.9924 9.44919L13.9916 9.4493L13.9909 9.44941L13.9902 9.44953L13.9894 9.44964L13.9887 9.44975L13.9879 9.44987L13.9872 9.44998L13.9865 9.45009L13.9857 9.45021L13.985 9.45032L13.9843 9.45043L13.9835 9.45054L13.9828 9.45066L13.9821 9.45077L13.9813 9.45088L13.9806 9.45099L13.9799 9.4511L13.9791 9.45122L13.9784 9.45133L13.9777 9.45144L13.977 9.45155L13.9762 9.45166L13.9755 9.45177L13.9748 9.45188L13.9741 9.45199L13.9733 9.4521L13.9726 9.45221L13.9719 9.45233L13.9712 9.45244L13.9705 9.45255L13.9697 9.45266L13.969 9.45277L13.9683 9.45288L13.9676 9.45299L13.9669 9.4531L13.9662 9.4532L13.9654 9.45331L13.9647 9.45342L13.964 9.45353L13.9633 9.45364L13.9626 9.45375L13.9619 9.45386L13.9612 9.45397L13.9605 9.45407L13.9598 9.45418L13.9591 9.45429L13.9584 9.4544L13.9577 9.45451L13.957 9.45461L13.9563 9.45472C13.1136 9.58384 12.3879 9.99208 11.8376 10.5995L11.9133 7.25486L11.9133 7.25469C11.955 5.09782 10.2776 3.3284 8.11494 3.2463L8.11498 3.24539L8.10547 3.24684L8.06967 3.25233C8.04017 3.25193 8.01114 3.25145 7.98247 3.25097C7.77621 3.24752 7.58859 3.24439 7.37517 3.27709C5.51662 3.56187 4.10426 5.14276 4.0596 7.01157L4.05959 7.0118L4.0194 9.09042L2.3458 9.02984L2.28542 9.02766L2.29457 9.08738C2.29959 9.12013 2.29657 9.15528 2.2926 9.19791L2.29236 9.20051C2.28865 9.24018 2.2843 9.28683 2.29135 9.33286L2.2977 9.37427L2.33958 9.37527L4.18367 9.41934L4.18365 9.42013L4.19244 9.41878C4.24155 9.41126 4.28098 9.39228 4.31182 9.35878C4.3411 9.32696 4.35916 9.28567 4.37369 9.24056L4.37568 9.24119L4.37608 9.22662L4.43882 6.97137L4.43882 6.97104C4.47303 5.35771 5.74081 3.91449 7.43311 3.65518C7.63468 3.6243 7.8641 3.5898 8.06472 3.63644L8.0741 3.63863L8.08362 3.63717Z" fill="#BEBEBE" stroke="#BEBEBE" stroke-width="0.1"/>
<path d="M3.39029 8.45193L3.40892 7.03035L3.40894 7.02929L3.40895 7.02929C3.48472 4.83035 5.09869 2.97283 7.27722 2.63902C7.52884 2.60047 7.75375 2.59871 7.99955 2.59679C8.02964 2.59656 8.06003 2.59632 8.09082 2.59602L8.1272 2.59044L8.13626 2.58905L8.13624 2.58989C10.6244 2.66275 12.6426 4.78858 12.5698 7.27713L3.39029 8.45193ZM3.39029 8.45193L2.37373 8.41334L2.31324 8.41104L2.32241 8.47088C2.32743 8.50362 2.32441 8.53877 2.32044 8.5814L2.3202 8.58401C2.3165 8.62367 2.31214 8.67032 2.31919 8.71635L2.32561 8.75821L2.36796 8.75877L3.59532 8.77485L3.59531 8.77554L3.60355 8.77428C3.65265 8.76676 3.69209 8.74778 3.72292 8.71428C3.75221 8.68246 3.77027 8.64117 3.7848 8.59606L3.78701 8.5892L3.78719 8.58201L3.82805 6.98338L3.82805 6.98338L3.82806 6.9826C3.84743 5.00452 5.36364 3.31921 7.33516 3.01712C7.57626 2.98018 7.84719 2.93913 8.08933 2.98062L8.09733 2.98199L8.10535 2.98076L8.14093 2.97531M3.39029 8.45193L8.14093 2.97531M8.14093 2.97531C10.4459 3.02755 12.2742 4.96513 12.2243 7.27153L12.1677 9.56652L12.1669 9.5665L12.1683 9.57532L12.1686 9.57723C12.1748 9.61777 12.1836 9.67555 12.2464 9.72162C12.2756 9.74307 12.3103 9.75727 12.3479 9.75149C12.3824 9.74622 12.4094 9.7258 12.4302 9.70004C12.9756 9.33817 13.6696 9.15127 14.346 9.08798L14.3988 9.08304L14.3908 9.03063L14.3541 8.79127L14.3466 8.74184L14.2971 8.74942L14.2962 8.74956L14.2953 8.7497L14.2943 8.74985L14.2934 8.74999L14.2925 8.75013L14.2915 8.75028L14.2906 8.75042L14.2897 8.75056L14.2888 8.7507L14.2878 8.75084L14.2869 8.75099L14.286 8.75113L14.2851 8.75127L14.2841 8.75141L14.2832 8.75155L14.2823 8.75169L14.2814 8.75183L14.2804 8.75197L14.2795 8.75212L14.2786 8.75226L14.2777 8.7524L14.2768 8.75254L14.2759 8.75268L14.2749 8.75282L14.274 8.75296L14.2731 8.7531L14.2722 8.75324L14.2713 8.75338L14.2704 8.75352L14.2695 8.75366L14.2686 8.75379L14.2677 8.75393L14.2668 8.75407L14.2658 8.75421L14.2649 8.75435L14.264 8.75449L14.2631 8.75463L14.2622 8.75477L14.2613 8.7549L14.2604 8.75504L14.2595 8.75518L14.2586 8.75532L14.2577 8.75546L14.2568 8.75559L14.2559 8.75573L14.255 8.75587L14.2541 8.75601L14.2532 8.75614L14.2523 8.75628L14.2514 8.75642L14.2506 8.75655L14.2497 8.75669L14.2488 8.75683L14.2479 8.75696L14.247 8.7571L14.2461 8.75724L14.2452 8.75737L14.2443 8.75751L14.2434 8.75765L14.2425 8.75778L14.2417 8.75792L14.2408 8.75805L14.2399 8.75819L14.239 8.75832L14.2381 8.75846L14.2372 8.75859L14.2364 8.75873L14.2355 8.75887L14.2346 8.759L14.2337 8.75914L14.2328 8.75927L14.232 8.7594L14.2311 8.75954L14.2302 8.75967L14.2293 8.75981L14.2284 8.75994L14.2276 8.76008L14.2267 8.76021L14.2258 8.76034L14.2249 8.76048L14.2241 8.76061L14.2232 8.76075L14.2223 8.76088L14.2215 8.76101L14.2206 8.76115L14.2197 8.76128L14.2188 8.76141L14.218 8.76155L14.2171 8.76168L14.2162 8.76181L14.2154 8.76194L14.2145 8.76208L14.2136 8.76221L14.2128 8.76234L14.2119 8.76247L14.2111 8.76261L14.2102 8.76274L14.2093 8.76287L14.2085 8.763L14.2076 8.76314L14.2067 8.76327L14.2059 8.7634L14.205 8.76353L14.2042 8.76366L14.2033 8.7638L14.2024 8.76393L14.2016 8.76406L14.2007 8.76419L14.1999 8.76432L14.199 8.76445L14.1982 8.76458L14.1973 8.76471L14.1964 8.76485L14.1956 8.76498L14.1947 8.76511L14.1939 8.76524L14.193 8.76537L14.1922 8.7655L14.1913 8.76563L14.1905 8.76576L14.1896 8.76589L14.1888 8.76602L14.1879 8.76615L14.1871 8.76628L14.1862 8.76641L14.1854 8.76654L14.1845 8.76667L14.1837 8.7668L14.1828 8.76693L14.182 8.76706L14.1811 8.76719L14.1803 8.76732L14.1795 8.76745L14.1786 8.76758L14.1778 8.76771L14.1769 8.76784L14.1761 8.76797L14.1752 8.7681L14.1744 8.76822L14.1735 8.76835L14.1727 8.76848L14.1719 8.76861L14.171 8.76874L14.1702 8.76887L14.1693 8.769L14.1685 8.76913L14.1677 8.76926L14.1668 8.76938L14.166 8.76951L14.1651 8.76964L14.1643 8.76977L14.1635 8.7699L14.1626 8.77003L14.1618 8.77015L14.161 8.77028L14.1601 8.77041L14.1593 8.77054L14.1585 8.77067L14.1576 8.77079L14.1568 8.77092L14.1559 8.77105L14.1551 8.77118L14.1543 8.77131L14.1534 8.77143L14.1526 8.77156L14.1518 8.77169L14.1509 8.77182L14.1501 8.77194L14.1493 8.77207L14.1485 8.7722L14.1476 8.77233L14.1468 8.77245L14.146 8.77258L14.1451 8.77271L14.1443 8.77284L14.1435 8.77296L14.1426 8.77309L14.1418 8.77322L14.141 8.77334L14.1402 8.77347L14.1393 8.7736L14.1385 8.77372L14.1377 8.77385L14.1368 8.77398L14.136 8.7741L14.1352 8.77423L14.1344 8.77436L14.1335 8.77448L14.1327 8.77461L14.1319 8.77474L14.1311 8.77486L14.1302 8.77499L14.1294 8.77512L14.1286 8.77524L14.1278 8.77537L14.1269 8.7755L14.1261 8.77562L14.1253 8.77575L14.1245 8.77588L14.1236 8.776L14.1228 8.77613L14.122 8.77625L14.1212 8.77638L14.1203 8.77651L14.1195 8.77663L14.1187 8.77676L14.1179 8.77688L14.1171 8.77701L14.1162 8.77714L14.1154 8.77726L14.1146 8.77739L14.1138 8.77751L14.1129 8.77764L14.1121 8.77777L14.1113 8.77789L14.1105 8.77802L14.1097 8.77814L14.1088 8.77827L14.108 8.77839L14.1072 8.77852L14.1064 8.77865L14.1056 8.77877L14.1047 8.7789L14.1039 8.77902L14.1031 8.77915L14.1023 8.77927L14.1015 8.7794L14.1006 8.77953L14.0998 8.77965L14.099 8.77978L14.0982 8.7799L14.0974 8.78003L14.0965 8.78015L14.0957 8.78028L14.0949 8.7804L14.0941 8.78053L14.0933 8.78066L14.0924 8.78078L14.0916 8.78091L14.0908 8.78103L14.09 8.78116L14.0892 8.78128L14.0884 8.78141L14.0875 8.78153L14.0867 8.78166L14.0859 8.78178L14.0851 8.78191L14.0843 8.78203L14.0834 8.78216L14.0826 8.78229L14.0818 8.78241L14.081 8.78254L14.0802 8.78266L14.0794 8.78279L14.0785 8.78291L14.0777 8.78304L14.0769 8.78316L14.0761 8.78329L14.0753 8.78341L14.0744 8.78354L14.0736 8.78366L14.0728 8.78379L14.072 8.78392L14.0712 8.78404L14.0704 8.78417L14.0695 8.78429L14.0687 8.78442L14.0679 8.78454L14.0671 8.78467L14.0663 8.78479L14.0654 8.78492L14.0646 8.78504L14.0638 8.78517L14.063 8.78529L14.0622 8.78542L14.0614 8.78555L14.0605 8.78567L14.0597 8.7858L14.0589 8.78592L14.0581 8.78605L14.0573 8.78617L14.0564 8.7863L14.0556 8.78642L14.0548 8.78655L14.054 8.78668L14.0532 8.7868L14.0523 8.78693L14.0515 8.78705L14.0507 8.78718L14.0499 8.7873L14.0491 8.78743L14.0482 8.78755L14.0474 8.78768L14.0466 8.78781L14.0458 8.78793L14.045 8.78806L14.0441 8.78818L14.0433 8.78831L14.0425 8.78844L14.0417 8.78856L14.0408 8.78869L14.04 8.78881L14.0392 8.78894L14.0384 8.78907L14.0376 8.78919L14.0367 8.78932L14.0359 8.78944L14.0351 8.78957L14.0343 8.7897L14.0334 8.78982L14.0326 8.78995L14.0318 8.79007L14.031 8.7902L14.0302 8.79033L14.0293 8.79045L14.0285 8.79058L14.0277 8.79071L14.0269 8.79083L14.026 8.79096L14.0252 8.79108L14.0244 8.79121L14.0236 8.79134L14.0227 8.79146L14.0219 8.79159L14.0211 8.79172L14.0202 8.79184L14.0194 8.79197L14.0186 8.7921L14.0178 8.79222L14.0169 8.79235L14.0161 8.79248L14.0153 8.7926L14.0145 8.79273L14.0136 8.79286L14.0128 8.79299L14.012 8.79311L14.0111 8.79324L14.0103 8.79337L14.0095 8.79349L14.0086 8.79362L14.0078 8.79375L14.007 8.79388L14.0062 8.794L14.0053 8.79413L14.0045 8.79426L14.0037 8.79439L14.0028 8.79451L14.002 8.79464L14.0012 8.79477L14.0003 8.7949L13.9995 8.79502L13.9987 8.79515L13.9978 8.79528L13.997 8.79541L13.9961 8.79554L13.9953 8.79566L13.9945 8.79579L13.9936 8.79592L13.9928 8.79605L13.992 8.79618L13.9911 8.79631L13.9903 8.79643L13.9895 8.79656L13.9886 8.79669L13.9878 8.79682L13.9869 8.79695L13.9861 8.79708L13.9853 8.79721L13.9844 8.79733L13.9836 8.79746L13.9827 8.79759L13.9819 8.79772L13.981 8.79785L13.9802 8.79798L13.9794 8.79811L13.9785 8.79824L13.9777 8.79837L13.9768 8.7985L13.976 8.79863L13.9751 8.79876L13.9743 8.79889L13.9734 8.79902L13.9726 8.79914L13.9718 8.79927L13.9709 8.7994L13.9701 8.79953L13.9692 8.79966L13.9684 8.79979L13.9675 8.79992L13.9667 8.80005L13.9658 8.80019L13.965 8.80032L13.9641 8.80045L13.9633 8.80058L13.9624 8.80071L13.9615 8.80084L13.9607 8.80097L13.9598 8.8011L13.959 8.80123L13.9581 8.80136L13.9573 8.80149L13.9564 8.80162L13.9556 8.80175L13.9547 8.80189L13.9539 8.80202L13.953 8.80215L13.9521 8.80228L13.9513 8.80241L13.9504 8.80254L13.9496 8.80268L13.9487 8.80281L13.9478 8.80294L13.947 8.80307L13.9461 8.8032L13.9452 8.80334L13.9444 8.80347L13.9435 8.8036L13.9427 8.80373L13.9418 8.80387L13.9409 8.804L13.9401 8.80413L13.9392 8.80426L13.9383 8.8044L13.9375 8.80453L13.9366 8.80466L13.9357 8.8048L13.9348 8.80493L13.934 8.80506L13.9331 8.8052L13.9322 8.80533L13.9314 8.80546L13.9305 8.8056L13.9296 8.80573L13.9287 8.80587L13.9279 8.806L13.927 8.80613L13.9261 8.80627L13.9252 8.8064L13.9244 8.80654L13.9235 8.80667L13.9226 8.80681L13.9217 8.80694L13.9208 8.80708L13.92 8.80721L13.9191 8.80735L13.9182 8.80748L13.9173 8.80762L13.9164 8.80775L13.9155 8.80789L13.9147 8.80802L13.9138 8.80816L13.9129 8.80829L13.912 8.80843L13.9111 8.80857L13.9102 8.8087L13.9093 8.80884L13.9084 8.80897L13.9076 8.80911L13.9067 8.80925L13.9058 8.80938L13.9049 8.80952L13.904 8.80966L13.9031 8.80979L13.9022 8.80993L13.9013 8.81007L13.9004 8.81021L13.8995 8.81034L13.8986 8.81048L13.8977 8.81062L13.8968 8.81076L13.8959 8.81089L13.895 8.81103L13.8941 8.81117L13.8932 8.81131L13.8923 8.81145L13.8914 8.81159L13.8905 8.81173L13.8896 8.81186L13.8887 8.812L13.8878 8.81214L13.8869 8.81228L13.886 8.81242L13.8851 8.81256L13.8841 8.8127L13.8832 8.81284L13.8823 8.81298L13.8814 8.81312L13.8805 8.81326L13.8796 8.8134L13.8787 8.81354L13.8777 8.81368L13.8768 8.81382L13.8759 8.81396L13.875 8.8141L13.8741 8.81424L13.8732 8.81438L13.8722 8.81452L13.8713 8.81467L13.8704 8.81481L13.8695 8.81495L13.8685 8.81509L13.8676 8.81523L13.8667 8.81537L13.8658 8.81552L13.8648 8.81566L13.8639 8.8158L13.863 8.81594L13.862 8.81609L13.8611 8.81623L13.8602 8.81637L13.8592 8.81651L13.8583 8.81666C13.4036 8.88634 12.9236 9.03273 12.5186 9.24118L12.5698 7.27729L8.14093 2.97531Z" fill="#BEBEBE" stroke="#BEBEBE" stroke-width="0.1"/>
<path d="M2.79854 7.04102L2.76352 7.8127L2.40232 7.7963L2.34139 7.79354L2.35063 7.85382C2.35564 7.88657 2.35263 7.92172 2.34866 7.96435L2.34841 7.96696C2.34471 8.00662 2.34036 8.05327 2.34741 8.0993L2.35343 8.13861L2.3931 8.14158L2.93005 8.1818L2.92995 8.18311L2.94135 8.18136C2.98858 8.17412 3.03684 8.1548 3.07262 8.12213C3.10873 8.08915 3.13223 8.04186 3.12508 7.98487L3.14397 7.04748C3.14397 7.04737 3.14398 7.04726 3.14398 7.04715C3.18741 5.74597 3.68958 4.53843 4.64558 3.66544L4.64559 3.66545L4.6465 3.66458C5.59785 2.7508 6.8186 2.28107 8.11822 2.32437L8.11819 2.32524L8.12745 2.32382L8.16317 2.31835C10.3067 2.35491 12.15 3.84803 12.7082 5.9024C12.7179 5.95898 12.7536 5.99655 12.7908 6.01801C12.8269 6.03883 12.8698 6.04761 12.9027 6.04256L12.9144 6.04078L12.924 6.03396C12.9627 6.00659 12.9967 5.97699 13.0183 5.93952C13.041 5.90007 13.0473 5.85676 13.0398 5.80766L13.0401 5.80761L13.0387 5.80243C12.4514 3.58362 10.4356 1.99629 8.15827 1.93294L8.15829 1.93212L8.14931 1.9335L8.11367 1.93896C5.26264 1.88385 2.85022 4.14879 2.79854 7.04102Z" fill="#BEBEBE" stroke="#BEBEBE" stroke-width="0.1"/>
<path d="M14.256 8.15276L14.2492 8.10852L14.2045 8.11037C13.8537 8.1249 13.5144 8.21185 13.1482 8.30622L13.1861 7.30687L13.1863 7.30514C13.2016 7.14159 13.2175 6.97075 13.1921 6.80508C13.1849 6.75785 13.1655 6.70959 13.1329 6.67381C13.099 6.63672 13.05 6.61294 12.991 6.62199C12.958 6.62704 12.9198 6.64825 12.8915 6.67894C12.863 6.7099 12.8406 6.75517 12.8469 6.81046C12.8395 6.89434 12.8418 6.97627 12.844 7.05494L12.844 7.05629C12.8463 7.13806 12.8484 7.21638 12.841 7.29574L12.8408 7.29572L12.8408 7.29972L12.8247 8.52708L12.824 8.52707L12.8253 8.53531L12.8255 8.53721C12.8317 8.57776 12.8406 8.63554 12.9033 8.6816C12.9661 8.72767 13.0238 8.7188 13.0644 8.71257L13.0663 8.71228L13.0664 8.71326L13.0758 8.70983C13.4565 8.57113 13.8502 8.51058 14.252 8.48951L14.3072 8.48662L14.2988 8.43201L14.2987 8.43131L14.2986 8.43061L14.2985 8.42991L14.2984 8.42921L14.2983 8.42851L14.2982 8.42782L14.2981 8.42712L14.298 8.42643L14.2978 8.42573L14.2977 8.42504L14.2976 8.42435L14.2975 8.42366L14.2974 8.42297L14.2973 8.42228L14.2972 8.42159L14.2971 8.4209L14.297 8.42022L14.2969 8.41953L14.2968 8.41885L14.2967 8.41816L14.2966 8.41748L14.2965 8.4168L14.2964 8.41612L14.2963 8.41544L14.2962 8.41476L14.2961 8.41408L14.296 8.4134L14.2959 8.41272L14.2957 8.41205L14.2956 8.41137L14.2955 8.4107L14.2954 8.41003L14.2953 8.40935L14.2952 8.40868L14.2951 8.40801L14.295 8.40734L14.2949 8.40667L14.2948 8.406L14.2947 8.40534L14.2946 8.40467L14.2945 8.404L14.2944 8.40334L14.2943 8.40268L14.2942 8.40201L14.2941 8.40135L14.294 8.40069L14.2939 8.40003L14.2938 8.39937L14.2937 8.39871L14.2936 8.39805L14.2935 8.39739L14.2934 8.39674L14.2933 8.39608L14.2932 8.39543L14.2931 8.39477L14.293 8.39412L14.2929 8.39347L14.2928 8.39281L14.2927 8.39216L14.2926 8.39151L14.2925 8.39086L14.2924 8.39022L14.2923 8.38957L14.2922 8.38892L14.2921 8.38827L14.292 8.38763L14.2919 8.38699L14.2918 8.38634L14.2917 8.3857L14.2916 8.38506L14.2915 8.38442L14.2914 8.38377L14.2913 8.38313L14.2912 8.3825L14.2911 8.38186L14.291 8.38122L14.2909 8.38058L14.2908 8.37995L14.2907 8.37931L14.2906 8.37868L14.2905 8.37804L14.2904 8.37741L14.2903 8.37678L14.2902 8.37615L14.2902 8.37552L14.2901 8.37489L14.29 8.37426L14.2899 8.37363L14.2898 8.373L14.2897 8.37238L14.2896 8.37175L14.2895 8.37113L14.2894 8.3705L14.2893 8.36988L14.2892 8.36926L14.2891 8.36863L14.289 8.36801L14.2889 8.36739L14.2888 8.36677L14.2887 8.36615L14.2886 8.36553L14.2885 8.36492L14.2884 8.3643L14.2883 8.36368L14.2882 8.36307L14.2882 8.36245L14.2881 8.36184L14.288 8.36122L14.2879 8.36061L14.2878 8.36L14.2877 8.35939L14.2876 8.35878L14.2875 8.35817L14.2874 8.35756L14.2873 8.35695L14.2872 8.35634L14.2871 8.35574L14.287 8.35513L14.2869 8.35452L14.2868 8.35392L14.2868 8.35332L14.2867 8.35271L14.2866 8.35211L14.2865 8.35151L14.2864 8.35091L14.2863 8.35031L14.2862 8.34971L14.2861 8.34911L14.286 8.34851L14.2859 8.34791L14.2858 8.34731L14.2857 8.34672L14.2856 8.34612L14.2856 8.34552L14.2855 8.34493L14.2854 8.34434L14.2853 8.34374L14.2852 8.34315L14.2851 8.34256L14.285 8.34197L14.2849 8.34138L14.2848 8.34079L14.2847 8.3402L14.2846 8.33961L14.2846 8.33902L14.2845 8.33843L14.2844 8.33785L14.2843 8.33726L14.2842 8.33668L14.2841 8.33609L14.284 8.33551L14.2839 8.33492L14.2838 8.33434L14.2838 8.33376L14.2837 8.33318L14.2836 8.3326L14.2835 8.33202L14.2834 8.33144L14.2833 8.33086L14.2832 8.33028L14.2831 8.3297L14.283 8.32912L14.283 8.32855L14.2829 8.32797L14.2828 8.3274L14.2827 8.32682L14.2826 8.32625L14.2825 8.32568L14.2824 8.3251L14.2823 8.32453L14.2823 8.32396L14.2822 8.32339L14.2821 8.32282L14.282 8.32225L14.2819 8.32168L14.2818 8.32111L14.2817 8.32054L14.2816 8.31998L14.2816 8.31941L14.2815 8.31884L14.2814 8.31828L14.2813 8.31771L14.2812 8.31715L14.2811 8.31658L14.281 8.31602L14.2809 8.31546L14.2809 8.3149L14.2808 8.31434L14.2807 8.31377L14.2806 8.31321L14.2805 8.31265L14.2804 8.3121L14.2803 8.31154L14.2803 8.31098L14.2802 8.31042L14.2801 8.30986L14.28 8.30931L14.2799 8.30875L14.2798 8.3082L14.2798 8.30764L14.2797 8.30709L14.2796 8.30654L14.2795 8.30598L14.2794 8.30543L14.2793 8.30488L14.2792 8.30433L14.2792 8.30378L14.2791 8.30323L14.279 8.30268L14.2789 8.30213L14.2788 8.30158L14.2787 8.30103L14.2787 8.30048L14.2786 8.29994L14.2785 8.29939L14.2784 8.29884L14.2783 8.2983L14.2782 8.29775L14.2782 8.29721L14.2781 8.29667L14.278 8.29612L14.2779 8.29558L14.2778 8.29504L14.2777 8.2945L14.2777 8.29396L14.2776 8.29341L14.2775 8.29287L14.2774 8.29233L14.2773 8.2918L14.2772 8.29126L14.2772 8.29072L14.2771 8.29018L14.277 8.28964L14.2769 8.28911L14.2768 8.28857L14.2767 8.28804L14.2767 8.2875L14.2766 8.28697L14.2765 8.28643L14.2764 8.2859L14.2763 8.28536L14.2763 8.28483L14.2762 8.2843L14.2761 8.28377L14.276 8.28324L14.2759 8.28271L14.2758 8.28217L14.2758 8.28165L14.2757 8.28112L14.2756 8.28059L14.2755 8.28006L14.2754 8.27953L14.2754 8.279L14.2753 8.27848L14.2752 8.27795L14.2751 8.27742L14.275 8.2769L14.275 8.27637L14.2749 8.27585L14.2748 8.27532L14.2747 8.2748L14.2746 8.27428L14.2746 8.27375L14.2745 8.27323L14.2744 8.27271L14.2743 8.27219L14.2742 8.27166L14.2742 8.27114L14.2741 8.27062L14.274 8.2701L14.2739 8.26958L14.2738 8.26907L14.2738 8.26855L14.2737 8.26803L14.2736 8.26751L14.2735 8.26699L14.2734 8.26648L14.2734 8.26596L14.2733 8.26544L14.2732 8.26493L14.2731 8.26441L14.273 8.2639L14.273 8.26338L14.2729 8.26287L14.2728 8.26236L14.2727 8.26184L14.2727 8.26133L14.2726 8.26082L14.2725 8.2603L14.2724 8.25979L14.2723 8.25928L14.2723 8.25877L14.2722 8.25826L14.2721 8.25775L14.272 8.25724L14.272 8.25673L14.2719 8.25622L14.2718 8.25571L14.2717 8.25521L14.2716 8.2547L14.2716 8.25419L14.2715 8.25368L14.2714 8.25318L14.2713 8.25267L14.2713 8.25217L14.2712 8.25166L14.2711 8.25115L14.271 8.25065L14.2709 8.25015L14.2709 8.24964L14.2708 8.24914L14.2707 8.24863L14.2706 8.24813L14.2706 8.24763L14.2705 8.24713L14.2704 8.24662L14.2703 8.24612L14.2702 8.24562L14.2702 8.24512L14.2701 8.24462L14.27 8.24412L14.2699 8.24362L14.2699 8.24312L14.2698 8.24262L14.2697 8.24212L14.2696 8.24162L14.2696 8.24113L14.2695 8.24063L14.2694 8.24013L14.2693 8.23963L14.2693 8.23914L14.2692 8.23864L14.2691 8.23814L14.269 8.23765L14.269 8.23715L14.2689 8.23666L14.2688 8.23616L14.2687 8.23567L14.2686 8.23517L14.2686 8.23468L14.2685 8.23419L14.2684 8.23369L14.2683 8.2332L14.2683 8.23271L14.2682 8.23221L14.2681 8.23172L14.268 8.23123L14.268 8.23074L14.2679 8.23025L14.2678 8.22976L14.2677 8.22926L14.2677 8.22877L14.2676 8.22828L14.2675 8.22779L14.2674 8.2273L14.2674 8.22682L14.2673 8.22633L14.2672 8.22584L14.2671 8.22535L14.2671 8.22486L14.267 8.22437L14.2669 8.22388L14.2668 8.2234L14.2668 8.22291L14.2667 8.22242L14.2666 8.22194L14.2665 8.22145L14.2665 8.22096L14.2664 8.22048L14.2663 8.21999L14.2662 8.21951L14.2662 8.21902L14.2661 8.21854L14.266 8.21805L14.2659 8.21757L14.2659 8.21708L14.2658 8.2166L14.2657 8.21612L14.2657 8.21563L14.2656 8.21515L14.2655 8.21467L14.2654 8.21418L14.2654 8.2137L14.2653 8.21322L14.2652 8.21274L14.2651 8.21226L14.2651 8.21177L14.265 8.21129L14.2649 8.21081L14.2648 8.21033L14.2648 8.20985L14.2647 8.20937L14.2646 8.20889L14.2645 8.20841L14.2645 8.20793L14.2644 8.20745L14.2643 8.20697L14.2643 8.20649L14.2642 8.20601L14.2641 8.20553L14.264 8.20506L14.264 8.20458L14.2639 8.2041L14.2638 8.20362L14.2637 8.20314L14.2637 8.20267L14.2636 8.20219L14.2635 8.20171L14.2634 8.20123L14.2634 8.20076L14.2633 8.20028L14.2632 8.1998L14.2632 8.19933L14.2631 8.19885L14.263 8.19838L14.2629 8.1979L14.2629 8.19742L14.2628 8.19695L14.2627 8.19647L14.2626 8.196L14.2626 8.19552L14.2625 8.19505L14.2624 8.19457L14.2624 8.1941L14.2623 8.19363L14.2622 8.19315L14.2621 8.19268L14.2621 8.1922L14.262 8.19173L14.2619 8.19126L14.2618 8.19078L14.2618 8.19031L14.2617 8.18984L14.2616 8.18936L14.2616 8.18889L14.2615 8.18842L14.2614 8.18794L14.2613 8.18747L14.2613 8.187L14.2612 8.18653L14.2611 8.18606L14.261 8.18558L14.261 8.18511L14.2609 8.18464L14.2608 8.18417L14.2608 8.1837L14.2607 8.18323L14.2606 8.18275L14.2605 8.18228L14.2605 8.18181L14.2604 8.18134L14.2603 8.18087L14.2603 8.1804L14.2602 8.17993L14.2601 8.17946L14.26 8.17899L14.26 8.17852L14.2599 8.17805L14.2598 8.17758L14.2598 8.17711L14.2597 8.17664L14.2596 8.17617L14.2595 8.1757L14.2595 8.17523L14.2594 8.17476L14.2593 8.17429L14.2592 8.17382L14.2592 8.17335L14.2591 8.17288L14.259 8.17241L14.259 8.17195L14.2589 8.17148L14.2588 8.17101L14.2587 8.17054L14.2587 8.17007L14.2586 8.1696L14.2585 8.16913L14.2585 8.16866L14.2584 8.1682L14.2583 8.16773L14.2582 8.16726L14.2582 8.16679L14.2581 8.16632L14.258 8.16585L14.258 8.16539L14.2579 8.16492L14.2578 8.16445L14.2577 8.16398L14.2577 8.16351L14.2576 8.16305L14.2575 8.16258L14.2575 8.16211L14.2574 8.16164L14.2573 8.16117L14.2572 8.16071L14.2572 8.16024L14.2571 8.15977L14.257 8.1593L14.257 8.15884L14.2569 8.15837L14.2568 8.1579L14.2567 8.15743L14.2567 8.15696L14.2566 8.1565L14.2565 8.15603L14.2564 8.15556L14.2564 8.15509L14.2563 8.15463L14.2562 8.15416L14.2562 8.15369L14.2561 8.15322L14.256 8.15276Z" fill="#BEBEBE" stroke="#BEBEBE" stroke-width="0.1"/>
<path d="M14.1585 7.51458L14.151 7.46516L14.1015 7.47273L14.1011 7.4728L14.1006 7.47287L14.1001 7.47295L14.0997 7.47302L14.0992 7.47309L14.0987 7.47316L14.0982 7.47324L14.0978 7.47331L14.0973 7.47338L14.0968 7.47345L14.0963 7.47353L14.0959 7.4736L14.0954 7.47367L14.0949 7.47375L14.0944 7.47382L14.0939 7.47389L14.0935 7.47397L14.093 7.47404L14.0925 7.47412L14.092 7.47419L14.0915 7.47427L14.091 7.47434L14.0906 7.47441L14.0901 7.47449L14.0896 7.47456L14.0891 7.47464L14.0886 7.47471L14.0881 7.47479L14.0876 7.47487L14.0871 7.47494L14.0866 7.47502L14.0861 7.47509L14.0856 7.47517L14.0851 7.47524L14.0846 7.47532L14.0841 7.4754L14.0837 7.47547L14.0832 7.47555L14.0827 7.47563L14.0822 7.4757L14.0816 7.47578L14.0811 7.47586L14.0806 7.47593L14.0801 7.47601L14.0796 7.47609L14.0791 7.47617L14.0786 7.47624L14.0781 7.47632L14.0776 7.4764L14.0771 7.47648L14.0766 7.47655L14.0761 7.47663L14.0756 7.47671L14.0751 7.47679L14.0745 7.47687L14.074 7.47695L14.0735 7.47702L14.073 7.4771L14.0725 7.47718L14.072 7.47726L14.0715 7.47734L14.0709 7.47742L14.0704 7.4775L14.0699 7.47758L14.0694 7.47766L14.0689 7.47774L14.0684 7.47782L14.0678 7.4779L14.0673 7.47798L14.0668 7.47806L14.0663 7.47814L14.0657 7.47822L14.0652 7.4783L14.0647 7.47838L14.0642 7.47846L14.0636 7.47854L14.0631 7.47862L14.0626 7.4787L14.0621 7.47878L14.0615 7.47886L14.061 7.47894L14.0605 7.47903L14.0599 7.47911L14.0594 7.47919L14.0589 7.47927L14.0583 7.47935L14.0578 7.47943L14.0573 7.47951L14.0567 7.4796L14.0562 7.47968L14.0557 7.47976L14.0551 7.47984L14.0546 7.47992L14.0541 7.48001L14.0535 7.48009L14.053 7.48017L14.0524 7.48025L14.0519 7.48034L14.0514 7.48042L14.0508 7.4805L14.0503 7.48059L14.0497 7.48067L14.0492 7.48075L14.0487 7.48084L14.0481 7.48092L14.0476 7.481L14.047 7.48109L14.0465 7.48117L14.0459 7.48125L14.0454 7.48134L14.0448 7.48142L14.0443 7.4815L14.0437 7.48159L14.0432 7.48167L14.0426 7.48176L14.0421 7.48184L14.0415 7.48192L14.041 7.48201L14.0404 7.48209L14.0399 7.48218L14.0393 7.48226L14.0388 7.48235L14.0382 7.48243L14.0377 7.48252L14.0371 7.4826L14.0366 7.48269L14.036 7.48277L14.0355 7.48286L14.0349 7.48294L14.0344 7.48303L14.0338 7.48311L14.0332 7.4832L14.0327 7.48328L14.0321 7.48337L14.0316 7.48345L14.031 7.48354L14.0305 7.48362L14.0299 7.48371L14.0293 7.4838L14.0288 7.48388L14.0282 7.48397L14.0277 7.48405L14.0271 7.48414L14.0265 7.48423L14.026 7.48431L14.0254 7.4844L14.0248 7.48448L14.0243 7.48457L14.0237 7.48466L14.0232 7.48474L14.0226 7.48483L14.022 7.48492L14.0215 7.485L14.0209 7.48509L14.0203 7.48518L14.0198 7.48526L14.0192 7.48535L14.0186 7.48544L14.0181 7.48552L14.0175 7.48561L14.0169 7.4857L14.0164 7.48578L14.0158 7.48587L14.0152 7.48596L14.0146 7.48605L14.0141 7.48613L14.0135 7.48622L14.0129 7.48631L14.0124 7.4864L14.0118 7.48648L14.0112 7.48657L14.0107 7.48666L14.0101 7.48675L14.0095 7.48683L14.0089 7.48692L14.0084 7.48701L14.0078 7.4871L14.0072 7.48718L14.0066 7.48727L14.0061 7.48736L14.0055 7.48745L14.0049 7.48754L14.0043 7.48762L14.0038 7.48771L14.0032 7.4878L14.0026 7.48789L14.002 7.48798L14.0015 7.48807L14.0009 7.48815L14.0003 7.48824L13.9997 7.48833L13.9992 7.48842L13.9986 7.48851L13.998 7.4886L13.9974 7.48868L13.9969 7.48877L13.9963 7.48886L13.9957 7.48895L13.9951 7.48904L13.9945 7.48913L13.994 7.48922L13.9934 7.4893L13.9928 7.48939L13.9922 7.48948L13.9916 7.48957L13.9911 7.48966L13.9905 7.48975L13.9899 7.48984L13.9893 7.48993L13.9887 7.49002L13.9882 7.4901L13.9876 7.49019L13.987 7.49028L13.9864 7.49037L13.9858 7.49046L13.9853 7.49055L13.9847 7.49064L13.9841 7.49073L13.9835 7.49082L13.9829 7.49091L13.9823 7.491L13.9818 7.49108L13.9812 7.49117L13.9806 7.49126L13.98 7.49135L13.9794 7.49144L13.9789 7.49153L13.9783 7.49162L13.9777 7.49171L13.9771 7.4918L13.9765 7.49189L13.9759 7.49198L13.9754 7.49207L13.9748 7.49216L13.9742 7.49225L13.9736 7.49234L13.973 7.49243L13.9724 7.49251L13.9718 7.4926L13.9713 7.49269L13.9707 7.49278L13.9701 7.49287L13.9695 7.49296L13.9689 7.49305L13.9683 7.49314L13.9678 7.49323L13.9672 7.49332L13.9666 7.49341L13.966 7.4935L13.9654 7.49359L13.9648 7.49368L13.9643 7.49377L13.9637 7.49386L13.9631 7.49395L13.9625 7.49404L13.9619 7.49413L13.9613 7.49422L13.9607 7.4943L13.9602 7.49439L13.9596 7.49448L13.959 7.49457L13.9584 7.49466L13.9578 7.49475L13.9572 7.49484L13.9567 7.49493L13.9561 7.49502L13.9555 7.49511L13.9549 7.4952L13.9543 7.49529L13.9537 7.49538L13.9532 7.49547L13.9526 7.49556L13.952 7.49565L13.9514 7.49574L13.9508 7.49583L13.9502 7.49592L13.9497 7.49601L13.9491 7.49609L13.9485 7.49618L13.9479 7.49627L13.9473 7.49636L13.9467 7.49645L13.9462 7.49654L13.9456 7.49663L13.945 7.49672L13.9444 7.49681L13.9438 7.4969L13.9432 7.49699L13.9427 7.49708L13.9421 7.49717L13.9415 7.49726L13.9409 7.49734L13.9403 7.49743L13.9397 7.49752L13.9392 7.49761L13.9386 7.4977L13.938 7.49779L13.9374 7.49788L13.9368 7.49797L13.9363 7.49806L13.9357 7.49815L13.9351 7.49824L13.9345 7.49832L13.9339 7.49841L13.9334 7.4985L13.9328 7.49859L13.9322 7.49868L13.9316 7.49877L13.931 7.49886L13.9305 7.49895L13.9299 7.49904L13.9293 7.49912L13.9287 7.49921L13.9281 7.4993L13.9276 7.49939L13.927 7.49948L13.9264 7.49957L13.9258 7.49966L13.9253 7.49974L13.9247 7.49983L13.9241 7.49992L13.9235 7.50001L13.9229 7.5001L13.9224 7.50019L13.9218 7.50027L13.9212 7.50036L13.9206 7.50045L13.9201 7.50054L13.9195 7.50063L13.9189 7.50071L13.9183 7.5008L13.9178 7.50089L13.9172 7.50098L13.9166 7.50107L13.916 7.50115L13.9155 7.50124L13.9149 7.50133L13.9143 7.50142L13.9138 7.50151L13.9132 7.50159L13.9126 7.50168L13.912 7.50177L13.9115 7.50186L13.9109 7.50194L13.9103 7.50203L13.9098 7.50212L13.9092 7.50221L13.9086 7.50229L13.9081 7.50238L13.9075 7.50247L13.9069 7.50255L13.9063 7.50264L13.9058 7.50273L13.9052 7.50282L13.9046 7.5029L13.9041 7.50299L13.9035 7.50308L13.9029 7.50316L13.9024 7.50325L13.9018 7.50334L13.9012 7.50342L13.9007 7.50351L13.9001 7.5036L13.8996 7.50368L13.899 7.50377L13.8984 7.50385L13.8979 7.50394L13.8973 7.50403L13.8967 7.50411L13.8962 7.5042L13.8956 7.50428L13.8951 7.50437L13.8945 7.50446L13.8939 7.50454L13.8934 7.50463L13.8928 7.50471L13.8923 7.5048L13.8917 7.50488L13.8911 7.50497L13.8906 7.50506L13.89 7.50514L13.8895 7.50523L13.8889 7.50531L13.8884 7.5054L13.8878 7.50548L13.8873 7.50557L13.8867 7.50565L13.8861 7.50574L13.8856 7.50582L13.885 7.50591L13.8845 7.50599L13.8839 7.50607L13.8834 7.50616L13.8828 7.50624L13.8823 7.50633L13.8817 7.50641L13.8812 7.5065L13.8806 7.50658L13.8831 7.32096C13.9018 6.9076 13.8806 6.49808 13.7783 6.0997C13.5281 4.73819 12.8139 3.5718 11.8161 2.69643L11.8161 2.69642L11.8153 2.69577C10.8226 1.85981 9.5909 1.34821 8.18579 1.31641L8.18581 1.31564L8.17709 1.31697L8.14326 1.32216C7.8089 1.2916 7.44191 1.30713 7.08163 1.36234C6.3169 1.47951 5.57722 1.75759 4.93651 2.14396L4.9361 2.14329L4.9294 2.14915C4.53135 2.49741 4.10347 2.9337 3.77419 3.47969L3.85447 3.53863C4.6828 2.60181 5.82982 1.90029 7.17335 1.69443C7.4889 1.64608 7.81102 1.63709 8.13682 1.62807L8.13683 1.62846L8.14301 1.62751L8.17826 1.62211C11.1864 1.72978 13.5968 4.27244 13.5315 7.27467C13.5315 7.27487 13.5315 7.27507 13.5315 7.27527L13.5129 7.68525L13.5119 7.68521L13.5134 7.69509L13.5137 7.69699C13.5199 7.73754 13.5287 7.79532 13.5915 7.84139C13.6542 7.88745 13.712 7.87858 13.7525 7.87236L13.7544 7.87206L13.7554 7.87192L13.7563 7.87178L13.7572 7.87163L13.7582 7.87149L13.7591 7.87135L13.76 7.8712L13.761 7.87106L13.7619 7.87092L13.7628 7.87077L13.7638 7.87063L13.7647 7.87049L13.7657 7.87034L13.7666 7.8702L13.7675 7.87006L13.7685 7.86991L13.7694 7.86977L13.7703 7.86963L13.7713 7.86949L13.7722 7.86934L13.7731 7.8692L13.7741 7.86906L13.775 7.86891L13.7759 7.86877L13.7769 7.86863L13.7778 7.86848L13.7787 7.86834L13.7797 7.8682L13.7806 7.86805L13.7815 7.86791L13.7825 7.86777L13.7834 7.86762L13.7843 7.86748L13.7853 7.86734L13.7862 7.86719L13.7871 7.86705L13.7881 7.86691L13.789 7.86677L13.7899 7.86662L13.7909 7.86648L13.7918 7.86634L13.7927 7.86619L13.7937 7.86605L13.7946 7.86591L13.7955 7.86576L13.7965 7.86562L13.7974 7.86548L13.7983 7.86533L13.7993 7.86519L13.8002 7.86505L13.8011 7.86491L13.8021 7.86476L13.803 7.86462L13.8039 7.86448L13.8049 7.86433L13.8058 7.86419L13.8067 7.86405L13.8077 7.86391L13.8086 7.86376L13.8095 7.86362L13.8105 7.86348L13.8114 7.86333L13.8123 7.86319L13.8133 7.86305L13.8142 7.86291L13.8151 7.86276L13.8161 7.86262L13.817 7.86248L13.8179 7.86234L13.8189 7.86219L13.8198 7.86205L13.8207 7.86191L13.8216 7.86177L13.8226 7.86162L13.8235 7.86148L13.8244 7.86134L13.8254 7.8612L13.8263 7.86105L13.8272 7.86091L13.8282 7.86077L13.8291 7.86063L13.83 7.86048L13.8309 7.86034L13.8319 7.8602L13.8328 7.86006L13.8337 7.85991L13.8347 7.85977L13.8356 7.85963L13.8365 7.85949L13.8374 7.85935L13.8384 7.8592L13.8393 7.85906L13.8402 7.85892L13.8412 7.85878L13.8421 7.85863L13.843 7.85849L13.8439 7.85835L13.8449 7.85821L13.8458 7.85807L13.8467 7.85792L13.8476 7.85778L13.8486 7.85764L13.8495 7.8575L13.8504 7.85736L13.8513 7.85722L13.8523 7.85707L13.8532 7.85693L13.8541 7.85679L13.855 7.85665L13.856 7.85651L13.8569 7.85636L13.8578 7.85622L13.8587 7.85608L13.8597 7.85594L13.8606 7.8558L13.8615 7.85566L13.8624 7.85552L13.8634 7.85537L13.8643 7.85523L13.8652 7.85509L13.8661 7.85495L13.867 7.85481L13.868 7.85467L13.8689 7.85453L13.8698 7.85439L13.8707 7.85424L13.8716 7.8541L13.8726 7.85396L13.8735 7.85382L13.8744 7.85368L13.8753 7.85354L13.8763 7.8534L13.8772 7.85326L13.8781 7.85312L13.879 7.85298L13.8799 7.85283L13.8808 7.85269L13.8818 7.85255L13.8827 7.85241L13.8836 7.85227L13.8845 7.85213L13.8854 7.85199L13.8864 7.85185L13.8873 7.85171L13.8882 7.85157L13.8891 7.85143L13.89 7.85129L13.8909 7.85115L13.8919 7.85101L13.8928 7.85087L13.8937 7.85073L13.8946 7.85059L13.8955 7.85045L13.8964 7.85031L13.8973 7.85017L13.8983 7.85003L13.8992 7.84989L13.9001 7.84975L13.901 7.84961L13.9019 7.84947L13.9028 7.84933L13.9037 7.84919L13.9046 7.84905L13.9056 7.84891L13.9065 7.84877L13.9074 7.84863L13.9083 7.84849L13.9092 7.84835L13.9101 7.84821L13.911 7.84807L13.9119 7.84793L13.9128 7.84779L13.9137 7.84765L13.9147 7.84751L13.9156 7.84738L13.9165 7.84724L13.9174 7.8471L13.9183 7.84696L13.9192 7.84682L13.9201 7.84668L13.921 7.84654L13.9219 7.8464L13.9228 7.84626L13.9237 7.84613L13.9246 7.84599L13.9255 7.84585L13.9264 7.84571L13.9273 7.84557L13.9282 7.84543L13.9291 7.84529L13.93 7.84516L13.9309 7.84502L13.9319 7.84488L13.9328 7.84474L13.9337 7.8446L13.9346 7.84446L13.9355 7.84433L13.9364 7.84419L13.9373 7.84405L13.9382 7.84391L13.9391 7.84377L13.94 7.84364L13.9409 7.8435L13.9418 7.84336L13.9427 7.84322L13.9435 7.84309L13.9444 7.84295L13.9453 7.84281L13.9462 7.84267L13.9471 7.84254L13.948 7.8424L13.9489 7.84226L13.9498 7.84213L13.9507 7.84199L13.9516 7.84185L13.9525 7.84171L13.9534 7.84158L13.9543 7.84144L13.9552 7.8413L13.9561 7.84117L13.957 7.84103L13.9579 7.84089L13.9588 7.84076L13.9596 7.84062L13.9605 7.84048L13.9614 7.84035L13.9623 7.84021L13.9632 7.84007L13.9641 7.83994L13.965 7.8398L13.9659 7.83967L13.9668 7.83953L13.9676 7.83939L13.9685 7.83926L13.9694 7.83912L13.9703 7.83899L13.9712 7.83885L13.9721 7.83872L13.973 7.83858L13.9738 7.83844L13.9747 7.83831L13.9756 7.83817L13.9765 7.83804L13.9774 7.8379L13.9783 7.83777L13.9791 7.83763L13.98 7.8375L13.9809 7.83736L13.9818 7.83723L13.9827 7.83709L13.9835 7.83696L13.9844 7.83682L13.9853 7.83669L13.9862 7.83655L13.9871 7.83642L13.9879 7.83629L13.9888 7.83615L13.9897 7.83602L13.9906 7.83588L13.9914 7.83575L13.9923 7.83561L13.9932 7.83548L13.9941 7.83535L13.9949 7.83521L13.9958 7.83508L13.9967 7.83495L13.9975 7.83481L13.9984 7.83468L13.9993 7.83454L14.0002 7.83441L14.001 7.83428L14.0019 7.83414L14.0028 7.83401L14.0036 7.83388L14.0045 7.83375L14.0054 7.83361L14.0062 7.83348L14.0071 7.83335L14.008 7.83321L14.0088 7.83308L14.0097 7.83295L14.0106 7.83282L14.0114 7.83268L14.0123 7.83255L14.0132 7.83242L14.014 7.83229L14.0149 7.83215L14.0158 7.83202L14.0166 7.83189L14.0175 7.83176L14.0183 7.83163L14.0192 7.8315L14.0201 7.83136L14.0209 7.83123L14.0218 7.8311L14.0226 7.83097L14.0235 7.83084L14.0243 7.83071L14.0252 7.83058L14.0261 7.83044L14.0269 7.83031L14.0278 7.83018L14.0286 7.83005L14.0295 7.82992L14.0303 7.82979L14.0312 7.82966L14.032 7.82953L14.0329 7.8294L14.0337 7.82927L14.0346 7.82914L14.0354 7.82901L14.0363 7.82888L14.0371 7.82875L14.038 7.82862L14.0388 7.82849L14.0397 7.82836L14.0405 7.82823L14.0414 7.8281L14.0422 7.82797L14.0431 7.82784L14.0439 7.82771L14.0447 7.82758L14.0456 7.82745L14.0464 7.82732L14.0473 7.82719L14.0481 7.82707L14.0489 7.82694L14.0498 7.82681L14.0506 7.82668L14.0515 7.82655L14.0523 7.82642L14.0531 7.82629L14.054 7.82617L14.0548 7.82604L14.0556 7.82591L14.0565 7.82578L14.0573 7.82565L14.0582 7.82553L14.059 7.8254L14.0598 7.82527L14.0607 7.82514L14.0615 7.82502L14.0623 7.82489L14.0631 7.82476L14.064 7.82463L14.0648 7.82451L14.0656 7.82438L14.0665 7.82425L14.0673 7.82413L14.0681 7.824L14.0689 7.82387L14.0698 7.82375L14.0706 7.82362L14.0714 7.82349L14.0722 7.82337L14.0731 7.82324L14.0739 7.82312L14.0747 7.82299L14.0755 7.82286L14.0763 7.82274L14.0772 7.82261L14.078 7.82249L14.0788 7.82236L14.0796 7.82224L14.0804 7.82211L14.0813 7.82199L14.0821 7.82186L14.0829 7.82174L14.0837 7.82161L14.0845 7.82149L14.0853 7.82136L14.0861 7.82124L14.087 7.82111L14.0878 7.82099L14.0886 7.82086L14.0894 7.82074L14.0902 7.82062L14.091 7.82049L14.0918 7.82037L14.0926 7.82025L14.0934 7.82012L14.0942 7.82L14.095 7.81987L14.0958 7.81975L14.0966 7.81963L14.0974 7.81951L14.0982 7.81938L14.0991 7.81926L14.0999 7.81914L14.1007 7.81901L14.1015 7.81889L14.1023 7.81877L14.103 7.81865L14.1038 7.81852L14.1046 7.8184L14.1054 7.81828L14.1062 7.81816L14.107 7.81804L14.1078 7.81791L14.1086 7.81779L14.1094 7.81767L14.1102 7.81755L14.111 7.81743L14.1118 7.81731L14.1126 7.81719L14.1134 7.81707L14.1142 7.81695L14.1149 7.81682L14.1157 7.8167L14.1165 7.81658L14.1173 7.81646L14.1181 7.81634L14.1189 7.81622L14.1196 7.8161L14.1204 7.81598L14.1212 7.81586L14.122 7.81574L14.1228 7.81562L14.1236 7.8155L14.1243 7.81539L14.1251 7.81527L14.1259 7.81515L14.1267 7.81503L14.1274 7.81491L14.1282 7.81479L14.129 7.81467L14.1298 7.81455L14.1305 7.81443L14.1313 7.81432L14.1321 7.8142L14.1329 7.81408L14.1336 7.81396L14.1344 7.81384L14.1352 7.81373L14.1359 7.81361L14.1367 7.81349L14.1375 7.81337L14.1382 7.81326L14.139 7.81314L14.1398 7.81302L14.1405 7.81291L14.1413 7.81279L14.142 7.81267L14.1428 7.81256L14.1436 7.81244L14.1443 7.81232L14.1451 7.81221L14.1458 7.81209L14.1466 7.81198L14.1473 7.81186L14.1481 7.81174L14.1489 7.81163L14.1496 7.81151L14.1504 7.8114L14.1511 7.81128L14.1519 7.81117L14.1526 7.81105L14.1534 7.81094L14.1541 7.81082L14.1549 7.81071L14.1556 7.81059L14.1563 7.81048L14.1571 7.81037L14.1578 7.81025L14.1586 7.81014L14.1593 7.81002L14.1601 7.80991L14.1608 7.8098L14.1615 7.80968L14.1623 7.80957L14.163 7.80946L14.1638 7.80934L14.1645 7.80923L14.1652 7.80912L14.166 7.80901L14.1667 7.80889L14.1674 7.80878L14.1682 7.80867L14.1689 7.80856L14.1696 7.80844L14.1704 7.80833L14.1711 7.80822L14.1718 7.80811L14.1725 7.808L14.1733 7.80789L14.174 7.80778L14.1747 7.80766L14.1754 7.80755L14.1762 7.80744L14.1769 7.80733L14.1776 7.80722L14.1783 7.80711L14.1791 7.807L14.1798 7.80689L14.1805 7.80678L14.1812 7.80667L14.1819 7.80656L14.1826 7.80645L14.1834 7.80634L14.1841 7.80623L14.1848 7.80612L14.1855 7.80601L14.1862 7.80591L14.1869 7.8058L14.1876 7.80569L14.1883 7.80558L14.189 7.80547L14.1897 7.80536L14.1904 7.80525L14.1912 7.80515L14.1919 7.80504L14.1926 7.80493L14.1933 7.80482L14.2732 7.79257L14.2265 7.72652C14.1821 7.66382 14.171 7.59561 14.1585 7.51458Z" fill="#BEBEBE" stroke="#BEBEBE" stroke-width="0.1"/>
<path d="M9.44312 9.90218L9.44231 9.90216L9.44368 9.91115C9.45092 9.95837 9.47024 10.0066 9.50291 10.0424C9.53678 10.0795 9.58574 10.1033 9.64481 10.0942C9.69203 10.087 9.7403 10.0677 9.77607 10.035C9.81215 10.0021 9.83563 9.95485 9.82856 9.89795L9.9037 7.19665C9.9037 7.19651 9.90371 7.19637 9.90372 7.19623C9.95148 6.13869 9.10285 5.26397 8.00962 5.22247L8.00966 5.22155L8.00015 5.22301L7.96512 5.22838C6.90925 5.18322 6.07741 6.02531 6.02972 7.0763L6.0297 7.0763L6.02968 7.07756L5.97277 9.90205C5.91834 10.5801 5.37376 11.1332 4.66667 11.1241C4.66657 11.1241 4.66647 11.1241 4.66637 11.1241L2.37181 11.0674L2.32124 11.0662L2.32058 11.1168L2.31736 11.3622L2.31672 11.4115L2.36597 11.4129L4.61443 11.4754C4.66414 11.49 4.7197 11.4917 4.7702 11.4891C4.82333 11.4863 4.87523 11.4783 4.91475 11.4723L4.91554 11.4722C5.65583 11.3587 6.27426 10.7173 6.2783 9.91486L6.37511 7.08349L6.3753 7.0835L6.37507 7.07916C6.35474 6.69141 6.53115 6.30956 6.84433 6.02357C7.15676 5.73827 7.57036 5.59579 7.96846 5.61386L7.96842 5.61485L7.9783 5.61333L8.0137 5.60791C8.88586 5.63459 9.54856 6.36247 9.51842 7.19547L9.5184 7.19588L9.44312 9.90218Z" fill="#BEBEBE" stroke="#BEBEBE" stroke-width="0.1"/>
<path d="M14.5581 11.4548L14.5519 11.4143L14.5109 11.4124C14.088 11.3932 13.6914 11.5775 13.5098 11.822C13.2207 12.1183 13.0318 12.5243 13.0126 12.9474L13.0126 12.9474L13.0125 12.9483L12.9341 15.9C12.9097 16.7744 12.1808 17.4394 11.3464 17.4092L11.3464 17.4083L11.337 17.4098L11.3016 17.4152C10.4294 17.3885 9.76672 16.6606 9.79687 15.8276L9.79688 15.8273L9.941 10.9056L9.94183 10.9057L9.94045 10.8966C9.93321 10.8494 9.91388 10.8011 9.88122 10.7653C9.84734 10.7282 9.79838 10.7045 9.73932 10.7135C9.6921 10.7208 9.64383 10.7401 9.60806 10.7728C9.57199 10.8057 9.54851 10.8529 9.55556 10.9098L9.41157 15.8267C9.35756 16.8447 10.2065 17.7191 11.2593 17.7668L11.2592 17.7678L11.2691 17.7663L11.3011 17.7614C11.4303 17.7824 11.5158 17.7694 11.6327 17.7514L11.6343 17.7512C12.5363 17.613 13.2138 16.8379 13.2396 15.9122L13.2396 15.9121L13.3181 12.9603L13.3182 12.9603L13.3181 12.9569C13.3037 12.6097 13.4518 12.3136 13.6914 12.0794C13.9388 11.8835 14.2348 11.7603 14.5467 11.7517L14.6033 11.7501L14.5948 11.6941L14.5581 11.4548Z" fill="#BEBEBE" stroke="#BEBEBE" stroke-width="0.1"/>
</svg>
