<svg width="53" height="13" viewBox="0 0 53 13" fill="none" xmlns="http://www.w3.org/2000/svg">
<g clip-path="url(#clip0_32_1652)">
<path d="M3.70781 5.69844H4.50781V4.89844H3.70781V5.69844ZM8.50781 5.69844H9.30781V4.89844H8.50781V5.69844ZM8.58781 7.85844C8.34563 8.18135 8.03159 8.44344 7.67057 8.62395C7.30954 8.80446 6.91145 8.89844 6.50781 8.89844C6.10418 8.89844 5.70608 8.80446 5.34506 8.62395C4.98403 8.44344 4.66999 8.18135 4.42781 7.85844L3.78781 8.33844C5.14781 10.152 7.86781 10.152 9.22781 8.33844L8.58781 7.85844V7.85844ZM1.30781 4.89844V2.89844H0.507813V4.89844H1.30781ZM2.50781 1.69844H4.50781V0.898438H2.50781V1.69844ZM1.30781 2.89844C1.30781 2.58018 1.43424 2.27495 1.65928 2.04991C1.88433 1.82487 2.18955 1.69844 2.50781 1.69844V0.898438C1.97738 0.898438 1.46867 1.10915 1.0936 1.48422C0.718526 1.8593 0.507813 2.368 0.507812 2.89844H1.30781ZM0.507813 8.89844V10.8984H1.30781V8.89844H0.507813ZM2.50781 12.8984H4.50781V12.0984H2.50781V12.8984ZM0.507813 10.8984C0.507813 11.4289 0.718526 11.9376 1.0936 12.3127C1.46867 12.6877 1.97738 12.8984 2.50781 12.8984V12.0984C2.18955 12.0984 1.88433 11.972 1.65928 11.747C1.43424 11.5219 1.30781 11.2167 1.30781 10.8984H0.507813ZM8.50781 1.69844H10.5078V0.898438H8.50781V1.69844ZM11.7078 2.89844V4.89844H12.5078V2.89844H11.7078ZM10.5078 1.69844C10.8261 1.69844 11.1313 1.82487 11.3563 2.04991C11.5814 2.27495 11.7078 2.58018 11.7078 2.89844H12.5078C12.5078 2.368 12.2971 1.8593 11.922 1.48422C11.547 1.10915 11.0382 0.898438 10.5078 0.898438V1.69844ZM8.50781 12.8984H10.5078V12.0984H8.50781V12.8984ZM12.5078 10.8984V8.89844H11.7078V10.8984H12.5078ZM10.5078 12.8984C11.0382 12.8984 11.547 12.6877 11.922 12.3127C12.2971 11.9376 12.5078 11.4289 12.5078 10.8984H11.7078C11.7078 11.2167 11.5814 11.5219 11.3563 11.747C11.1313 11.972 10.8261 12.0984 10.5078 12.0984V12.8984Z" fill="#EE5731"/>
</g>
<path d="M20.2754 2.78906V9.89844H19.333V2.78906H20.2754ZM23.2539 5.9873V6.75879H20.0703V5.9873H23.2539ZM23.7373 2.78906V3.56055H20.0703V2.78906H23.7373ZM27.6729 8.99512V6.27539C27.6729 6.06706 27.6305 5.88639 27.5459 5.7334C27.4645 5.57715 27.3408 5.45671 27.1748 5.37207C27.0088 5.28743 26.8037 5.24512 26.5596 5.24512C26.3317 5.24512 26.1315 5.28418 25.959 5.3623C25.7897 5.44043 25.6562 5.54297 25.5586 5.66992C25.4642 5.79688 25.417 5.93359 25.417 6.08008H24.5137C24.5137 5.89128 24.5625 5.7041 24.6602 5.51855C24.7578 5.33301 24.8978 5.16536 25.0801 5.01562C25.2656 4.86263 25.487 4.74219 25.7441 4.6543C26.0046 4.56315 26.2943 4.51758 26.6133 4.51758C26.9974 4.51758 27.3359 4.58268 27.6289 4.71289C27.9251 4.8431 28.1562 5.04004 28.3223 5.30371C28.4915 5.56413 28.5762 5.89128 28.5762 6.28516V8.74609C28.5762 8.92188 28.5908 9.10905 28.6201 9.30762C28.6527 9.50618 28.6999 9.67708 28.7617 9.82031V9.89844H27.8193C27.7738 9.79427 27.738 9.65592 27.7119 9.4834C27.6859 9.30762 27.6729 9.14486 27.6729 8.99512ZM27.8291 6.69531L27.8389 7.33008H26.9258C26.6686 7.33008 26.4391 7.35124 26.2373 7.39355C26.0355 7.43262 25.8662 7.49284 25.7295 7.57422C25.5928 7.6556 25.4886 7.75814 25.417 7.88184C25.3454 8.00228 25.3096 8.14388 25.3096 8.30664C25.3096 8.47266 25.347 8.62402 25.4219 8.76074C25.4967 8.89746 25.609 9.00651 25.7588 9.08789C25.9118 9.16602 26.099 9.20508 26.3203 9.20508C26.597 9.20508 26.8411 9.14648 27.0527 9.0293C27.2643 8.91211 27.432 8.76888 27.5557 8.59961C27.6826 8.43034 27.751 8.26595 27.7607 8.10645L28.1465 8.54102C28.1237 8.67773 28.0618 8.8291 27.9609 8.99512C27.86 9.16113 27.7249 9.32064 27.5557 9.47363C27.3896 9.62337 27.1911 9.7487 26.96 9.84961C26.7321 9.94727 26.4749 9.99609 26.1885 9.99609C25.8304 9.99609 25.5163 9.92611 25.2461 9.78613C24.9792 9.64616 24.7708 9.45898 24.6211 9.22461C24.4746 8.98698 24.4014 8.72168 24.4014 8.42871C24.4014 8.14551 24.4567 7.89648 24.5674 7.68164C24.6781 7.46354 24.8376 7.28288 25.0459 7.13965C25.2542 6.99316 25.5049 6.88249 25.7979 6.80762C26.0908 6.73275 26.418 6.69531 26.7793 6.69531H27.8291ZM32.1113 9.25391C32.3262 9.25391 32.5247 9.20996 32.707 9.12207C32.8893 9.03418 33.0391 8.91374 33.1562 8.76074C33.2734 8.60449 33.3402 8.42708 33.3564 8.22852H34.2158C34.1995 8.54102 34.0938 8.83236 33.8984 9.10254C33.7064 9.36947 33.4541 9.58594 33.1416 9.75195C32.8291 9.91471 32.4857 9.99609 32.1113 9.99609C31.7142 9.99609 31.3675 9.92611 31.0713 9.78613C30.7783 9.64616 30.5342 9.4541 30.3389 9.20996C30.1468 8.96582 30.002 8.68587 29.9043 8.37012C29.8099 8.05111 29.7627 7.71419 29.7627 7.35938V7.1543C29.7627 6.79948 29.8099 6.46419 29.9043 6.14844C30.002 5.82943 30.1468 5.54785 30.3389 5.30371C30.5342 5.05957 30.7783 4.86751 31.0713 4.72754C31.3675 4.58757 31.7142 4.51758 32.1113 4.51758C32.5247 4.51758 32.8861 4.60221 33.1953 4.77148C33.5046 4.9375 33.7471 5.16536 33.9229 5.45508C34.1019 5.74154 34.1995 6.06706 34.2158 6.43164H33.3564C33.3402 6.21354 33.2783 6.0166 33.1709 5.84082C33.0667 5.66504 32.9235 5.52507 32.7412 5.4209C32.5622 5.31348 32.3522 5.25977 32.1113 5.25977C31.8346 5.25977 31.6019 5.3151 31.4131 5.42578C31.2275 5.5332 31.0794 5.67969 30.9688 5.86523C30.8613 6.04753 30.7832 6.25098 30.7344 6.47559C30.6888 6.69694 30.666 6.92318 30.666 7.1543V7.35938C30.666 7.59049 30.6888 7.81836 30.7344 8.04297C30.7799 8.26758 30.8564 8.47103 30.9639 8.65332C31.0745 8.83561 31.2227 8.9821 31.4082 9.09277C31.597 9.2002 31.8314 9.25391 32.1113 9.25391ZM37.4238 9.99609C37.056 9.99609 36.7223 9.93424 36.4229 9.81055C36.1266 9.68359 35.8711 9.50618 35.6562 9.27832C35.4447 9.05046 35.2819 8.78027 35.168 8.46777C35.054 8.15527 34.9971 7.81348 34.9971 7.44238V7.2373C34.9971 6.80762 35.0605 6.42513 35.1875 6.08984C35.3145 5.7513 35.487 5.46484 35.7051 5.23047C35.9232 4.99609 36.1706 4.81868 36.4473 4.69824C36.724 4.5778 37.0104 4.51758 37.3066 4.51758C37.6842 4.51758 38.0098 4.58268 38.2832 4.71289C38.5599 4.8431 38.7861 5.02539 38.9619 5.25977C39.1377 5.49089 39.2679 5.76432 39.3525 6.08008C39.4372 6.39258 39.4795 6.73438 39.4795 7.10547V7.51074H35.5342V6.77344H38.5762V6.70508C38.5632 6.4707 38.5143 6.24284 38.4297 6.02148C38.3483 5.80013 38.2181 5.61784 38.0391 5.47461C37.86 5.33138 37.6159 5.25977 37.3066 5.25977C37.1016 5.25977 36.9128 5.30371 36.7402 5.3916C36.5677 5.47624 36.4196 5.60319 36.2959 5.77246C36.1722 5.94173 36.0762 6.14844 36.0078 6.39258C35.9395 6.63672 35.9053 6.91829 35.9053 7.2373V7.44238C35.9053 7.69303 35.9395 7.92904 36.0078 8.15039C36.0794 8.36849 36.182 8.56055 36.3154 8.72656C36.4521 8.89258 36.6165 9.02279 36.8086 9.11719C37.0039 9.21159 37.2253 9.25879 37.4727 9.25879C37.7917 9.25879 38.0618 9.19368 38.2832 9.06348C38.5046 8.93327 38.6982 8.75911 38.8643 8.54102L39.4111 8.97559C39.2972 9.14811 39.1523 9.3125 38.9766 9.46875C38.8008 9.625 38.5843 9.75195 38.3271 9.84961C38.0732 9.94727 37.7721 9.99609 37.4238 9.99609ZM44.1621 2.78906V9.89844H43.2197V2.78906H44.1621ZM47.7998 9.89844H46.3154L46.3252 9.13184H47.7998C48.3076 9.13184 48.7308 9.02604 49.0693 8.81445C49.4079 8.59961 49.6618 8.30013 49.8311 7.91602C50.0036 7.52865 50.0898 7.07617 50.0898 6.55859V6.12402C50.0898 5.71712 50.041 5.35579 49.9434 5.04004C49.8457 4.72103 49.7025 4.45247 49.5137 4.23438C49.3249 4.01302 49.0938 3.84538 48.8203 3.73145C48.5501 3.61751 48.2393 3.56055 47.8877 3.56055H46.2861V2.78906H47.8877C48.3532 2.78906 48.778 2.86719 49.1621 3.02344C49.5462 3.17643 49.8766 3.39941 50.1533 3.69238C50.4333 3.9821 50.6481 4.33366 50.7979 4.74707C50.9476 5.15723 51.0225 5.61947 51.0225 6.13379V6.55859C51.0225 7.07292 50.9476 7.53678 50.7979 7.9502C50.6481 8.36035 50.4316 8.71029 50.1484 9C49.8685 9.28971 49.5299 9.5127 49.1328 9.66895C48.7389 9.82194 48.2946 9.89844 47.7998 9.89844ZM46.8184 2.78906V9.89844H45.876V2.78906H46.8184Z" fill="#EE5731"/>
<defs>
<clipPath id="clip0_32_1652">
<rect width="12" height="12" fill="white" transform="translate(0.507812 0.898438)"/>
</clipPath>
</defs>
</svg>

