<svg width="72" height="17" viewBox="0 0 72 17" fill="none" xmlns="http://www.w3.org/2000/svg">
<path d="M12.6831 3.87811C12.6298 3.87811 12.5765 3.86478 12.5298 3.83811C11.2498 3.17811 10.1431 2.89811 8.81647 2.89811C7.49647 2.89811 6.24314 3.21145 5.10314 3.83811C4.94314 3.92478 4.74314 3.86478 4.64981 3.70478C4.60823 3.62681 4.5989 3.53564 4.62384 3.45087C4.64877 3.36609 4.70597 3.29449 4.78314 3.25145C6.02314 2.57811 7.38314 2.23145 8.81647 2.23145C10.2365 2.23145 11.4765 2.54478 12.8365 3.24478C13.0031 3.33145 13.0631 3.53145 12.9765 3.69145C12.9501 3.74702 12.9086 3.79402 12.8567 3.82705C12.8048 3.86007 12.7446 3.87777 12.6831 3.87811V3.87811ZM3.14314 7.37811C3.08169 7.37869 3.02128 7.36222 2.96861 7.33056C2.91594 7.29889 2.87308 7.25325 2.84477 7.1987C2.81646 7.14415 2.80382 7.08283 2.80823 7.02154C2.81265 6.96024 2.83397 6.90137 2.86981 6.85145C3.52981 5.91811 4.36981 5.18478 5.36981 4.67145C7.46314 3.59145 10.1431 3.58478 12.2431 4.66478C13.2431 5.17811 14.0831 5.90478 14.7431 6.83145C14.7687 6.86727 14.7869 6.90781 14.7968 6.95072C14.8066 6.99363 14.8078 7.03806 14.8004 7.08145C14.793 7.12484 14.777 7.16632 14.7534 7.20351C14.7299 7.2407 14.6992 7.27285 14.6631 7.29811C14.5098 7.40478 14.3031 7.37145 14.1965 7.21811C13.6127 6.3917 12.8372 5.71915 11.9365 5.25811C10.0231 4.27811 7.57647 4.27811 5.66981 5.26478C4.76314 5.73145 4.00314 6.39811 3.40314 7.23811C3.34981 7.33145 3.24981 7.37811 3.14314 7.37811V7.37811ZM7.30981 15.4248C7.26609 15.4253 7.22275 15.4167 7.18256 15.3995C7.14237 15.3822 7.10624 15.3568 7.07647 15.3248C6.49647 14.7448 6.18314 14.3714 5.73647 13.5648C5.27647 12.7448 5.03647 11.7448 5.03647 10.6714C5.03647 8.69145 6.72981 7.07811 8.80981 7.07811C10.8898 7.07811 12.5831 8.69145 12.5831 10.6714C12.5831 10.8581 12.4365 11.0048 12.2498 11.0048C12.0631 11.0048 11.9165 10.8581 11.9165 10.6714C11.9165 9.05811 10.5231 7.74478 8.80981 7.74478C7.09647 7.74478 5.70314 9.05811 5.70314 10.6714C5.70314 11.6314 5.91647 12.5181 6.32314 13.2381C6.74981 14.0048 7.04314 14.3314 7.55647 14.8514C7.68314 14.9848 7.68314 15.1914 7.55647 15.3248C7.48314 15.3914 7.39647 15.4248 7.30981 15.4248ZM12.0898 14.1914C11.2965 14.1914 10.5965 13.9914 10.0231 13.5981C9.02981 12.9248 8.43647 11.8314 8.43647 10.6714C8.43647 10.4848 8.58314 10.3381 8.76981 10.3381C8.95647 10.3381 9.10314 10.4848 9.10314 10.6714C9.10314 11.6114 9.58314 12.4981 10.3965 13.0448C10.8698 13.3648 11.4231 13.5181 12.0898 13.5181C12.2498 13.5181 12.5165 13.4981 12.7831 13.4514C12.9631 13.4181 13.1365 13.5381 13.1698 13.7248C13.2031 13.9048 13.0831 14.0781 12.8965 14.1114C12.5165 14.1848 12.1831 14.1914 12.0898 14.1914V14.1914ZM10.7498 15.5648C10.7231 15.5648 10.6898 15.5581 10.6631 15.5514C9.60314 15.2581 8.90981 14.8648 8.18314 14.1514C7.72266 13.6968 7.35753 13.1548 7.10912 12.5572C6.86071 11.9597 6.73402 11.3186 6.73647 10.6714C6.73647 9.59145 7.65647 8.71145 8.78981 8.71145C9.92314 8.71145 10.8431 9.59145 10.8431 10.6714C10.8431 11.3848 11.4631 11.9648 12.2298 11.9648C12.9965 11.9648 13.6165 11.3848 13.6165 10.6714C13.6165 8.15811 11.4498 6.11811 8.78314 6.11811C6.88981 6.11811 5.15647 7.17145 4.37647 8.80478C4.11647 9.34478 3.98314 9.97811 3.98314 10.6714C3.98314 11.1914 4.02981 12.0114 4.42981 13.0781C4.49647 13.2514 4.40981 13.4448 4.23647 13.5048C4.06314 13.5714 3.86981 13.4781 3.80981 13.3114C3.48857 12.4683 3.32365 11.5737 3.32314 10.6714C3.32314 9.87145 3.47647 9.14478 3.77647 8.51145C4.66314 6.65145 6.62981 5.44478 8.78314 5.44478C11.8165 5.44478 14.2831 7.78478 14.2831 10.6648C14.2831 11.7448 13.3631 12.6248 12.2298 12.6248C11.0965 12.6248 10.1765 11.7448 10.1765 10.6648C10.1765 9.95145 9.55647 9.37145 8.78981 9.37145C8.02314 9.37145 7.40314 9.95145 7.40314 10.6648C7.40314 11.8048 7.84314 12.8714 8.64981 13.6714C9.28314 14.2981 9.88981 14.6448 10.8298 14.9048C11.0098 14.9514 11.1098 15.1381 11.0631 15.3114C11.0298 15.4648 10.8898 15.5648 10.7498 15.5648V15.5648Z" fill="#EE5731"/>
<path d="M24.5774 4.78906V11.8984H23.635V4.78906H24.5774ZM27.5559 7.9873V8.75879H24.3723V7.9873H27.5559ZM28.0393 4.78906V5.56055H24.3723V4.78906H28.0393ZM30.0071 6.61523V11.8984H29.0989V6.61523H30.0071ZM29.0305 5.21387C29.0305 5.06738 29.0745 4.94368 29.1624 4.84277C29.2535 4.74186 29.387 4.69141 29.5627 4.69141C29.7353 4.69141 29.8671 4.74186 29.9583 4.84277C30.0527 4.94368 30.0999 5.06738 30.0999 5.21387C30.0999 5.35384 30.0527 5.47428 29.9583 5.5752C29.8671 5.67285 29.7353 5.72168 29.5627 5.72168C29.387 5.72168 29.2535 5.67285 29.1624 5.5752C29.0745 5.47428 29.0305 5.35384 29.0305 5.21387ZM32.3606 7.74316V11.8984H31.4573V6.61523H32.3118L32.3606 7.74316ZM32.1458 9.05664L31.7698 9.04199C31.773 8.68066 31.8267 8.34701 31.9309 8.04102C32.0351 7.73177 32.1816 7.46322 32.3704 7.23535C32.5592 7.00749 32.7838 6.83171 33.0442 6.70801C33.3079 6.58105 33.5992 6.51758 33.9182 6.51758C34.1786 6.51758 34.413 6.55339 34.6213 6.625C34.8297 6.69336 35.0071 6.80404 35.1536 6.95703C35.3033 7.11003 35.4172 7.30859 35.4954 7.55273C35.5735 7.79362 35.6125 8.08822 35.6125 8.43652V11.8984H34.7043V8.42676C34.7043 8.15007 34.6637 7.92871 34.5823 7.7627C34.5009 7.59342 34.3821 7.47135 34.2258 7.39648C34.0696 7.31836 33.8775 7.2793 33.6497 7.2793C33.425 7.2793 33.22 7.3265 33.0344 7.4209C32.8521 7.5153 32.6943 7.64551 32.5608 7.81152C32.4306 7.97754 32.328 8.16797 32.2532 8.38281C32.1816 8.5944 32.1458 8.81901 32.1458 9.05664ZM40.4075 6.61523H41.2278V11.7861C41.2278 12.2516 41.1334 12.6488 40.9446 12.9775C40.7558 13.3063 40.4921 13.5553 40.1536 13.7246C39.8183 13.8971 39.4309 13.9834 38.9915 13.9834C38.8092 13.9834 38.5943 13.9541 38.3469 13.8955C38.1028 13.8402 37.8619 13.7441 37.6243 13.6074C37.3899 13.474 37.193 13.2933 37.0334 13.0654L37.5071 12.5283C37.7284 12.7952 37.9596 12.9808 38.2004 13.085C38.4446 13.1891 38.6855 13.2412 38.9231 13.2412C39.2096 13.2412 39.4569 13.1875 39.6653 13.0801C39.8736 12.9727 40.0347 12.8132 40.1487 12.6016C40.2659 12.3932 40.3245 12.1361 40.3245 11.8301V7.77734L40.4075 6.61523ZM36.7698 9.31543V9.21289C36.7698 8.80924 36.817 8.44303 36.9114 8.11426C37.009 7.78223 37.1474 7.4974 37.3264 7.25977C37.5087 7.02214 37.7284 6.83984 37.9856 6.71289C38.2428 6.58268 38.5325 6.51758 38.8547 6.51758C39.1868 6.51758 39.4765 6.57617 39.7239 6.69336C39.9745 6.80729 40.1861 6.97493 40.3586 7.19629C40.5344 7.41439 40.6728 7.67806 40.7737 7.9873C40.8746 8.29655 40.9446 8.64648 40.9836 9.03711V9.48633C40.9478 9.8737 40.8778 10.222 40.7737 10.5312C40.6728 10.8405 40.5344 11.1042 40.3586 11.3223C40.1861 11.5404 39.9745 11.708 39.7239 11.8252C39.4732 11.9391 39.1803 11.9961 38.845 11.9961C38.5292 11.9961 38.2428 11.9294 37.9856 11.7959C37.7317 11.6624 37.5136 11.4753 37.3313 11.2344C37.149 10.9935 37.009 10.7103 36.9114 10.3848C36.817 10.056 36.7698 9.69954 36.7698 9.31543ZM37.6731 9.21289V9.31543C37.6731 9.5791 37.6991 9.8265 37.7512 10.0576C37.8066 10.2887 37.8896 10.4922 38.0002 10.668C38.1142 10.8438 38.259 10.9821 38.4348 11.083C38.6106 11.1807 38.8206 11.2295 39.0647 11.2295C39.3642 11.2295 39.6116 11.166 39.8069 11.0391C40.0022 10.9121 40.1568 10.7445 40.2708 10.5361C40.3879 10.3278 40.4791 10.1016 40.5442 9.85742V8.68066C40.5084 8.50163 40.453 8.3291 40.3782 8.16309C40.3066 7.99382 40.2122 7.84408 40.095 7.71387C39.981 7.5804 39.8394 7.47461 39.6702 7.39648C39.5009 7.31836 39.3023 7.2793 39.0745 7.2793C38.8271 7.2793 38.6139 7.33138 38.4348 7.43555C38.259 7.53646 38.1142 7.67643 38.0002 7.85547C37.8896 8.03125 37.8066 8.23633 37.7512 8.4707C37.6991 8.70182 37.6731 8.94922 37.6731 9.21289ZM44.7922 11.9961C44.4244 11.9961 44.0907 11.9342 43.7913 11.8105C43.495 11.6836 43.2395 11.5062 43.0247 11.2783C42.8131 11.0505 42.6503 10.7803 42.5364 10.4678C42.4224 10.1553 42.3655 9.81348 42.3655 9.44238V9.2373C42.3655 8.80762 42.429 8.42513 42.5559 8.08984C42.6829 7.7513 42.8554 7.46484 43.0735 7.23047C43.2916 6.99609 43.539 6.81868 43.8157 6.69824C44.0924 6.5778 44.3788 6.51758 44.675 6.51758C45.0527 6.51758 45.3782 6.58268 45.6516 6.71289C45.9283 6.8431 46.1545 7.02539 46.3303 7.25977C46.5061 7.49089 46.6363 7.76432 46.7209 8.08008C46.8056 8.39258 46.8479 8.73438 46.8479 9.10547V9.51074H42.9026V8.77344H45.9446V8.70508C45.9316 8.4707 45.8827 8.24284 45.7981 8.02148C45.7167 7.80013 45.5865 7.61784 45.4075 7.47461C45.2284 7.33138 44.9843 7.25977 44.675 7.25977C44.47 7.25977 44.2812 7.30371 44.1086 7.3916C43.9361 7.47624 43.788 7.60319 43.6643 7.77246C43.5406 7.94173 43.4446 8.14844 43.3762 8.39258C43.3079 8.63672 43.2737 8.91829 43.2737 9.2373V9.44238C43.2737 9.69303 43.3079 9.92904 43.3762 10.1504C43.4478 10.3685 43.5504 10.5605 43.6838 10.7266C43.8206 10.8926 43.9849 11.0228 44.177 11.1172C44.3723 11.2116 44.5937 11.2588 44.8411 11.2588C45.1601 11.2588 45.4303 11.1937 45.6516 11.0635C45.873 10.9333 46.0667 10.7591 46.2327 10.541L46.7795 10.9756C46.6656 11.1481 46.5208 11.3125 46.345 11.4688C46.1692 11.625 45.9527 11.752 45.6956 11.8496C45.4417 11.9473 45.1405 11.9961 44.7922 11.9961ZM48.8059 7.44531V11.8984H47.9026V6.61523H48.7815L48.8059 7.44531ZM50.4563 6.58594L50.4514 7.42578C50.3765 7.40951 50.3049 7.39974 50.2366 7.39648C50.1715 7.38997 50.0966 7.38672 50.012 7.38672C49.8036 7.38672 49.6197 7.41927 49.4602 7.48438C49.3007 7.54948 49.1656 7.64062 49.0549 7.75781C48.9443 7.875 48.8564 8.01497 48.7913 8.17773C48.7294 8.33724 48.6887 8.51302 48.6692 8.70508L48.4153 8.85156C48.4153 8.53255 48.4462 8.23307 48.5081 7.95312C48.5732 7.67318 48.6724 7.42578 48.8059 7.21094C48.9394 6.99284 49.1086 6.82357 49.3137 6.70312C49.5221 6.57943 49.7694 6.51758 50.0559 6.51758C50.121 6.51758 50.1959 6.52572 50.2805 6.54199C50.3652 6.55501 50.4237 6.56966 50.4563 6.58594ZM52.1946 7.63086V13.9297H51.2864V6.61523H52.1165L52.1946 7.63086ZM55.7542 9.21289V9.31543C55.7542 9.69954 55.7086 10.056 55.6174 10.3848C55.5263 10.7103 55.3928 10.9935 55.217 11.2344C55.0445 11.4753 54.8313 11.6624 54.5774 11.7959C54.3235 11.9294 54.0321 11.9961 53.7034 11.9961C53.3681 11.9961 53.0719 11.9408 52.8147 11.8301C52.5575 11.7194 52.3394 11.5583 52.1604 11.3467C51.9814 11.1351 51.8381 10.8812 51.7307 10.585C51.6265 10.2887 51.5549 9.95508 51.5159 9.58398V9.03711C51.5549 8.64648 51.6282 8.29655 51.7356 7.9873C51.843 7.67806 51.9846 7.41439 52.1604 7.19629C52.3394 6.97493 52.5559 6.80729 52.8098 6.69336C53.0637 6.57617 53.3567 6.51758 53.6887 6.51758C54.0208 6.51758 54.3153 6.58268 54.5725 6.71289C54.8297 6.83984 55.0461 7.02214 55.2219 7.25977C55.3977 7.4974 55.5295 7.78223 55.6174 8.11426C55.7086 8.44303 55.7542 8.80924 55.7542 9.21289ZM54.8459 9.31543V9.21289C54.8459 8.94922 54.8183 8.70182 54.7629 8.4707C54.7076 8.23633 54.6213 8.03125 54.5042 7.85547C54.3902 7.67643 54.2437 7.53646 54.0647 7.43555C53.8857 7.33138 53.6724 7.2793 53.425 7.2793C53.1972 7.2793 52.9986 7.31836 52.8293 7.39648C52.6633 7.47461 52.5217 7.5804 52.4045 7.71387C52.2874 7.84408 52.1913 7.99382 52.1165 8.16309C52.0448 8.3291 51.9911 8.50163 51.9553 8.68066V9.94531C52.0204 10.1732 52.1116 10.388 52.2288 10.5898C52.3459 10.7884 52.5022 10.9495 52.6975 11.0732C52.8928 11.1937 53.1386 11.2539 53.4348 11.2539C53.679 11.2539 53.8889 11.2035 54.0647 11.1025C54.2437 10.9984 54.3902 10.8568 54.5042 10.6777C54.6213 10.4987 54.7076 10.2936 54.7629 10.0625C54.8183 9.82812 54.8459 9.5791 54.8459 9.31543ZM57.8098 7.44531V11.8984H56.9065V6.61523H57.7854L57.8098 7.44531ZM59.4602 6.58594L59.4553 7.42578C59.3805 7.40951 59.3088 7.39974 59.2405 7.39648C59.1754 7.38997 59.1005 7.38672 59.0159 7.38672C58.8075 7.38672 58.6236 7.41927 58.4641 7.48438C58.3046 7.54948 58.1695 7.64062 58.0588 7.75781C57.9482 7.875 57.8603 8.01497 57.7952 8.17773C57.7333 8.33724 57.6926 8.51302 57.6731 8.70508L57.4192 8.85156C57.4192 8.53255 57.4501 8.23307 57.512 7.95312C57.5771 7.67318 57.6764 7.42578 57.8098 7.21094C57.9433 6.99284 58.1125 6.82357 58.3176 6.70312C58.526 6.57943 58.7734 6.51758 59.0598 6.51758C59.1249 6.51758 59.1998 6.52572 59.2844 6.54199C59.3691 6.55501 59.4277 6.56966 59.4602 6.58594ZM61.2766 6.61523V11.8984H60.3684V6.61523H61.2766ZM60.3 5.21387C60.3 5.06738 60.344 4.94368 60.4319 4.84277C60.523 4.74186 60.6565 4.69141 60.8323 4.69141C61.0048 4.69141 61.1366 4.74186 61.2278 4.84277C61.3222 4.94368 61.3694 5.06738 61.3694 5.21387C61.3694 5.35384 61.3222 5.47428 61.2278 5.5752C61.1366 5.67285 61.0048 5.72168 60.8323 5.72168C60.6565 5.72168 60.523 5.67285 60.4319 5.5752C60.344 5.47428 60.3 5.35384 60.3 5.21387ZM63.6301 7.74316V11.8984H62.7268V6.61523H63.5813L63.6301 7.74316ZM63.4153 9.05664L63.0393 9.04199C63.0426 8.68066 63.0963 8.34701 63.2004 8.04102C63.3046 7.73177 63.4511 7.46322 63.6399 7.23535C63.8287 7.00749 64.0533 6.83171 64.3137 6.70801C64.5774 6.58105 64.8687 6.51758 65.1877 6.51758C65.4482 6.51758 65.6825 6.55339 65.8909 6.625C66.0992 6.69336 66.2766 6.80404 66.4231 6.95703C66.5728 7.11003 66.6868 7.30859 66.7649 7.55273C66.843 7.79362 66.8821 8.08822 66.8821 8.43652V11.8984H65.9739V8.42676C65.9739 8.15007 65.9332 7.92871 65.8518 7.7627C65.7704 7.59342 65.6516 7.47135 65.4954 7.39648C65.3391 7.31836 65.1471 7.2793 64.9192 7.2793C64.6946 7.2793 64.4895 7.3265 64.304 7.4209C64.1217 7.5153 63.9638 7.64551 63.8303 7.81152C63.7001 7.97754 63.5976 8.16797 63.5227 8.38281C63.4511 8.5944 63.4153 8.81901 63.4153 9.05664ZM70.4661 6.61523V7.30859H67.6096V6.61523H70.4661ZM68.5764 5.33105H69.4797V10.5898C69.4797 10.7689 69.5074 10.904 69.5627 10.9951C69.6181 11.0863 69.6897 11.1465 69.7776 11.1758C69.8655 11.2051 69.9599 11.2197 70.0608 11.2197C70.1357 11.2197 70.2138 11.2132 70.2952 11.2002C70.3798 11.1839 70.4433 11.1709 70.4856 11.1611L70.4905 11.8984C70.4189 11.9212 70.3245 11.9424 70.2073 11.9619C70.0933 11.9847 69.955 11.9961 69.7922 11.9961C69.5709 11.9961 69.3674 11.9521 69.1819 11.8643C68.9963 11.7764 68.8482 11.6299 68.7375 11.4248C68.6301 11.2165 68.5764 10.9365 68.5764 10.585V5.33105Z" fill="#EE5731"/>
</svg>

