<svg width="72" height="17" viewBox="0 0 72 17" fill="none" xmlns="http://www.w3.org/2000/svg">
<path d="M12.3811 3.87811C12.3278 3.87811 12.2745 3.86478 12.2278 3.83811C10.9478 3.17811 9.84114 2.89811 8.51447 2.89811C7.19447 2.89811 5.94114 3.21145 4.80114 3.83811C4.64114 3.92478 4.44114 3.86478 4.34781 3.70478C4.30623 3.62681 4.2969 3.53564 4.32184 3.45087C4.34677 3.36609 4.40397 3.29449 4.48114 3.25145C5.72114 2.57811 7.08114 2.23145 8.51447 2.23145C9.93447 2.23145 11.1745 2.54478 12.5345 3.24478C12.7011 3.33145 12.7611 3.53145 12.6745 3.69145C12.6481 3.74702 12.6066 3.79402 12.5547 3.82705C12.5028 3.86007 12.4426 3.87777 12.3811 3.87811ZM2.84114 7.37811C2.77969 7.37868 2.71928 7.36222 2.66661 7.33055C2.61394 7.29889 2.57108 7.25325 2.54277 7.1987C2.51446 7.14416 2.50181 7.08283 2.50623 7.02154C2.51065 6.96024 2.53196 6.90137 2.56781 6.85145C3.22781 5.91811 4.06781 5.18478 5.06781 4.67145C7.16114 3.59145 9.84114 3.58478 11.9411 4.66478C12.9411 5.17811 13.7811 5.90478 14.4411 6.83145C14.4667 6.86727 14.4849 6.90781 14.4948 6.95072C14.5046 6.99363 14.5058 7.03806 14.4984 7.08145C14.491 7.12484 14.475 7.16632 14.4514 7.20351C14.4279 7.2407 14.3972 7.27285 14.3611 7.29811C14.2078 7.40478 14.0011 7.37145 13.8945 7.21811C13.3106 6.3917 12.5352 5.71915 11.6345 5.25811C9.72114 4.27811 7.27447 4.27811 5.36781 5.26478C4.46114 5.73145 3.70114 6.39811 3.10114 7.23811C3.04781 7.33145 2.94781 7.37811 2.84114 7.37811ZM7.00781 15.4248C6.96409 15.4253 6.92074 15.4167 6.88056 15.3995C6.84037 15.3822 6.80424 15.3568 6.77447 15.3248C6.19447 14.7448 5.88114 14.3714 5.43447 13.5648C4.97447 12.7448 4.73447 11.7448 4.73447 10.6714C4.73447 8.69145 6.42781 7.07811 8.50781 7.07811C10.5878 7.07811 12.2811 8.69145 12.2811 10.6714C12.2811 10.8581 12.1345 11.0048 11.9478 11.0048C11.7611 11.0048 11.6145 10.8581 11.6145 10.6714C11.6145 9.05811 10.2211 7.74478 8.50781 7.74478C6.79447 7.74478 5.40114 9.05811 5.40114 10.6714C5.40114 11.6314 5.61447 12.5181 6.02114 13.2381C6.44781 14.0048 6.74114 14.3314 7.25447 14.8514C7.38114 14.9848 7.38114 15.1914 7.25447 15.3248C7.18114 15.3914 7.09447 15.4248 7.00781 15.4248ZM11.7878 14.1914C10.9945 14.1914 10.2945 13.9914 9.72114 13.5981C8.72781 12.9248 8.13447 11.8314 8.13447 10.6714C8.13447 10.4848 8.28114 10.3381 8.4678 10.3381C8.65447 10.3381 8.80114 10.4848 8.80114 10.6714C8.80114 11.6114 9.28114 12.4981 10.0945 13.0448C10.5678 13.3648 11.1211 13.5181 11.7878 13.5181C11.9478 13.5181 12.2145 13.4981 12.4811 13.4514C12.6611 13.4181 12.8345 13.5381 12.8678 13.7248C12.9011 13.9048 12.7811 14.0781 12.5945 14.1114C12.2145 14.1848 11.8811 14.1914 11.7878 14.1914ZM10.4478 15.5648C10.4211 15.5648 10.3878 15.5581 10.3611 15.5514C9.30114 15.2581 8.60781 14.8648 7.88114 14.1514C7.42066 13.6968 7.05552 13.1548 6.80712 12.5572C6.55871 11.9597 6.43202 11.3186 6.43447 10.6714C6.43447 9.59145 7.35447 8.71145 8.48781 8.71145C9.62114 8.71145 10.5411 9.59145 10.5411 10.6714C10.5411 11.3848 11.1611 11.9648 11.9278 11.9648C12.6945 11.9648 13.3145 11.3848 13.3145 10.6714C13.3145 8.15811 11.1478 6.11811 8.48114 6.11811C6.58781 6.11811 4.85447 7.17145 4.07447 8.80478C3.81447 9.34478 3.68114 9.97811 3.68114 10.6714C3.68114 11.1914 3.72781 12.0114 4.12781 13.0781C4.19447 13.2514 4.10781 13.4448 3.93447 13.5048C3.76114 13.5714 3.56781 13.4781 3.50781 13.3114C3.18657 12.4683 3.02165 11.5737 3.02114 10.6714C3.02114 9.87145 3.17447 9.14478 3.47447 8.51145C4.36114 6.65145 6.32781 5.44478 8.48114 5.44478C11.5145 5.44478 13.9811 7.78478 13.9811 10.6648C13.9811 11.7448 13.0611 12.6248 11.9278 12.6248C10.7945 12.6248 9.87447 11.7448 9.87447 10.6648C9.87447 9.95145 9.25447 9.37145 8.48781 9.37145C7.72114 9.37145 7.10114 9.95145 7.10114 10.6648C7.10114 11.8048 7.54114 12.8714 8.34781 13.6714C8.98114 14.2981 9.5878 14.6448 10.5278 14.9048C10.7078 14.9514 10.8078 15.1381 10.7611 15.3114C10.7278 15.4648 10.5878 15.5648 10.4478 15.5648Z" fill="#A3A3A3"/>
<path d="M24.2754 4.78906V11.8984H23.333V4.78906H24.2754ZM27.2539 7.9873V8.75879H24.0703V7.9873H27.2539ZM27.7373 4.78906V5.56055H24.0703V4.78906H27.7373ZM29.7051 6.61523V11.8984H28.7969V6.61523H29.7051ZM28.7285 5.21387C28.7285 5.06738 28.7725 4.94368 28.8604 4.84277C28.9515 4.74186 29.085 4.69141 29.2607 4.69141C29.4333 4.69141 29.5651 4.74186 29.6562 4.84277C29.7507 4.94368 29.7979 5.06738 29.7979 5.21387C29.7979 5.35384 29.7507 5.47428 29.6562 5.5752C29.5651 5.67285 29.4333 5.72168 29.2607 5.72168C29.085 5.72168 28.9515 5.67285 28.8604 5.5752C28.7725 5.47428 28.7285 5.35384 28.7285 5.21387ZM32.0586 7.74316V11.8984H31.1553V6.61523H32.0098L32.0586 7.74316ZM31.8438 9.05664L31.4678 9.04199C31.471 8.68066 31.5247 8.34701 31.6289 8.04102C31.7331 7.73177 31.8796 7.46322 32.0684 7.23535C32.2572 7.00749 32.4818 6.83171 32.7422 6.70801C33.0059 6.58105 33.2972 6.51758 33.6162 6.51758C33.8766 6.51758 34.111 6.55339 34.3193 6.625C34.5277 6.69336 34.7051 6.80404 34.8516 6.95703C35.0013 7.11003 35.1152 7.30859 35.1934 7.55273C35.2715 7.79362 35.3105 8.08822 35.3105 8.43652V11.8984H34.4023V8.42676C34.4023 8.15007 34.3617 7.92871 34.2803 7.7627C34.1989 7.59342 34.0801 7.47135 33.9238 7.39648C33.7676 7.31836 33.5755 7.2793 33.3477 7.2793C33.123 7.2793 32.918 7.3265 32.7324 7.4209C32.5501 7.5153 32.3923 7.64551 32.2588 7.81152C32.1286 7.97754 32.026 8.16797 31.9512 8.38281C31.8796 8.5944 31.8438 8.81901 31.8438 9.05664ZM40.1055 6.61523H40.9258V11.7861C40.9258 12.2516 40.8314 12.6488 40.6426 12.9775C40.4538 13.3063 40.1901 13.5553 39.8516 13.7246C39.5163 13.8971 39.1289 13.9834 38.6895 13.9834C38.5072 13.9834 38.2923 13.9541 38.0449 13.8955C37.8008 13.8402 37.5599 13.7441 37.3223 13.6074C37.0879 13.474 36.891 13.2933 36.7314 13.0654L37.2051 12.5283C37.4264 12.7952 37.6576 12.9808 37.8984 13.085C38.1426 13.1891 38.3835 13.2412 38.6211 13.2412C38.9076 13.2412 39.1549 13.1875 39.3633 13.0801C39.5716 12.9727 39.7327 12.8132 39.8467 12.6016C39.9639 12.3932 40.0225 12.1361 40.0225 11.8301V7.77734L40.1055 6.61523ZM36.4678 9.31543V9.21289C36.4678 8.80924 36.515 8.44303 36.6094 8.11426C36.707 7.78223 36.8454 7.4974 37.0244 7.25977C37.2067 7.02214 37.4264 6.83984 37.6836 6.71289C37.9408 6.58268 38.2305 6.51758 38.5527 6.51758C38.8848 6.51758 39.1745 6.57617 39.4219 6.69336C39.6725 6.80729 39.8841 6.97493 40.0566 7.19629C40.2324 7.41439 40.3708 7.67806 40.4717 7.9873C40.5726 8.29655 40.6426 8.64648 40.6816 9.03711V9.48633C40.6458 9.8737 40.5758 10.222 40.4717 10.5312C40.3708 10.8405 40.2324 11.1042 40.0566 11.3223C39.8841 11.5404 39.6725 11.708 39.4219 11.8252C39.1712 11.9391 38.8783 11.9961 38.543 11.9961C38.2272 11.9961 37.9408 11.9294 37.6836 11.7959C37.4297 11.6624 37.2116 11.4753 37.0293 11.2344C36.847 10.9935 36.707 10.7103 36.6094 10.3848C36.515 10.056 36.4678 9.69954 36.4678 9.31543ZM37.3711 9.21289V9.31543C37.3711 9.5791 37.3971 9.8265 37.4492 10.0576C37.5046 10.2887 37.5876 10.4922 37.6982 10.668C37.8122 10.8438 37.957 10.9821 38.1328 11.083C38.3086 11.1807 38.5186 11.2295 38.7627 11.2295C39.0622 11.2295 39.3096 11.166 39.5049 11.0391C39.7002 10.9121 39.8548 10.7445 39.9688 10.5361C40.0859 10.3278 40.1771 10.1016 40.2422 9.85742V8.68066C40.2064 8.50163 40.151 8.3291 40.0762 8.16309C40.0046 7.99382 39.9102 7.84408 39.793 7.71387C39.679 7.5804 39.5374 7.47461 39.3682 7.39648C39.1989 7.31836 39.0003 7.2793 38.7725 7.2793C38.5251 7.2793 38.3118 7.33138 38.1328 7.43555C37.957 7.53646 37.8122 7.67643 37.6982 7.85547C37.5876 8.03125 37.5046 8.23633 37.4492 8.4707C37.3971 8.70182 37.3711 8.94922 37.3711 9.21289ZM44.4902 11.9961C44.1224 11.9961 43.7887 11.9342 43.4893 11.8105C43.193 11.6836 42.9375 11.5062 42.7227 11.2783C42.5111 11.0505 42.3483 10.7803 42.2344 10.4678C42.1204 10.1553 42.0635 9.81348 42.0635 9.44238V9.2373C42.0635 8.80762 42.127 8.42513 42.2539 8.08984C42.3809 7.7513 42.5534 7.46484 42.7715 7.23047C42.9896 6.99609 43.237 6.81868 43.5137 6.69824C43.7904 6.5778 44.0768 6.51758 44.373 6.51758C44.7507 6.51758 45.0762 6.58268 45.3496 6.71289C45.6263 6.8431 45.8525 7.02539 46.0283 7.25977C46.2041 7.49089 46.3343 7.76432 46.4189 8.08008C46.5036 8.39258 46.5459 8.73438 46.5459 9.10547V9.51074H42.6006V8.77344H45.6426V8.70508C45.6296 8.4707 45.5807 8.24284 45.4961 8.02148C45.4147 7.80013 45.2845 7.61784 45.1055 7.47461C44.9264 7.33138 44.6823 7.25977 44.373 7.25977C44.168 7.25977 43.9792 7.30371 43.8066 7.3916C43.6341 7.47624 43.486 7.60319 43.3623 7.77246C43.2386 7.94173 43.1426 8.14844 43.0742 8.39258C43.0059 8.63672 42.9717 8.91829 42.9717 9.2373V9.44238C42.9717 9.69303 43.0059 9.92904 43.0742 10.1504C43.1458 10.3685 43.2484 10.5605 43.3818 10.7266C43.5186 10.8926 43.6829 11.0228 43.875 11.1172C44.0703 11.2116 44.2917 11.2588 44.5391 11.2588C44.8581 11.2588 45.1283 11.1937 45.3496 11.0635C45.571 10.9333 45.7646 10.7591 45.9307 10.541L46.4775 10.9756C46.3636 11.1481 46.2188 11.3125 46.043 11.4688C45.8672 11.625 45.6507 11.752 45.3936 11.8496C45.1396 11.9473 44.8385 11.9961 44.4902 11.9961ZM48.5039 7.44531V11.8984H47.6006V6.61523H48.4795L48.5039 7.44531ZM50.1543 6.58594L50.1494 7.42578C50.0745 7.40951 50.0029 7.39974 49.9346 7.39648C49.8695 7.38997 49.7946 7.38672 49.71 7.38672C49.5016 7.38672 49.3177 7.41927 49.1582 7.48438C48.9987 7.54948 48.8636 7.64062 48.7529 7.75781C48.6423 7.875 48.5544 8.01497 48.4893 8.17773C48.4274 8.33724 48.3867 8.51302 48.3672 8.70508L48.1133 8.85156C48.1133 8.53255 48.1442 8.23307 48.2061 7.95312C48.2712 7.67318 48.3704 7.42578 48.5039 7.21094C48.6374 6.99284 48.8066 6.82357 49.0117 6.70312C49.2201 6.57943 49.4674 6.51758 49.7539 6.51758C49.819 6.51758 49.8939 6.52572 49.9785 6.54199C50.0632 6.55501 50.1217 6.56966 50.1543 6.58594ZM51.8926 7.63086V13.9297H50.9844V6.61523H51.8145L51.8926 7.63086ZM55.4521 9.21289V9.31543C55.4521 9.69954 55.4066 10.056 55.3154 10.3848C55.2243 10.7103 55.0908 10.9935 54.915 11.2344C54.7425 11.4753 54.5293 11.6624 54.2754 11.7959C54.0215 11.9294 53.7301 11.9961 53.4014 11.9961C53.0661 11.9961 52.7699 11.9408 52.5127 11.8301C52.2555 11.7194 52.0374 11.5583 51.8584 11.3467C51.6794 11.1351 51.5361 10.8812 51.4287 10.585C51.3245 10.2887 51.2529 9.95508 51.2139 9.58398V9.03711C51.2529 8.64648 51.3262 8.29655 51.4336 7.9873C51.541 7.67806 51.6826 7.41439 51.8584 7.19629C52.0374 6.97493 52.2539 6.80729 52.5078 6.69336C52.7617 6.57617 53.0547 6.51758 53.3867 6.51758C53.7188 6.51758 54.0133 6.58268 54.2705 6.71289C54.5277 6.83984 54.7441 7.02214 54.9199 7.25977C55.0957 7.4974 55.2275 7.78223 55.3154 8.11426C55.4066 8.44303 55.4521 8.80924 55.4521 9.21289ZM54.5439 9.31543V9.21289C54.5439 8.94922 54.5163 8.70182 54.4609 8.4707C54.4056 8.23633 54.3193 8.03125 54.2021 7.85547C54.0882 7.67643 53.9417 7.53646 53.7627 7.43555C53.5837 7.33138 53.3704 7.2793 53.123 7.2793C52.8952 7.2793 52.6966 7.31836 52.5273 7.39648C52.3613 7.47461 52.2197 7.5804 52.1025 7.71387C51.9854 7.84408 51.8893 7.99382 51.8145 8.16309C51.7428 8.3291 51.6891 8.50163 51.6533 8.68066V9.94531C51.7184 10.1732 51.8096 10.388 51.9268 10.5898C52.0439 10.7884 52.2002 10.9495 52.3955 11.0732C52.5908 11.1937 52.8366 11.2539 53.1328 11.2539C53.377 11.2539 53.5869 11.2035 53.7627 11.1025C53.9417 10.9984 54.0882 10.8568 54.2021 10.6777C54.3193 10.4987 54.4056 10.2936 54.4609 10.0625C54.5163 9.82812 54.5439 9.5791 54.5439 9.31543ZM57.5078 7.44531V11.8984H56.6045V6.61523H57.4834L57.5078 7.44531ZM59.1582 6.58594L59.1533 7.42578C59.0785 7.40951 59.0068 7.39974 58.9385 7.39648C58.8734 7.38997 58.7985 7.38672 58.7139 7.38672C58.5055 7.38672 58.3216 7.41927 58.1621 7.48438C58.0026 7.54948 57.8675 7.64062 57.7568 7.75781C57.6462 7.875 57.5583 8.01497 57.4932 8.17773C57.4313 8.33724 57.3906 8.51302 57.3711 8.70508L57.1172 8.85156C57.1172 8.53255 57.1481 8.23307 57.21 7.95312C57.2751 7.67318 57.3743 7.42578 57.5078 7.21094C57.6413 6.99284 57.8105 6.82357 58.0156 6.70312C58.224 6.57943 58.4714 6.51758 58.7578 6.51758C58.8229 6.51758 58.8978 6.52572 58.9824 6.54199C59.0671 6.55501 59.1257 6.56966 59.1582 6.58594ZM60.9746 6.61523V11.8984H60.0664V6.61523H60.9746ZM59.998 5.21387C59.998 5.06738 60.042 4.94368 60.1299 4.84277C60.221 4.74186 60.3545 4.69141 60.5303 4.69141C60.7028 4.69141 60.8346 4.74186 60.9258 4.84277C61.0202 4.94368 61.0674 5.06738 61.0674 5.21387C61.0674 5.35384 61.0202 5.47428 60.9258 5.5752C60.8346 5.67285 60.7028 5.72168 60.5303 5.72168C60.3545 5.72168 60.221 5.67285 60.1299 5.5752C60.042 5.47428 59.998 5.35384 59.998 5.21387ZM63.3281 7.74316V11.8984H62.4248V6.61523H63.2793L63.3281 7.74316ZM63.1133 9.05664L62.7373 9.04199C62.7406 8.68066 62.7943 8.34701 62.8984 8.04102C63.0026 7.73177 63.1491 7.46322 63.3379 7.23535C63.5267 7.00749 63.7513 6.83171 64.0117 6.70801C64.2754 6.58105 64.5667 6.51758 64.8857 6.51758C65.1462 6.51758 65.3805 6.55339 65.5889 6.625C65.7972 6.69336 65.9746 6.80404 66.1211 6.95703C66.2708 7.11003 66.3848 7.30859 66.4629 7.55273C66.541 7.79362 66.5801 8.08822 66.5801 8.43652V11.8984H65.6719V8.42676C65.6719 8.15007 65.6312 7.92871 65.5498 7.7627C65.4684 7.59342 65.3496 7.47135 65.1934 7.39648C65.0371 7.31836 64.8451 7.2793 64.6172 7.2793C64.3926 7.2793 64.1875 7.3265 64.002 7.4209C63.8197 7.5153 63.6618 7.64551 63.5283 7.81152C63.3981 7.97754 63.2956 8.16797 63.2207 8.38281C63.1491 8.5944 63.1133 8.81901 63.1133 9.05664ZM70.1641 6.61523V7.30859H67.3076V6.61523H70.1641ZM68.2744 5.33105H69.1777V10.5898C69.1777 10.7689 69.2054 10.904 69.2607 10.9951C69.3161 11.0863 69.3877 11.1465 69.4756 11.1758C69.5635 11.2051 69.6579 11.2197 69.7588 11.2197C69.8337 11.2197 69.9118 11.2132 69.9932 11.2002C70.0778 11.1839 70.1413 11.1709 70.1836 11.1611L70.1885 11.8984C70.1169 11.9212 70.0225 11.9424 69.9053 11.9619C69.7913 11.9847 69.653 11.9961 69.4902 11.9961C69.2689 11.9961 69.0654 11.9521 68.8799 11.8643C68.6943 11.7764 68.5462 11.6299 68.4355 11.4248C68.3281 11.2165 68.2744 10.9365 68.2744 10.585V5.33105Z" fill="#A3A3A3"/>
</svg>

