<svg width="8" height="15" viewBox="0 0 8 15" fill="none" xmlns="http://www.w3.org/2000/svg">
<path d="M6.80484 0.195425L0.327341 6.84042C0.213574 6.95714 0.149902 7.11368 0.149902 7.27667C0.149902 7.43966 0.213574 7.59621 0.327341 7.71292L6.80484 14.3604C6.85784 14.4149 6.9212 14.4581 6.99119 14.4877C7.06118 14.5172 7.13637 14.5324 7.21234 14.5324C7.28831 14.5324 7.36351 14.5172 7.43349 14.4877C7.50348 14.4581 7.56684 14.4149 7.61984 14.3604C7.72887 14.2488 7.78991 14.099 7.78991 13.9429C7.78991 13.7869 7.72887 13.637 7.61984 13.5254L1.52859 7.27667L7.61984 1.02917C7.72849 0.91761 7.7893 0.768032 7.7893 0.6123C7.7893 0.456568 7.72849 0.30699 7.61984 0.195425C7.56684 0.140996 7.50348 0.0977348 7.43349 0.0681955C7.36351 0.0386563 7.28831 0.0234375 7.21234 0.0234375C7.13637 0.0234375 7.06118 0.0386563 6.99119 0.0681955C6.9212 0.0977348 6.85784 0.140996 6.80484 0.195425Z" fill="black"/>
</svg>

