<svg width="16" height="16" viewBox="0 0 16 16" fill="none" xmlns="http://www.w3.org/2000/svg">
<path d="M15.265 14.0822L12.4317 11.2572C13.3459 10.0926 13.8419 8.65442 13.84 7.17387C13.84 5.85533 13.4491 4.5664 12.7165 3.47007C11.984 2.37374 10.9428 1.51926 9.72461 1.01467C8.50643 0.510091 7.16599 0.378068 5.87278 0.635303C4.57957 0.892538 3.39169 1.52748 2.45934 2.45983C1.52699 3.39218 0.89205 4.58006 0.634815 5.87327C0.37758 7.16648 0.509602 8.50692 1.01419 9.72509C1.51877 10.9433 2.37325 11.9845 3.46958 12.717C4.56591 13.4495 5.85484 13.8405 7.17338 13.8405C8.65393 13.8424 10.0921 13.3464 11.2567 12.4322L14.0817 15.2655C14.1592 15.3436 14.2514 15.4056 14.3529 15.4479C14.4545 15.4903 14.5634 15.512 14.6734 15.512C14.7834 15.512 14.8923 15.4903 14.9939 15.4479C15.0954 15.4056 15.1876 15.3436 15.265 15.2655C15.3432 15.1881 15.4052 15.0959 15.4475 14.9944C15.4898 14.8928 15.5115 14.7839 15.5115 14.6739C15.5115 14.5639 15.4898 14.4549 15.4475 14.3534C15.4052 14.2518 15.3432 14.1597 15.265 14.0822ZM2.17338 7.17387C2.17338 6.18496 2.46663 5.21827 3.01604 4.39602C3.56544 3.57377 4.34634 2.93291 5.25997 2.55447C6.1736 2.17604 7.17893 2.07702 8.14883 2.26995C9.11874 2.46287 10.0097 2.93908 10.7089 3.63834C11.4082 4.3376 11.8844 5.22852 12.0773 6.19842C12.2702 7.16832 12.1712 8.17366 11.7928 9.08729C11.4143 10.0009 10.7735 10.7818 9.95123 11.3312C9.12899 11.8806 8.16229 12.1739 7.17338 12.1739C5.8473 12.1739 4.57553 11.6471 3.63785 10.7094C2.70017 9.77172 2.17338 8.49995 2.17338 7.17387Z" fill="#EE5731"/>
</svg>

