<svg width="14" height="15" viewBox="0 0 14 15" fill="none" xmlns="http://www.w3.org/2000/svg">
<path d="M7.24235 0.195425C7.29534 0.140996 7.35871 0.0977347 7.4287 0.0681955C7.49868 0.0386562 7.57388 0.0234375 7.64985 0.0234375C7.72582 0.0234375 7.80101 0.0386562 7.871 0.0681955C7.94099 0.0977347 8.00435 0.140996 8.05735 0.195425C8.166 0.30699 8.22681 0.456568 8.22681 0.6123C8.22681 0.768031 8.166 0.917609 8.05735 1.02917L1.96609 7.27667L8.05735 13.5254C8.11218 13.5816 8.15542 13.6479 8.18459 13.7208C8.21377 13.7936 8.2283 13.8715 8.22737 13.95C8.22645 14.0285 8.21007 14.106 8.17918 14.1781C8.14829 14.2502 8.1035 14.3156 8.04735 14.3704C7.99387 14.4227 7.93061 14.4639 7.86119 14.4917C7.79177 14.5195 7.71755 14.5333 7.64278 14.5323C7.56801 14.5314 7.49415 14.5158 7.42544 14.4863C7.35673 14.4567 7.29452 14.414 7.24235 14.3604L0.764841 7.71292C0.651074 7.5962 0.587402 7.43966 0.587402 7.27667C0.587402 7.11368 0.651074 6.95714 0.764841 6.84042L7.24235 0.195425ZM12.2424 0.195425C12.2954 0.140996 12.3587 0.0977347 12.4287 0.0681955C12.4987 0.0386562 12.5739 0.0234375 12.6499 0.0234375C12.7258 0.0234375 12.801 0.0386562 12.871 0.0681955C12.941 0.0977347 13.0044 0.140996 13.0574 0.195425C13.166 0.30699 13.2268 0.456568 13.2268 0.6123C13.2268 0.768031 13.166 0.917609 13.0574 1.02917L6.9661 7.27667L13.0574 13.5254C13.1122 13.5816 13.1554 13.6479 13.1846 13.7208C13.2138 13.7936 13.2283 13.8715 13.2274 13.95C13.2265 14.0285 13.2101 14.106 13.1792 14.1781C13.1483 14.2502 13.1035 14.3156 13.0474 14.3704C12.9939 14.4227 12.9306 14.4639 12.8612 14.4917C12.7918 14.5195 12.7176 14.5333 12.6428 14.5323C12.568 14.5314 12.4942 14.5158 12.4254 14.4863C12.3567 14.4567 12.2945 14.414 12.2424 14.3604L5.76485 7.71292C5.65108 7.5962 5.58741 7.43966 5.58741 7.27667C5.58741 7.11368 5.65108 6.95714 5.76485 6.84042L12.2424 0.195425Z" fill="black"/>
</svg>

