<svg width="22" height="22" viewBox="0 0 22 22" fill="none" xmlns="http://www.w3.org/2000/svg">
<path d="M20.1667 6.92083C20.1667 7.52583 19.6717 8.02083 19.0667 8.02083H2.93333C2.32833 8.02083 1.83333 7.52583 1.83333 6.92083V6.91167C1.83333 4.8125 3.52917 3.11667 5.62833 3.11667H16.3625C18.4617 3.11667 20.1667 4.82167 20.1667 6.92083Z" fill="white"/>
<path d="M1.83333 10.4958V15.0883C1.83333 17.1875 3.52917 18.8833 5.62833 18.8833H16.3625C18.4617 18.8833 20.1667 17.1783 20.1667 15.0792V10.4958C20.1667 9.89083 19.6717 9.39583 19.0667 9.39583H2.93333C2.32833 9.39583 1.83333 9.89083 1.83333 10.4958ZM7.33333 15.8125H5.5C5.12417 15.8125 4.8125 15.5008 4.8125 15.125C4.8125 14.7492 5.12417 14.4375 5.5 14.4375H7.33333C7.70917 14.4375 8.02083 14.7492 8.02083 15.125C8.02083 15.5008 7.70917 15.8125 7.33333 15.8125ZM13.2917 15.8125H9.625C9.24917 15.8125 8.9375 15.5008 8.9375 15.125C8.9375 14.7492 9.24917 14.4375 9.625 14.4375H13.2917C13.6675 14.4375 13.9792 14.7492 13.9792 15.125C13.9792 15.5008 13.6675 15.8125 13.2917 15.8125Z" fill="white"/>
</svg>
