<svg width="20" height="20" viewBox="0 0 20 20" fill="none" xmlns="http://www.w3.org/2000/svg">
<path d="M0 10C0 15.5228 4.47718 20 10 20C15.5228 20 20 15.5228 20 10C20 4.47718 15.5228 0 10 0C4.47718 0 0 4.47718 0 10ZM13.4398 5.08299C14.3382 5.08299 15.0685 5.8112 15.0685 6.71162C15.0685 7.60996 14.3402 8.34025 13.4398 8.34025C12.5394 8.34025 11.8112 7.61203 11.8112 6.71162C11.8112 5.8112 12.5394 5.08299 13.4398 5.08299ZM6.56017 5.08299C7.45851 5.08299 8.1888 5.8112 8.1888 6.71162C8.1888 7.60996 7.46056 8.34025 6.56017 8.34025C5.65975 8.34025 4.93154 7.61203 4.93154 6.71162C4.93154 5.8112 5.66183 5.08299 6.56017 5.08299ZM4.70539 10.6349C5.27178 10.5436 5.80291 10.9274 5.89627 11.4938C6.05187 12.4564 6.5477 13.3402 7.29459 13.9793C8.04772 14.6266 9.0083 14.9813 10.0021 14.9813C10.9938 14.9813 11.9564 14.6266 12.7075 13.9813C13.4523 13.3423 13.9481 12.4627 14.1058 11.5C14.1992 10.9336 14.7324 10.5519 15.2967 10.6432C15.8631 10.7365 16.2448 11.2697 16.1535 11.834C15.917 13.278 15.1722 14.5975 14.0581 15.5539C12.9295 16.5207 11.4896 17.0539 10.0021 17.0539C8.51245 17.0539 7.07054 16.5207 5.94191 15.5519C4.82573 14.5934 4.08299 13.2697 3.84855 11.8237C3.75519 11.2593 4.139 10.7261 4.70539 10.6349Z" fill="white"/>
</svg>
