<svg width="36" height="30" viewBox="0 0 36 30" fill="none" xmlns="http://www.w3.org/2000/svg">
<rect x="0.5" y="0.5" width="35" height="29" rx="1.5" fill="white" stroke="#FF0000"/>
<path d="M24.0466 10.4867C22.9733 10.38 21.8999 10.3 20.8199 10.24V10.2334L20.6733 9.36671C20.5733 8.75337 20.4266 7.83337 18.8666 7.83337H17.1199C15.5666 7.83337 15.4199 8.71337 15.3133 9.36004L15.1733 10.2134C14.5533 10.2534 13.9333 10.2934 13.3133 10.3534L11.9533 10.4867C11.6733 10.5134 11.4733 10.76 11.4999 11.0334C11.5266 11.3067 11.7666 11.5067 12.0466 11.48L13.4066 11.3467C16.8999 11 20.4199 11.1334 23.9533 11.4867C23.9733 11.4867 23.9866 11.4867 24.0066 11.4867C24.2599 11.4867 24.4799 11.2934 24.5066 11.0334C24.5266 10.76 24.3266 10.5134 24.0466 10.4867Z" fill="#FF0000"/>
<path d="M22.8202 12.4266C22.6602 12.26 22.4402 12.1666 22.2135 12.1666H13.7868C13.5602 12.1666 13.3335 12.26 13.1802 12.4266C13.0268 12.5933 12.9402 12.82 12.9535 13.0533L13.3668 19.8933C13.4402 20.9066 13.5335 22.1733 15.8602 22.1733H20.1402C22.4668 22.1733 22.5602 20.9133 22.6335 19.8933L23.0468 13.06C23.0602 12.82 22.9735 12.5933 22.8202 12.4266ZM19.1068 18.8333H16.8868C16.6135 18.8333 16.3868 18.6066 16.3868 18.3333C16.3868 18.06 16.6135 17.8333 16.8868 17.8333H19.1068C19.3802 17.8333 19.6068 18.06 19.6068 18.3333C19.6068 18.6066 19.3802 18.8333 19.1068 18.8333ZM19.6668 16.1666H16.3335C16.0602 16.1666 15.8335 15.94 15.8335 15.6666C15.8335 15.3933 16.0602 15.1666 16.3335 15.1666H19.6668C19.9402 15.1666 20.1668 15.3933 20.1668 15.6666C20.1668 15.94 19.9402 16.1666 19.6668 16.1666Z" fill="#FF0000"/>
</svg>