<svg width="16" height="16" viewBox="0 0 16 16" fill="none" xmlns="http://www.w3.org/2000/svg">
<path d="M1.3335 6.00001V4.33334C1.3335 2.67334 2.6735 1.33334 4.3335 1.33334H6.00016" stroke="black" stroke-width="1.2" stroke-linecap="round" stroke-linejoin="round"/>
<path d="M10 1.33334H11.6667C13.3267 1.33334 14.6667 2.67334 14.6667 4.33334V6.00001" stroke="black" stroke-width="1.2" stroke-linecap="round" stroke-linejoin="round"/>
<path d="M14.6665 10.6667V11.6667C14.6665 13.3267 13.3265 14.6667 11.6665 14.6667H10.6665" stroke="black" stroke-width="1.2" stroke-linecap="round" stroke-linejoin="round"/>
<path d="M6.00016 14.6667H4.3335C2.6735 14.6667 1.3335 13.3267 1.3335 11.6667V10" stroke="black" stroke-width="1.2" stroke-linecap="round" stroke-linejoin="round"/>
<path d="M11.3332 6.33334V9.66668C11.3332 11 10.6665 11.6667 9.33317 11.6667H6.6665C5.33317 11.6667 4.6665 11 4.6665 9.66668V6.33334C4.6665 5.00001 5.33317 4.33334 6.6665 4.33334H9.33317C10.6665 4.33334 11.3332 5.00001 11.3332 6.33334Z" stroke="black" stroke-width="1.2" stroke-linecap="round" stroke-linejoin="round"/>
<path d="M12.6668 8H3.3335" stroke="black" stroke-width="1.2" stroke-linecap="round" stroke-linejoin="round"/>
</svg>
