<svg width="16" height="16" viewBox="0 0 16 16" fill="none" xmlns="http://www.w3.org/2000/svg">
<path d="M12.4683 8.34741C12.0514 8.34741 11.7124 8.6864 11.7124 9.10302C11.7124 9.51936 12.0514 9.85835 12.4683 9.85835H14.4899V13.9813H1.51035V9.85835H3.67882C4.09602 9.85835 4.43501 9.51936 4.43501 9.10302C4.43501 8.68635 4.09602 8.34741 3.67882 8.34741H0V15.4922H16V8.34741H12.4683Z" fill="#010002"/>
<path d="M8.58077 0.747166C8.42778 0.592727 8.2231 0.507751 8.00499 0.507751C8.00322 0.507751 8.00091 0.50802 7.99914 0.50861C7.99737 0.508342 7.99506 0.507751 7.99329 0.507751C7.77927 0.507751 7.56991 0.594445 7.4187 0.745716L5.44412 2.72029C5.29054 2.87387 5.20557 3.07823 5.20557 3.29548C5.20557 3.51272 5.29054 3.71708 5.44439 3.87066C5.75155 4.17782 6.28615 4.17809 6.59417 3.87066L7.17961 3.28522V11.7526C7.17961 12.2011 7.54458 12.5658 7.99334 12.5658C8.44211 12.5658 8.80676 12.2011 8.80676 11.7526V3.27298L9.40444 3.87066C9.7116 4.17782 10.2468 4.17782 10.5539 3.87066C10.7081 3.71708 10.7928 3.51272 10.7928 3.29548C10.7928 3.07796 10.7081 2.87387 10.5545 2.72029L8.58077 0.747166Z" fill="#010002"/>
</svg>
